<mxfile host="app.diagrams.net" modified="2024-01-18T21:36:16.731Z" agent="Mozilla/5.0 (Windows NT 10.0; Win64; x64; rv:121.0) Gecko/20100101 Firefox/121.0" etag="AjRvNFuXp2QEvkmhyf3p" version="22.1.21" type="device">
  <diagram name="Page-1" id="X3nehu_3xtWP8W8jXImZ">
    <mxGraphModel dx="1436" dy="1946" grid="0" gridSize="10" guides="1" tooltips="1" connect="1" arrows="1" fold="1" page="0" pageScale="1" pageWidth="850" pageHeight="1100" math="0" shadow="0">
      <root>
        <mxCell id="0" />
        <mxCell id="1" parent="0" />
        <mxCell id="G3RhWABNZF6Ew54WlCH--1" value="2" style="ellipse;whiteSpace=wrap;html=1;aspect=fixed;" vertex="1" parent="1">
          <mxGeometry x="210" y="250" width="40" height="40" as="geometry" />
        </mxCell>
        <mxCell id="G3RhWABNZF6Ew54WlCH--3" value="3" style="ellipse;whiteSpace=wrap;html=1;aspect=fixed;" vertex="1" parent="1">
          <mxGeometry x="320" y="180" width="40" height="40" as="geometry" />
        </mxCell>
        <mxCell id="G3RhWABNZF6Ew54WlCH--4" value="4" style="ellipse;whiteSpace=wrap;html=1;aspect=fixed;" vertex="1" parent="1">
          <mxGeometry x="320" y="320" width="40" height="40" as="geometry" />
        </mxCell>
        <mxCell id="G3RhWABNZF6Ew54WlCH--5" value="5" style="ellipse;whiteSpace=wrap;html=1;aspect=fixed;" vertex="1" parent="1">
          <mxGeometry x="430" y="250" width="40" height="40" as="geometry" />
        </mxCell>
        <mxCell id="G3RhWABNZF6Ew54WlCH--6" value="" style="endArrow=classic;html=1;rounded=0;entryX=0;entryY=0.5;entryDx=0;entryDy=0;exitX=1;exitY=0;exitDx=0;exitDy=0;" edge="1" parent="1" source="G3RhWABNZF6Ew54WlCH--1" target="G3RhWABNZF6Ew54WlCH--3">
          <mxGeometry width="50" height="50" relative="1" as="geometry">
            <mxPoint x="250" y="260" as="sourcePoint" />
            <mxPoint x="300" y="210" as="targetPoint" />
          </mxGeometry>
        </mxCell>
        <mxCell id="G3RhWABNZF6Ew54WlCH--7" value="" style="endArrow=classic;html=1;rounded=0;entryX=0;entryY=0.5;entryDx=0;entryDy=0;exitX=1;exitY=1;exitDx=0;exitDy=0;" edge="1" parent="1" source="G3RhWABNZF6Ew54WlCH--1" target="G3RhWABNZF6Ew54WlCH--4">
          <mxGeometry width="50" height="50" relative="1" as="geometry">
            <mxPoint x="260" y="270" as="sourcePoint" />
            <mxPoint x="331" y="217" as="targetPoint" />
          </mxGeometry>
        </mxCell>
        <mxCell id="G3RhWABNZF6Ew54WlCH--8" value="" style="endArrow=classic;html=1;rounded=0;entryX=0;entryY=0;entryDx=0;entryDy=0;exitX=1;exitY=0.5;exitDx=0;exitDy=0;" edge="1" parent="1" source="G3RhWABNZF6Ew54WlCH--3" target="G3RhWABNZF6Ew54WlCH--5">
          <mxGeometry width="50" height="50" relative="1" as="geometry">
            <mxPoint x="254" y="266" as="sourcePoint" />
            <mxPoint x="330" y="210" as="targetPoint" />
          </mxGeometry>
        </mxCell>
        <mxCell id="G3RhWABNZF6Ew54WlCH--9" value="" style="endArrow=classic;html=1;rounded=0;entryX=0;entryY=1;entryDx=0;entryDy=0;exitX=1;exitY=0.5;exitDx=0;exitDy=0;" edge="1" parent="1" source="G3RhWABNZF6Ew54WlCH--4" target="G3RhWABNZF6Ew54WlCH--5">
          <mxGeometry width="50" height="50" relative="1" as="geometry">
            <mxPoint x="264" y="276" as="sourcePoint" />
            <mxPoint x="340" y="220" as="targetPoint" />
          </mxGeometry>
        </mxCell>
        <mxCell id="G3RhWABNZF6Ew54WlCH--10" value="1" style="ellipse;whiteSpace=wrap;html=1;aspect=fixed;" vertex="1" parent="1">
          <mxGeometry x="90" y="250" width="40" height="40" as="geometry" />
        </mxCell>
        <mxCell id="G3RhWABNZF6Ew54WlCH--11" value="" style="endArrow=classic;html=1;rounded=0;entryX=0;entryY=0.5;entryDx=0;entryDy=0;exitX=1;exitY=0.5;exitDx=0;exitDy=0;" edge="1" parent="1" source="G3RhWABNZF6Ew54WlCH--10" target="G3RhWABNZF6Ew54WlCH--1">
          <mxGeometry width="50" height="50" relative="1" as="geometry">
            <mxPoint x="130" y="266" as="sourcePoint" />
            <mxPoint x="206" y="210" as="targetPoint" />
          </mxGeometry>
        </mxCell>
        <mxCell id="G3RhWABNZF6Ew54WlCH--13" value="" style="shape=image;verticalLabelPosition=bottom;labelBackgroundColor=default;verticalAlign=top;aspect=fixed;imageAspect=0;image=data:image/png,iVBORw0KGgoAAAANSUhEUgAAAfMAAAB6CAYAAACrx7rvAAAgAElEQVR4Xu2dBbAcRbSGG3d3d3d3J7hTBIcAhbs7FK7BIXjhXri7u7umggcI7v7e169OXjOZ3ZneO7O3996/q1JJ7p2d7fla/tPnnO4Z7t//LU5FBERABERABESgYwkMJzHv2LZTxUVABERABETAE5CYqyOIgAiIgAiIQIcTkJh3eAOq+iIgAiIgAiIgMVcfEAEREAEREIEOJyAx7/AGVPVFQAREQAREQGKuPiACIiACIiACHU5AYt7hDajqi4AIiIAIiIDEXH1ABERABERABDqcgMS8wxtQ1RcBERABERABibn6gAiIgAiIgAh0OAGJeYc3oKovAiIgAiIgAhJz9QEREAEREAER6HACEvMOb0BVXwREQAREQAQk5uoDIiACIiACItDhBCTmHd6Aqr4IiIAIiIAISMzVB0RABERABESgwwlIzDu8AVV9ERABERABEZCYqw+IgAiIgAiIQIcTkJh3eAOq+iIgAiIgAiIgMVcfEAEREAEREIEOJyAx7/AGVPVFQAREQAREQGKuPiACIiACIiACHU5AYt7hDajq904Cf//9txtuuOHc8MMP3zsBtPDU//77r+MP3PijEkfgn3/+8R9Qn4vj1q6rJebtIt2Lv+eee+5xt956q1trrbXc3HPP7b7//nv30UcfuVtuucVtttlmbrHFFuvFdOIfHSGfb7753BprrOGOPfbY+Bv0wk9cc8017vbbb3eDBg1y0003ndt0003dKqus0gtJxD/yX3/95U4++WT3xBNP+A8zhnfbbTc3ySSTxN9Mn6iNgMS8NrS6sRE46KCD3HHHHTcMkE022cRdeeWVAhVJ4MADD3THH3+8O+CAA3K5Rt6ux1++0047uY8//tjtsssubtppp3VHHXWU73fiV9z0X3/9tVt++eXdaqut5pZddln38ssvD+1z1157rVt55ZWLb6Ir2kJAYt4WzL37SxDzq666yn344YdunHHGcUsuuaRfkfft21cuu8iu8cwzz/gJFO+GxKgY3ttvv+1mm202t8wyy7gHH3zQ97fffvvNjTbaaP7DTz/9tFtkkUWKb9RLr9h5553dd99956644oqhoYk777zTrb766n4sv/POO1qhJ9I3OkrMidlUFa8hdkZR7Kz+noiYU4444gj/9wgjjFBZO9Zf+3S+AXcn7vWNNtrIHXLIIRLzEk1z9913u1VXXdVfiSG08MILuz///NONPPLI/mcIk/2+xO161SX0t/nnn9+99tprfjWO8UgJf3711Vf7/qjS/QQ6RszPOuss7yo75phj3IgjjtglcsQcEZixxx7bHXzwwV26lz5cTMDEnLaT8VTMq9EVuNZZkS+99NLe7amVeTmWJ5xwght33HHd9ttv7z/wxRdfuEknndT/m5X7LLPMUu5GvewqFk94NB5//HEf1tl///09gfDnhHyUt5FGx6hFzGns33//3b3wwgveRWMZpOONN55bcMEF3SijjBL19GeffbYXXyzrWWedNeqzjS5+88033eKLL+6tcqxLlfoIYDDRB0iAI+mNiZVJYtFFF63vS3vYnRGdbbfd1ruK77//fol5i+1LP2QuQZyIpTO3qDQmQMz8ueee86EdM8RZDLFif/XVV92AAQPcDjvsIIQJEKhczN944w2/en7yySd9jHSqqabyf/g/ZZpppnFHH320zyYts0pjsJG4QsyGz1RZuOfmm2/u9t13X3fiiSdWeWvdKyCAmN9xxx1uiimm8LHyH374wVv5JMCdc845HcOKvj3TTDO5kUYaaZi+iwFLLJY+T4y2yoJbk+QjXOtkYN91110dLea4uf/44w/38MMPu3nmmcdNMMEEQ2PYVXIL74Uo9e/f33v3brvtNrfjjjv2mOTBIUOGuJNOOsltueWWbvbZZ68L4dD7kmfADhQ8m++//76baKKJav9OfUExgcrEnMHJZHPBBRd4Nwwurd13391NOOGEfuJjAF9yySXerY2rkDgLGaXNYuBMnqyecSkWXVv8qPlX7Lfffn4gPPbYYz4xS6V6ArYt6LLLLhva3og4yTWdYtnTv8nq/eSTT7w3Z4455vCZ0RT6DiKByDLJYbiUMVTLksZNjJFghk8nizkuW1yz/G2FRCrmC3IqRh111LJYoq5D8K6//nrPkTg5bcd2q5lnnjnqPqldjKG39tpr+2di++eaa65ZaxWZ2zEs6fP33nuv69OnT63fp5uXJ1CJmH/11VduhRVW8IkSCO+FF17oJptsstxaPPLII77zIejbbbedO++883Kvw5VDx2TiQtTrsjg//fRTf288BriTYkMA5VH33ivzkg0JmeBmn3rqqb11z2o35ULYaMUVV/yPCGXrO+ecc7qHHnrIG7BVFbKFN9hgA/fAAw8MXQF1qpibAbfhhhv6fcrzzjuvnwdOPfVUb1DDj9U6K/U6y5dffulFHIMLQVpooYUq/TrmLpI821Euv/xyt8UWW/ivaoeYE57gD/M27VhHqTLRuY76pXrPLov5559/7uMpCDlu00svvbRpghoTOy5WBi8FC32JJZYYhg+rGw7FYAXPtqYqVzrhl1Ef6s3q8cwzz/QufZVqCRDvReBCkUMcbRX266+/VroiI3zCoTSWeFfF0xSJ+T777OPDS5YlXcV3Igqsghgf/fr186tJ+ivCjqHLODr88MP9d7ZLPFp9rtdff93NNddcnhEr8+x4PuOMM7wnb+ONN/Yhtap2rVDfrDjAdbnllvOrS7ZYIYJVfR8r5XXWWcedcsopta/6P/vsM78QwSBqh5gj4PQ5DoGy7XyWD9Vqv8h+jnFGuAAjJXUDv6pnruo+XRLzwYMHu5VWWskLOVY1k8zEE09cWDdOEjKXdp67ncFGxi5x9na4v22iYbJ5/vnnK52QC2H08Aveffddny1M0hseHNuJEO71pR9VeZoUORBPPfWUwwtUlciZmDN54UpHjPg3Arvuuuu6ySefvPKWxLWPx8uKTZwYKvzBq8EfjFFiwCkX3Ojnn3++wxOWx4pnnWGGGdxPP/3kECnbB97VZ+JgEzwChPeYq6zwf7Kwq/YMYZiOPvroPi7PYqSuwhxJQilzLyGeusWcODkrcUIVbO+jIOoDBw6stO/ZHvYff/zRjTnmmHXh65H3bVnMw1gNZBqtsPOoMWDHGmss/yviZUzmYawMtzrGAYlz7733Xu2ubyZqXG0MjHYYDz2yJzV4KAY8SVu0M2Ju1rb9vOrJlGqQB4EhWIeYI+TEsBHWqlZzzfoDuSbZcthhhw09Ae7II49Mft8+wsPuBYx4DGfyDbLFkvy45ueff/aC2NXCPclzYEwvtdRSPgSCcRfGfVlU4Nqvyuhrl5jjvSDnhBDFNttsU6uYExLD83TjjTf+x7uGF5MFUJXZ7BLz1nt9y2IexmpiXeHhqoyqZ60wXHEk05VJkmv90f//k0zMrGxwI5Fpr73nVVD9v3tgKLHqJmwShlPsiNdw/2pV31qHmNsq2cS8rrBPEQP6Km5qDAr+7oS9+4gzbm1yUjjXmzPSMdTDwpxgcWwM+CrCFYg2+Tl8X5hoicjjBcC7QQgP135VpR1ijncDg4i2J9fHkt7qiJnjWcOlDiO2Flv+CwsfFnCEJ6s80lVi3npPbEnMcYPRmdhDTjE3e9lqMLhDFwoTPYlzFHMf0agcFIP12azQoWxywA1kcVlW9+xpJp7E9heSiJrFYGwLHPVgUFRlqZdlkvp1rJhwHbIdZautthqa4EhfYJcCnHE5s0rITsQMeFyaGGhc8+KLL3ohIiucXQpVC2MdYo5Rgsub3RW2MkcUKPSVov4CO/oqnggSP+mLiA3nHdBP2a5HP6UPN7oX44TkN/7mhSFM5HiwGCMpn2IGu0MPPXRonoxtT0Ug7FnpHxjRCFQ21wFOiDHiy0oa9zV9Bv64f2FLQdSyO1Is2Y095XgH6H8Y7KxsMeAZ91X2v7rF3OZHxhseBU64KxJzPGLsMuIzbA1lNU3BQL3uuuv8/E0YDLd96DXhuxZYYAH3yiuvNJyeyJmyA3iqmMPqEnPmKfIymL8w8Ow5qf9NN93kdznQLwmZNUreruL56rxHS2JOohjZqBQmEw6HibGksSynnHLKoc8VGgNmodt+0GZxJw57YUCyWqJTUxf+Pu200xyxMjotliQTIP/GzdYoU9Zc+7iDaeCqYnZ1Nl677g0/OBPrJBYNSw4vwZNBIqOtuBmIrLzInchmdONWx5tj57MzASFqVU6kxqMuMSebnb7GZEAcFnGhWNyaZKq8glGKIUOfp5/B79lnn3V77LGHP7AIIebnuKARI8R9/PHHH+ZWJBIi4pQw8Yi3gKV8ihl1ZUsf4xOjxQqG88UXX+wFhfkkz8OHkJMTQL9jbDJXEH8n1IDhQ3+CGT+HX94OGbalXXTRRV70Lc+B8yXCg1CqGkt1izlGCO5twkgkv7GQaSbmPDuhBthZrgXjcPrpp/djGsGGH2Oc39OvLf8C9ozbZqVqI7IOMce7QBiVeQpuzDk87wcffOANSM6/YAzz3fwODenEA62ixRxrDmuNgUNptr2sUSeww1rs98TQxxhjDP/fcNWOoIeiH96PQcNpcEzcrAaZzCwpCCuTSdJOi+NcYSZTBj8rwbyVT/i9jeJ6zTo1W4hwD1ZV6kyeiakjq6oZZ5zRD/C9997bn+AHH9ykcGbVDXsGAascJmUmaQQpe+wukwN/4F+HiJvIkXFbV8yc1Q0CgvAQh8U7RWIXYkLskBVkWFh5swogbstWLMsVgR+GDysmVjZwYdUETzizB7qnFVbRJKERVssW9pgzRrN5CIgVh0XBEY8Oq0cKfQ8xZvcMCwkWAdwb70ej5DMYW65DXf2vTjE3jyjxawsFFom5GbYsZAhpYQSxAqUfk29Bn2WcYmxhZMIFhnl5De3oj1WLOcYKhhvtju5gGGI8It4w4GcYJDw3Hi/6F79jPq/rzIO6OEaLuWV+W4ViszaBSgdiAqRgrZNBbvu7mYRtpdcsEQbh4NQ2ViuIA4KD+NMQTBqhq8Q6CN/XSKhtEHINA6TRKiuvIegwTDh4A6oouIKwDlN4zzfGDy5KvBUMek5Aw2jC0mc1iVVrJWy77koktK2PVYu5xcwRbcIwCLkJAhMhkx+rzmzOBZMpnG6++WbHKskyuenjeDdCj5YZuQgV3qsqksCq6I9V3gOXLTtVwhU692d1yPgJM90tyRaD/txzz/WrKRuXGFPZY5jtACiMSVynMd7Cqp6xLjG3czfghjBbyLCZmJuXk9AFgoaRayddhitwnh3W5DUg5Hg++H07Ejyz3KsWc/O4cvQsWsM8bf0mm7Qd5nJ14jblaDFHvM06piF++eWXKJc0k6IJAp+n4zBQrdj+8mb3ZsKmUfibBBasdhqKkhdnL7Je+RwNSaIWgyXWQLHBkJd5nO2stqUp/HneKiEFqxC+CLlZsAi6eUryYpsMDkSOwmlvTCDtLnWJOas6DEiMxqxrMUyg5HntkCP6A14sPEKspDCMWH1TwjwRY0Tf3XXXXf1/Y/NQ2s25le/Dc7X11lv7ZyNeztgNRR0jBreubX1ibsFjZ4ahiXXe3JA9vyJ2XmrlefI+U5eYMycxnshdCVfNzeY22wLMip4jV+2kOFbghEbDHCI74ZDPYGiGBkNVbMrcp2oxZ8yiLzwvYxhvrXnWsqeKWn+jnng/7CyUMvVO4ZpoMbdMcyrPCpI3EMUITzjhc4+sdRR2zkaHiTBwaQgmVmIblrzG/fJW3qFbnwmBBKZssZUX9ekuIepKh4AJ7Koo4ZGQxNcwvuAccszbihj+vq7z7vneb7/9tuljYnnTD+irRaWq4y/DcWGrcyYPQjyEophM8UjZiYd5YhOKVax3qOg57ffffPOND0FYVnLZz3FdGKfHM8MKu2xBUEgepGDIIEgY4bw8xt7bwO9wARMfx7PGeeq2R9y2kyE2GO643EMxCre2cZ8wdFe2jkXXwY7vb1aox3rrreeOOuoon9DYrDCuyrw4CiMaLx2ssjttmok5XktyMzghjrkUpnbyJgIXLiIIp3FGCMYVXhJe5lP1aZjErnFfNyt4bkiWZBtc0dsx6U9FpwXizWG+wL1uq3S+P2/RZyExfo/BjmHRSSVazMMJJ89V2Ozhw9PWuI7GYC9w2Gjhyp/VclGHslU6EzhxSDpMaFxk3fqNVt2sonAzMVgbCX7KDfvSSy/5xJiuxgKZpPNclCHHRkmCYd8osxMhlif9gWzTvJhreC/CLUxa5q1p9D2NnrXR9c2O6Qz7bd7KJsw1ycspyIpRzLkNMRxJTuTUuK4WVtH0kzKndIWGctYjAVPyBPAA2So9b3to0aoJsSL3wO5Rx8qco1+J7ReNMeYQVr8sdpoVQgXsRGh2P4wY2GCc0nb2kh8zxizOy/eQp2K5NlkXeXhQFwa6eYisfmH4lP5LpnyRmMb2IfJACDc1K7Qfnpu8U0Gzn8OrG+P9Cz1fRYu+uhYjscxiro8W8zDuEtvooWVEJfMmrDJu9vABsSjZn0ocNy8bFpHmdX2WsNcoZh4e11mHEMU0SqtHJCJ2RRNNmXrkGVDhwTpYrawIwgkjK0Z1uYlpTya4RgV2WPas9lhdFMX9ioxF+x6MRbxBuMzzJpBwhZRn5IYJlnliFYpR3TsqaMuuFriWEXK+Bzc5q3i4NDrIh/6CwBDbzDOGwnkhz2uRFaO63MRF7GhH9mMjWhyW1KwQ0y8arybChCVsb34YqmPewxii2DWMD/pY2LdDz1HeKXyhd7OVpOay/amIH2EWwgF4QYpyRsqOXeoGE0KzsIIj74PI5lSEnrPu1oCyPMProsU8XIGQjcvpQGXc7OGLU6hAo8NZwkFb5iSocBDnNUC4DS6bbBeCYBAWZcM2A0y9H3300VbaYJjP2MEgTAqpFJK8bDLJi5fjRrVkuHad3JfHpo6YeeiiNHHK7mfOinlWTMLf5yUHmuBx/3YdltSuvmUem6LVjoVp8ty8fNYy/PPmhbwwR7ueLzuPVHmcK0Ypz95I9PFC2RZJ8wYwBu67776hYoihTZ4TLue8rcTMzbaTgmdpJWeoKtZVx8ytXuGW57xFH0aG7dTJS+6t6vnqvE+0mOO+IvZi7iwm8TKb7EPLr9lkFYpvmbhXkesk/N5m1lboxouNV4YCUkVjcT/2xZaJp1XxfWXuURQvL8u5zHd15Zo6xDx7yFGeGNuhJybG2ZcDhWKU5wK2s8v5PKtTO9ijKyxS+aw9e1FSkR3zjJjjUraVUxgCy1u1h14hXNvEisvMSXXwqToBjv7cLLGWGLoZOYQ97PCtcNUZen3yVt1h8i/s2WVR1utSNcO6xLxo0Rf+HkbZnIKqn7OO+0WLOe4K9hzb1jJO1bEM3EYVJP5CrJM9ucTJca83sjTDLWJFccMwXs53Z2PsxOqwtnDh4RpmS1GjOFA4YbMKDbdclQFPXexEsDLXN7uGe3XHtppGdcpma2cTE5lsOJjC2qsuF2cZrnWIOf2KeCxCwSoz+2Y9vhMXp21NzIp9GDPOC02R4DTbbLMVvha4zPOneI0ZgggNq75GoQ/zXmRX8OGckJfPEk7EefHgdjKpWsyL6h6GPRstQsKkY9oCd3NYwgVR0ZxbVJ+u/r4uMQ8XGyRYZg+FMRc7XkWSBqs81a6rTMp+PlrMuTGTDzDskBZcQXnih7iRvcthEAg58UY6U7PEitDKLjprmEnWDouhXuEkygRrR4jiWsLt1KyBbCLpThdx2UZr93WhC4rvzrrh7ERAVpPEvLprVUTd6hBz7ouIcMAL2bacZRAWXJ2EnOjjeccBh94mEscQHxsvsOV4XGLyeVuG2t3WdXxfOE5ZPRITzRrzGNP2KuW33nrrP/vNwxBF9sU8eAYx1PFmML9Y/LiO5yhzz3aIOX2cRRUMORbZ9o4zX8ICYyk0mMIQBIzoa8afbVocZkTfTSFOXIeYh/Fy2jAbJiSPg1cN417PvkOiTJunck1LYk7liZVz3jkTmZ13vP766/tOAjwOguGMZSw9BJItOlmLsBEEi7EVueXChDoagm0tdEi2K3AyFJ0cIWelmD1eNPvdxPBJnGIwIFZFZ22n0oDtqEcoRqxOOT4UXvwNZ/ZjluVcd33rEnPOt2a3A65gJgPeWc2EyRYpMpIRebYP0Xey22XC/eX0U0QbI5cJlHsxgdHvMHTzjnGtm1k77s9qiGdklwEhBbx5vOyEeC3JYoxVhAUxziaOhSEK+h8GU//+/f245nMIeZ1JWzF82iHm5OYwtzLXYhjaOzKY/5hrmX8JU5DLFL7dkr4Hf/oc747HsGLOI9mM0+FSeI1uHWIeGpP0H8YtCxDGM1vgOBWPn3MynL2nPabNU7m2ZTHnAdhjzqBiYrIYOhMVbm0KEzzxcY5bjXFbmFuo6PCC0HXCqpw9qXa6D9/NpMEgL3JZ0+HZi8lnU7BOU+kcVo9QjBArVkq2X9ramAm3iHM7nqsuMafuCHq/fv2G2X/KJMkeYDxBebFGc+ExYTD5sueVPk5BmHDRhy8daQen7vgOYtl77bWXT8TKFmK1nP9ge9Ht96GnjmtgzKKARQRH47IVi//HnNhY57O3Q8yZ6xBz29WRPYiKMcBODhLxsvFyPEjE2RF1hJ85FkHnnPcUSh1int1fjtFImBgGeHrwVuy5557d6lGsgn2XxNwqQEIPVrId5oErEdcNhxC0MsGHllTeNgq+N3Sd2Fm6TKTEJ+nMuPLLfrfFRPlcdybPVNGgVd8j3F9uhwSxJQRmFKzcmC0iVdcve786xZzvYiVJHxk4cKBfSeKdIF+g0Yt5wq2RiBHjxJKamITpp92VbFR3W+TdH36E6V5++WU/X7BjA4ZsL83jEMbLLZZOaIL7wI8xnpIXrR1iHrrZYWx7zsPQhbnZ8+LljF17R0KZ7XHt7Cd1iHleknTIIKX5qyusKxHzrlSg0WfN1d7ojFwGNCcoYaF3dSuPNXYKMbc6WHblntnDTlJ/PayJOSvgFMIl4Za9TjyMqCt9p4rPhvHy7twyVfZZ2iHmZevCdUX7y2Pu1Y5rbV89B0OFr8lu9bvtBUZ4XTv1BSplnz1ZMWcSxPVjr9vMWu2h66Qrh+Lbe6qZ/LMvDikLsSdfF8bLG50NkNrzcwwool6UJ9GOeochitgtj+2oX+rfEZ4qWObciRSeh3mku946Fj5/GC9nHiWPqay3sjs5Vskvu788ex57dz5n1d+drJiHVmVokTNJs1oks9i2xHGUKVt7WnEZ2SE1Rcl2VYNP/X7mCia2ZJzJ+iRBpBXOqT9v1fXDDcxkSqKR5RcQoyMpqRMm1Kp5xN4Pdoxzds3YaYK8DRF2vSksEcvNrie8M3jw4KG7LMgfOv30031IoupjWlutY92fY6HGWfB2Rj7bqMmh4vlTCs1UxSFpMbfkF/Z9M5BJomMVfuGFF/oMVivEcknsIDnG3tpVBpC9E53Ph69hLfPZnn4N+3XJUrdkRp7XMrFjOfd0Vtnnw7V3wAEH+H3ndjoX15BLgreJ/ovxqZJPACFi+xoZ8JapzZW4SUnaIlO7p8Q56+gD5CSw0yj7UhhEDWOcROGeKGYhS56dbXskC4YFfejbt+8wZ0XU0Q7tvmfSYg4MMub79OnjBzIvEsBVaZ00TPzg37jkeDtVmYKhwBnbZNayr7U790aXqW+7r4FzeDwtfEmq4W8yt8lXUMknAKMBAwa4QYMG/edNY1yN0JO13dMn0670DcYm2dp5hVfw4ikqOtO8K9/f6Z/lZVMYjHmFRU/2JSud/rx59efsE7Y8MhYt29/6DAeYsY20p5XkxRzgQ4YM8XsC2X9axTtmaWASQ3DV33DDDW6hhRbqae2q5xEBERABEehFBDpCzG2F/sEHHwyzD7XVtmJ1z5aYySefvNVb6HMiIAIiIAIikASBjhHzJGipEiIgAiIgAiKQIAGJeYKNoiqJgAiIgAiIQAwBiXkMLV0rAiIgAiIgAgkSkJgn2CiqkgiIgAiIgAjEEJCYx9DStSIgAiIgAiKQIAGJeYKNoiqJgAiIgAiIQAwBiXkMLV0rAiIgAiIgAgkSkJgn2CiqkgiIgAiIgAjEEJCYx9DStSIgAiIgAiKQIAGJeYKNoiqJgAiIgAiIQAwBiXkMLV0rAiIgAiIgAgkSkJgn2CiqkgiIgAiIgAjEEJCYx9DStSIgAiIgAiKQIAGJeYKNoiqJgAiIgAiIQAwBiXkMLV0rAiIgAiIgAgkSkJgn2CiqkgiIgAiIgAjEEJCYx9DStSIgAiIgAiKQIAGJeYKNoiqJgAiIgAiIQAwBiXkMLV0rAiIgAiIgAgkSkJgn2CiqkgiIgAiIgAjEEJCYx9DStSIgAiIgAiKQIAGJeYKNoiqJgAiIgAiIQAwBiXkMLV0rAiIgAiIgAgkSkJgn2CiqkgiIgAiIgAjEEJCYx9DStSIgAiIgAiKQIAGJeYKNoiqJgAiIgAiIQAwBiXkMLV0rAiIgAiIgAgkSkJgn2CiqkgiIgAiIgAjEEJCYx9DStSIgAiIgAiKQIAGJeYKNoiqJgAiIgAiIQAwBiXkMLV0rAiIgAiIgAgkSkJgn2CiqkgiIgAiIgAjEEJCYx9DStSIgAiIgAiKQIAGJeYKNoiqJgAiIgAiIQAwBiXkMLV0rAiIgAiIgAgkSkJgn2CiqkgiIgAiIgAjEEJCYx9DStSIgAiIgAiKQIAGJeYKNoiqJgAiIgAiIQAwBiXkMLV0rAiIgAiIgAgkSkJgn2CiqkgiIgAiIgAjEEJCYx9DStSIgAiIgAiKQIAGJeYKNoiqJgAiIgAiIQAwBiXkMLV0rAiIgAiIgAgkSkJgn2CiqkgiIgAiIgAjEEJCYx9DStSIgAiIgAiKQIAGJeYKNoiqJgAiIgAiIQAwBiXkMLV0rAiIgAiIgAgkSkJgn2CiqkgiIgAiIgAjEEJCYx9DStSIgAiIgAiKQIAGJeYKNoiqJgAiIgAiIQAwBiXkMLbnlYXMAAADOSURBVF0rAiIgAiIgAgkSkJgn2CiqkgiIgAiIgAjEEJCYx9DStSIgAiIgAiKQIAGJeYKNoiqJgAiIgAiIQAwBiXkMLV0rAiIgAiIgAgkSkJgn2CiqkgiIgAiIgAjEEJCYx9DStSIgAiIgAiKQIAGJeYKNoiqJgAiIgAiIQAwBiXkMLV0rAiIgAiIgAgkSkJgn2CiqkgiIgAiIgAjEEJCYx9DStSIgAiIgAiKQIAGJeYKNoiqJgAiIgAiIQAwBiXkMLV0rAiIgAiIgAgkS+B9XzeewJXLQNwAAAABJRU5ErkJggg==;" vertex="1" parent="1">
          <mxGeometry x="90" y="402" width="405" height="99.02" as="geometry" />
        </mxCell>
        <mxCell id="G3RhWABNZF6Ew54WlCH--14" value="&lt;font color=&quot;#ff0000&quot;&gt;S&lt;/font&gt;" style="text;strokeColor=none;align=center;fillColor=none;html=1;verticalAlign=middle;whiteSpace=wrap;rounded=0;" vertex="1" parent="1">
          <mxGeometry x="44" y="255" width="60" height="30" as="geometry" />
        </mxCell>
        <mxCell id="G3RhWABNZF6Ew54WlCH--15" value="&lt;font color=&quot;#ff0000&quot;&gt;T&lt;/font&gt;" style="text;strokeColor=none;align=center;fillColor=none;html=1;verticalAlign=middle;whiteSpace=wrap;rounded=0;" vertex="1" parent="1">
          <mxGeometry x="456" y="255" width="60" height="30" as="geometry" />
        </mxCell>
        <mxCell id="G3RhWABNZF6Ew54WlCH--16" value="2" style="ellipse;whiteSpace=wrap;html=1;aspect=fixed;" vertex="1" parent="1">
          <mxGeometry x="210" y="635" width="40" height="40" as="geometry" />
        </mxCell>
        <mxCell id="G3RhWABNZF6Ew54WlCH--17" value="3" style="ellipse;whiteSpace=wrap;html=1;aspect=fixed;" vertex="1" parent="1">
          <mxGeometry x="320" y="565" width="40" height="40" as="geometry" />
        </mxCell>
        <mxCell id="G3RhWABNZF6Ew54WlCH--18" value="4" style="ellipse;whiteSpace=wrap;html=1;aspect=fixed;" vertex="1" parent="1">
          <mxGeometry x="320" y="705" width="40" height="40" as="geometry" />
        </mxCell>
        <mxCell id="G3RhWABNZF6Ew54WlCH--19" value="5" style="ellipse;whiteSpace=wrap;html=1;aspect=fixed;" vertex="1" parent="1">
          <mxGeometry x="430" y="635" width="40" height="40" as="geometry" />
        </mxCell>
        <mxCell id="G3RhWABNZF6Ew54WlCH--20" value="" style="endArrow=classic;html=1;rounded=0;entryX=0;entryY=0.5;entryDx=0;entryDy=0;exitX=1;exitY=0;exitDx=0;exitDy=0;" edge="1" parent="1" source="G3RhWABNZF6Ew54WlCH--16" target="G3RhWABNZF6Ew54WlCH--17">
          <mxGeometry width="50" height="50" relative="1" as="geometry">
            <mxPoint x="250" y="645" as="sourcePoint" />
            <mxPoint x="300" y="595" as="targetPoint" />
          </mxGeometry>
        </mxCell>
        <mxCell id="G3RhWABNZF6Ew54WlCH--21" value="" style="endArrow=classic;html=1;rounded=0;entryX=0;entryY=0.5;entryDx=0;entryDy=0;exitX=1;exitY=1;exitDx=0;exitDy=0;" edge="1" parent="1" source="G3RhWABNZF6Ew54WlCH--16" target="G3RhWABNZF6Ew54WlCH--18">
          <mxGeometry width="50" height="50" relative="1" as="geometry">
            <mxPoint x="260" y="655" as="sourcePoint" />
            <mxPoint x="331" y="602" as="targetPoint" />
          </mxGeometry>
        </mxCell>
        <mxCell id="G3RhWABNZF6Ew54WlCH--22" value="" style="endArrow=classic;html=1;rounded=0;entryX=0;entryY=0;entryDx=0;entryDy=0;exitX=1;exitY=0.5;exitDx=0;exitDy=0;" edge="1" parent="1" source="G3RhWABNZF6Ew54WlCH--17" target="G3RhWABNZF6Ew54WlCH--19">
          <mxGeometry width="50" height="50" relative="1" as="geometry">
            <mxPoint x="254" y="651" as="sourcePoint" />
            <mxPoint x="330" y="595" as="targetPoint" />
          </mxGeometry>
        </mxCell>
        <mxCell id="G3RhWABNZF6Ew54WlCH--23" value="" style="endArrow=classic;html=1;rounded=0;entryX=0;entryY=1;entryDx=0;entryDy=0;exitX=1;exitY=0.5;exitDx=0;exitDy=0;" edge="1" parent="1" source="G3RhWABNZF6Ew54WlCH--18" target="G3RhWABNZF6Ew54WlCH--19">
          <mxGeometry width="50" height="50" relative="1" as="geometry">
            <mxPoint x="264" y="661" as="sourcePoint" />
            <mxPoint x="340" y="605" as="targetPoint" />
          </mxGeometry>
        </mxCell>
        <mxCell id="G3RhWABNZF6Ew54WlCH--26" value="&lt;font color=&quot;#ff0000&quot;&gt;S&lt;/font&gt;" style="text;strokeColor=none;align=center;fillColor=none;html=1;verticalAlign=middle;whiteSpace=wrap;rounded=0;" vertex="1" parent="1">
          <mxGeometry x="164" y="640" width="60" height="30" as="geometry" />
        </mxCell>
        <mxCell id="G3RhWABNZF6Ew54WlCH--27" value="&lt;font color=&quot;#ff0000&quot;&gt;T&lt;/font&gt;" style="text;strokeColor=none;align=center;fillColor=none;html=1;verticalAlign=middle;whiteSpace=wrap;rounded=0;" vertex="1" parent="1">
          <mxGeometry x="456" y="640" width="60" height="30" as="geometry" />
        </mxCell>
        <mxCell id="G3RhWABNZF6Ew54WlCH--28" value="" style="shape=image;verticalLabelPosition=bottom;labelBackgroundColor=default;verticalAlign=top;aspect=fixed;imageAspect=0;image=data:image/png,iVBORw0KGgoAAAANSUhEUgAAAUEAAABdCAYAAAA7bdRlAAAWHElEQVR4Xu2dBawjNxeFvWUGlblblRlVZuZWVZmZQSqTqqrMzMysMqnMrEplVFVmZv7/z9KNvNOZzOTFk8TJsbTa3fcmHvv4+ly0M+zf/zenJgSEgBAYUASGiQQHdOU1bSEgBDwCIkEJghAQAgONgEhwoJdfkxcCQkAkKBkQAkJgoBEQCQ708mvyQkAIiAQlA0JACAw0AiLBgV5+TV4ICAGRoGRACAiBgUZAJDjQy6/JCwEhIBKUDAgBITDQCIgEB3r5NXkhIAREgpIBISAEBhoBkeBAL78mLwSEgEhQMiAEhMBAIyASHOjl1+SFgBAQCUoGhIAQGGgERIIDvfyavBAQAiJByYAQEAIDjYBIcKCXv7XJ//XXX27kkUd2w4YNa+2DA/z0P//84/gGi5FGGkm4DUEOwI8GfnU1kWBdyPZZv1999ZVbcMEF3dlnn+1WW221Pptd/OlAfOedd5577LHH3AcffODmnntut/nmm7tFFlkk/sv6sMcvv/zSXXLJJe722293E0wwgVtyySXdVltt5SaddNLosxUJRoe0/zpkQ++6667unHPOcXfddZdbddVV+2+SEWeE9QLhTTfddG6ttdZy448/vttvv/3cHXfc4THcaaedIr6t/7qCAJdffnm3+uqru6WXXtoTIcoXPG+88UavjGM2kWBMNPu0r3vuuadBfCLB8kU2vNZcc0136623ejf46aefdosuuqgnxM8//9yNPvro5R0N4BMokHXWWcfNPvvs7thjj20gwL8PPPBAN88887jnnnvOjTrqqNHQSZoEASxWrMC+eVTxrhFl64svvvBaeY455nDXXXedLMEKW+/cc891O++8s3/y999/d6ONNpoDx8kmm8z/7KmnnpJbXIDjH3/80VAQEN/+++/vnwx/fvfdd7tVVlmlwkpUeyRZEjzzzDPdhx9+6I466ig3yiijVJttwVN///231zJo6YMPPritvvrpw+YG44Z89913XjPLEixfYXA7/vjj3fDhw90GG2zgP3Dvvff6jYuMQYgQo9p/ESD5NsMMM/i9jTLZcccd/UP8fP7553cvv/yyl0MjxxgYdoQEsdjQiC+88ILfTAgJFteEE07o/ftWXYOzzjrLHXTQQe6ZZ55xs846awwc3GuvveYWW2wx7/Zdc801UfpMvRPcuiOPPNI98sgj7pBDDhEJDnFBUbK4eMQEw409xO76/mMk4d55550RrOU///yzoTiSswRfffVVb609+eST7v3333fTTDON/8P/aVgZbLRNN920UgkBBLjbbru5K6+80n8mZqNPAtr77ruv1+SD3Cw4fcMNN7hZZpnFW8r9ZAmy0Y477ji37LLL1pbtfuutt9yll17qHn/8cS/74Lfxxhv3hVg9++yzPkmx7bbbevmou1177bUeO7LsGFPten/heGuzBPHhsR4uuOAChyWIWbvnnnu6iSee2JMdzI6A4H5+//33bqONNnJXXXVV0xgfhIq1RolG2bNDXRSyeCeccIIvbVhiiSWG2k3yn7PwwAEHHODn0k8kiDzusssuvoSlToWH23vzzTe79957z1199dVuqaWWcqeccoqbZJJJkpYP9jYeHK4pmds11lij1vlgSc8333y+1Oj+++9PIztsVgQgQVgXXnihm2KKKXKBwtVae+21PRHusMMOXjDzGkCQbXviiSd8YJnsUR3t448/9n1joZKFatVVr2NMne6TTCbk8NBDDzU0bj+RIG4pskSrkwTDdXvzzTd96Gb66af3coUxELPFTBKWjcsMBZ4DS0pZ6mybbbaZfw9x1YUXXjj6q6Jbgp9++qlbeeWVvZbYZJNN3GWXXdbUdGXxsDawvmi4Dosvvvh/JnrnnXd6jQNRElepK4tLvJJxY36fccYZ3vUepIaFvsACC/hatuWWW85vWjA5/PDDvfuI5idbjHKIlZnvJL7IJwXLWBV1kmCWlMAV3PAwyBxT9xarYZltueWW7rTTTqulmDgcJ0ZI6CHVTYLsdWorMaQWWmihRj4hFnb0E5UEP/vsM7fSSit5ApxzzjndAw88UGlRQmDz3GKsQFwJ4oidcFNfeeUVN9dcc/k/zz///EBl8khgrbDCCv+RMbJ1xLXAhAwnhEhoIqVmbjAKDs+jLhJk45JcO/HEE/3GpaFIKPxFfjn9gJXNEcQY7aeffnLjjjtu7Zl7ZIP5gCOhqbotQbxClAUusIUQwJYTJPBErBaNBElh49ZSQtHMossbuC0iv2ODQaZjjDFG41EAh1RJqLz99tu1u6i22JB5J0g31mLG6gerJWxs4MMOO8wH9rHIV1xxRW/d12WNx5pHth+sWJJpRxxxhNtrr71qIcGwng038bbbbvMWM4qcJAzyhKdBEi4Wfp0iQdxgakWRBRIidZIglQkWkploookaioQTOHhnPVkneMUVV7gtttjCDxaWJhBcdZF/++03N+aYYzZk9scff3TjjDNO4/9kl0myVEmexNhAbHpcFjQRmetBrh0EC/6A/zHHHOMoTyDcUXVtY6xHjD5wgzmxsd122/l6M4tjxY4JYgwQTsBqRn423HBDP/ywWDp2iUcnSNC8NRQJliAGT10kSEyaUjWywZTRWUkdCgTDhJxArNI45hDFEvzkk0/8iQJqAGnmDlcV3p9//nkE0sPasEP6aFDYHwuTAmnOsDZrxBSJU2A1IoAWgMaa5AgTbhBHb9Zff/2mR2+sFIdxoM1juS5VMWn3OQQHV4LYF/NFgZhFghAhzDQSBEVZcPrA/QBT8Gd9SRjxPIphttlma3eYHfk8mxa5YR6UV+BelZEgZEaZFPJCKMaex9KjbOill17yXguyiZcSNupXKZLG6sQF5rmjjz7aY44isYx7rMnXTYKWDUaJIA/Mo4wE8eZOPfVUT2CUnRlGGDwXXXSRl0vcWmKZU045ZQMK3sUlCRauyMPITuHEwi8KCZJA2GOPPfyYmCyC1kpFPBnZqaeeujEnYnKQKg3QZp55Zl9BXpaOx/qk9IHFwpxmLPzNYmDGE89iUdDE/Ju4jJnaWUDNBUeAsSJCSzUW+HX1wxxJbDD3aaed1m9+SpRIbmyzzTZeSUHuxFj5NwRZVCAOYWYFkv6xduq40aMOTCwbbEk3CL0ZCaJ4URwojR9++MFbdcg4iSJwRBkgn+CHXOYpZyw/5O7RRx/1/SCLeEp13CJjRkRdp3nwhs4//3xHbeDkk0/ujYJmJGjVIeONN55jL+M1YNh8++23fn/yc/BjH/I7/mbP0lBYyG2Rp8F+jB2LbpsEYW42BJOlNStzKRJwK1K237OoY401lv9vaCUicCFZhv39+uuv3kQmbmEFnGgbSACNwyY3ExptjHuHpUi9YZ6VF743JOWqm5SSCOKXsVortVhsdjY5RP7NN9/4DU2zZM/JJ5/sCYy1Y2Ozmfs1E45FQlkFa20F8GUkiBdA4oc1xOrDWkGGaPvss4+XMWKiyAibGTkr8n4gVFqd9wnWaQki+yRyCHeZDDYjQUgMCxjFyXNY4BAo+5CfXX755V4Bs+fADNkEW05sFZXRxdpDRf20TYKWSbUXlFlr2YGY1QJQtKwlyQa1kpmQHLP9ILgI+RtvvOEBnnHGGb2WBnxiDCHA4SYoIjhI1Yi41TIABB9BwPqM0dCcaEfTls36NCHkGZQLrpnhh/CxPmFpC2cwwQ2cOOHQT3WRJltYs2GWvxkJ4mrheUB2u+++u7OwCHgSm+a4pjXWeZlllvGWNvEriKIbYZO6SNCUJHuS0IrJTTMSJDQ21VRTeQsY8iS2jgtNy+4jsJ5pppn8Pu1m7L1tEmRTERex9ssvv7TkOgI0QFjdFu6GgUafVh/Iv4v6RtghHf7GJUarWAwiz1UJi2VZUCucDckFN5xbP3CHWiV2+iGmlM2y5pEXZr/dYGO/z3MFwmx5MxKEvCF8hJYspCWV+AyWYbbInMQApRw0NtPYY48dg7d7og8C6cTzsrWnzUgQ2cG6Ays8Bwp18SLyrsBijSFBSxoQa+yGEqmLBJEd6ndff/31EYyIZiSIZ4WiQKEix+YlkuhgH4VKgj2Ge131xFhdQtU2CYabDIuFu9KqblgmhYCiMaxlBTYkLDZ4Xt+QCOBj/RFzCbV3nqUXut+4Nrg+2QY5U9zKeDDhCe6m0LAEse6YE7hYUinP0gsLw5lbs3BDO3P/+uuvG2fF2+mHTGHVo4xsMGraKKWwQnx7dzMSJJ6FV8JGRgawClHQeVZ0NhTUqgFQBQvOOGPJNmtYpOuuu64v/bHQR9HzeBNVTqugBPAgMCJQBGFrRoKMlcsP2C9hrD/P0gMvU7q86+GHH456JrgKvjzTNgmGR2iYyIMPPlg5KZLdhAQ8OUYXHo4OLU0Eu0zTmlWI9iZDjEYKiTPrfhdZeVhx1HWh5YuIsirI3XoutGbzypZwRzgDavHcuixB4mqcZmi3Yd2j4Kq4nFi4BNzt6GNocfNzi2/xnF3emT0BY8kxxp0XMw3rWyHnOixBCBklXNaQU2K+GCLNGp5WmUI3C5e+qKiw75Uxj4U9w604NP6NggDfrAcTGht59bahgdOp8rc8bNomQYsp0XmrbB4KGZ/POzJXxR0OJ2YxHbR33saH3KgTs41fFBO0kxOMqUppTpmQtvN7q5NqtY/wJA7xqqxGDzU1G6jOs9Lg2W5jM1a5PcTIic1pYZGQBJENTo2YzCK3YLz11luPUPZT5lF0ahOXYUesnCoHCIsazmatzIjgszYvCJMwAC3E76OPPvJhJxp7DC8Da5SEY3jjM5+HxPMOQPDZ0IDqm5gg19wQiK/iDtuFCGhlWhEIIQk2S4zYwoeJmjzyCjc+G4SAeZ5g4HpzBBASHEpMkHETHI7R2KBcYIA72Epj/gT3aQguAeuwhb+PXTTcyjhjP4ubxamWojIL4rxkJmlsYDwGMMZttvILSzBBlkWhBMqQLKEHYVL+0Y0WOyaI1Ya8FTXCJhbDN+sTvCg5s70UnrrKCyWEnhbvGUoFRiys27YEETgC8QgWjexQlVR3qGWbmcIhaVVx18KNnQds+N5mFl4Yr2g1O8yGwkK2OxPbXSz6o8C0lSp5lAyWH5s4r3Yz/D1uD8HvsGi13TF3+/PE64oaMUFiaDSywMS1aVgxRpyhR0HmF9cudJfD33fqOGfRfGKTIPJWlNSz00OWTMP6JO4KbqEVGO7bbFadeVgCin930xXm/W2TIBqANLhpxNNPP71hfRQtGgFQhJCiUzQv1laR1g5LVYpumLH3hPFAfpaNIYb3oJGtIsBb5F6FdYJ5VlTZJmcsxFZiNPpqpfjc5m5F5mhiiDzEOBTCbroiMfBptY8wzlwU7w1DNXnPhK5wq0qy1fGWPR+bBMveF4bAwtNd4edIVFr4Ja+I21zhXlDAbZMgEw+vJ8J1wALKul48BylwnpJCZQiQAlY0bLM4T1iGUFTOYuBDetxya6Z6GIyFSDi6xLuxjO677z6fni9qJuTd1vJlAln0+zAswJpQ+GthCqxcYkcoFbQwa1Al2TDUsfTK57B+UQSsrZ14IAxALIufh5Ze6DGQ9CBhZ7/HHaSiwU6SdPu6tU6QIPvHEiO4ylZ4zp7EoAAbwyebfMyGWsCSxArPsRZVM/51yVEUEmRwxAI5j4uAcAcd1sV6663nhQtrkdgbZQdsPIgFwat6Pb5pDVyXbLlDCEyovQnGcs4Vl5egMfcasnAQILGLsjIBxn/ooYf6Bc7WN9W1GDH7DcMCYIE1yHw4QYIQoyC23357r5RSuwxhKDiRJLIzu3YtGP1wWsGSJ8gHJSRh1QLYUceGPPDl33gxPMfZ4V45ZdMJEmSu119/vYceBWv3BLDHOMUFZuwrPJawdAhLD3KkfAfv75ZbbvGGiB2Pq3IAYCjr3cpnopEgL6VG8KSTTvIby2KEBE4tCI2wYXlwrK2ZFZadgNUSksUD6KLvHA21N5ucyxgti8W7yVZxrK/MtcT65JwnZTbdzgy3spj2LBYPZRBWJsTfuDAQAQ1iJ4jP0bpBIEDmjAwZCYbF6Tb/MDGSjQeCE4oD8oQUwY8LJLIXJwxlrWJ8plMkGJ6AMgxD/CiPIzGSjQcyR+pW4QS8EmKIXMfVKzHoqCRoC4q7BVlxYNq07bzzzuvPq5YRUJ5QhG4uAOeBl83m4f5BlmglFgyXu+q7rZKdz3EMr0qiJ4Ywx+ojxMvKhAh0Q+4ILTgMgvsb4slaIiPhpuX3VvoRusNhvNSUIJjabdHg10u3aneCBJl7HvGFGJpMhfWBFsc3/HimSplOrL1QpZ9aSLDKi1t9xlziIhckPIfYbrbJXElillZP1up4u/l8WB+YoiXbTex4dxhKaPVauG6M3ZJ4ZYnDTowtjAemcgNTMiRI6Q3nXnGvMbuzLnFZdX9VAYBMOS5H3IM+8xI8Vfvq1nMkgOwi2Lzzwt0aVwrvDeOB2YRSL4+fdbbr57o5zjAemMpdnMmQIAtr55TD4mWEFuD5ak8rDH7xxRd95T9uS6sxLyvOLkvCdFPQit6Nu8sfElKUJRC0xpIhK1wUR+3FeXRrTGBHKIdYH/E/YlcE8nF9hV/5qrAPqRQhMUrbe++9/Z4lFNXL4ZekSNDKZajb43oskiu4x3wTFdk6a2SkOL2CRRRezlC2jHYFO19aU3SSpKyPbv0ebCjV4MotSjesQYRYs3zpVZWTPN0af7ffax4AFpVlPhkTcsSlHLjIIsLiVQI3Eo+WfLMn2X8kkkjM9VIcNZxJUiTIwMlAcyQKV4VqdeqMDHgL3AI2gVziiFW/6BoSIaPKMb7s1UHd3qBV3k9GmIsA2MBhsJ9/E5shM9qrQlhlfnU/gxVD6UbeOW1CMGWXDtQ9vl7vnz1z8cUX5yae+IqBur+buB18kiNBJsv1QtzwkndN0lDAQPAx23Gpb7rppujfcD+UMekzQkAIdAaBJEnQLMJ333032vcNYE0OHz68Z2qXOrP8eosQEALJkqCWTggIASEQAwGRYAwU1YcQEALJIiASTHbpNHAhIARiICASjIGi+hACQiBZBESCyS6dBi4EhEAMBESCMVBUH0JACCSLgEgw2aXTwIWAEIiBgEgwBorqQwgIgWQREAkmu3QauBAQAjEQEAnGQFF9CAEhkCwCIsFkl04DFwJCIAYCIsEYKKoPISAEkkVAJJjs0mngQkAIxEBAJBgDRfUhBIRAsgiIBJNdOg1cCAiBGAiIBGOgqD6EgBBIFgGRYLJLp4ELASEQAwGRYAwU1YcQEALJIiASTHbpNHAhIARiICASjIGi+hACQiBZBESCyS6dBi4EhEAMBESCMVBUH0JACCSLgEgw2aXTwIWAEIiBgEgwBorqQwgIgWQREAkmu3QauBAQAjEQEAnGQFF9CAEhkCwCIsFkl04DFwJCIAYCIsEYKKoPISAEkkVAJJjs0mngQkAIxEBAJBgDRfUhBIRAsgiIBJNdOg1cCAiBGAiIBGOgqD6EgBBIFgGRYLJLp4ELASEQAwGRYAwU1YcQEALJIiASTHbpNHAhIARiICASjIGi+hACQiBZBESCyS6dBi4EhEAMBESCMVBUH0JACCSLwP8AWr0AvIrVM7sAAAAASUVORK5CYII=;" vertex="1" parent="1">
          <mxGeometry x="186.99724137931034" y="757.0031034482759" width="321" height="93" as="geometry" />
        </mxCell>
        <mxCell id="G3RhWABNZF6Ew54WlCH--29" value="2" style="ellipse;whiteSpace=wrap;html=1;aspect=fixed;" vertex="1" parent="1">
          <mxGeometry x="210" y="-57" width="40" height="40" as="geometry" />
        </mxCell>
        <mxCell id="G3RhWABNZF6Ew54WlCH--30" value="3" style="ellipse;whiteSpace=wrap;html=1;aspect=fixed;" vertex="1" parent="1">
          <mxGeometry x="320" y="-127" width="40" height="40" as="geometry" />
        </mxCell>
        <mxCell id="G3RhWABNZF6Ew54WlCH--31" value="4" style="ellipse;whiteSpace=wrap;html=1;aspect=fixed;" vertex="1" parent="1">
          <mxGeometry x="320" y="13" width="40" height="40" as="geometry" />
        </mxCell>
        <mxCell id="G3RhWABNZF6Ew54WlCH--32" value="5" style="ellipse;whiteSpace=wrap;html=1;aspect=fixed;" vertex="1" parent="1">
          <mxGeometry x="430" y="-57" width="40" height="40" as="geometry" />
        </mxCell>
        <mxCell id="G3RhWABNZF6Ew54WlCH--33" value="" style="endArrow=classic;html=1;rounded=0;entryX=0;entryY=0.5;entryDx=0;entryDy=0;exitX=1;exitY=0;exitDx=0;exitDy=0;" edge="1" parent="1" source="G3RhWABNZF6Ew54WlCH--29" target="G3RhWABNZF6Ew54WlCH--30">
          <mxGeometry width="50" height="50" relative="1" as="geometry">
            <mxPoint x="250" y="-47" as="sourcePoint" />
            <mxPoint x="300" y="-97" as="targetPoint" />
          </mxGeometry>
        </mxCell>
        <mxCell id="G3RhWABNZF6Ew54WlCH--34" value="" style="endArrow=classic;html=1;rounded=0;entryX=0;entryY=0.5;entryDx=0;entryDy=0;exitX=1;exitY=1;exitDx=0;exitDy=0;" edge="1" parent="1" source="G3RhWABNZF6Ew54WlCH--29" target="G3RhWABNZF6Ew54WlCH--31">
          <mxGeometry width="50" height="50" relative="1" as="geometry">
            <mxPoint x="260" y="-37" as="sourcePoint" />
            <mxPoint x="331" y="-90" as="targetPoint" />
          </mxGeometry>
        </mxCell>
        <mxCell id="G3RhWABNZF6Ew54WlCH--35" value="" style="endArrow=classic;html=1;rounded=0;entryX=0;entryY=0;entryDx=0;entryDy=0;exitX=1;exitY=0.5;exitDx=0;exitDy=0;" edge="1" parent="1" source="G3RhWABNZF6Ew54WlCH--30" target="G3RhWABNZF6Ew54WlCH--32">
          <mxGeometry width="50" height="50" relative="1" as="geometry">
            <mxPoint x="254" y="-41" as="sourcePoint" />
            <mxPoint x="330" y="-97" as="targetPoint" />
          </mxGeometry>
        </mxCell>
        <mxCell id="G3RhWABNZF6Ew54WlCH--36" value="" style="endArrow=classic;html=1;rounded=0;entryX=0;entryY=1;entryDx=0;entryDy=0;exitX=1;exitY=0.5;exitDx=0;exitDy=0;" edge="1" parent="1" source="G3RhWABNZF6Ew54WlCH--31" target="G3RhWABNZF6Ew54WlCH--32">
          <mxGeometry width="50" height="50" relative="1" as="geometry">
            <mxPoint x="264" y="-31" as="sourcePoint" />
            <mxPoint x="340" y="-87" as="targetPoint" />
          </mxGeometry>
        </mxCell>
        <mxCell id="G3RhWABNZF6Ew54WlCH--37" value="1" style="ellipse;whiteSpace=wrap;html=1;aspect=fixed;" vertex="1" parent="1">
          <mxGeometry x="90" y="-57" width="40" height="40" as="geometry" />
        </mxCell>
        <mxCell id="G3RhWABNZF6Ew54WlCH--38" value="" style="endArrow=classic;html=1;rounded=0;entryX=0;entryY=0.5;entryDx=0;entryDy=0;exitX=1;exitY=0.5;exitDx=0;exitDy=0;" edge="1" parent="1" source="G3RhWABNZF6Ew54WlCH--37" target="G3RhWABNZF6Ew54WlCH--29">
          <mxGeometry width="50" height="50" relative="1" as="geometry">
            <mxPoint x="130" y="-41" as="sourcePoint" />
            <mxPoint x="206" y="-97" as="targetPoint" />
          </mxGeometry>
        </mxCell>
        <mxCell id="G3RhWABNZF6Ew54WlCH--39" value="&lt;font color=&quot;#ff0000&quot;&gt;S&lt;/font&gt;" style="text;strokeColor=none;align=center;fillColor=none;html=1;verticalAlign=middle;whiteSpace=wrap;rounded=0;" vertex="1" parent="1">
          <mxGeometry x="44" y="-52" width="60" height="30" as="geometry" />
        </mxCell>
        <mxCell id="G3RhWABNZF6Ew54WlCH--40" value="&lt;font color=&quot;#ff0000&quot;&gt;T&lt;/font&gt;" style="text;strokeColor=none;align=center;fillColor=none;html=1;verticalAlign=middle;whiteSpace=wrap;rounded=0;" vertex="1" parent="1">
          <mxGeometry x="572" y="-52" width="60" height="30" as="geometry" />
        </mxCell>
        <mxCell id="G3RhWABNZF6Ew54WlCH--41" value="6" style="ellipse;whiteSpace=wrap;html=1;aspect=fixed;" vertex="1" parent="1">
          <mxGeometry x="544" y="-57" width="40" height="40" as="geometry" />
        </mxCell>
        <mxCell id="G3RhWABNZF6Ew54WlCH--42" value="" style="endArrow=classic;html=1;rounded=0;entryX=0;entryY=0.5;entryDx=0;entryDy=0;exitX=1;exitY=0.5;exitDx=0;exitDy=0;" edge="1" parent="1" source="G3RhWABNZF6Ew54WlCH--32" target="G3RhWABNZF6Ew54WlCH--41">
          <mxGeometry width="50" height="50" relative="1" as="geometry">
            <mxPoint x="472" y="-37" as="sourcePoint" />
            <mxPoint x="546" y="-37.34" as="targetPoint" />
          </mxGeometry>
        </mxCell>
        <mxCell id="G3RhWABNZF6Ew54WlCH--43" value="" style="shape=image;verticalLabelPosition=bottom;labelBackgroundColor=default;verticalAlign=top;aspect=fixed;imageAspect=0;image=data:image/png,iVBORw0KGgoAAAANSUhEUgAAAl4AAABqCAYAAABtVV8UAAAgAElEQVR4Xu2dBfQtVRXGB0UJpUOlRZAUkJJQKQEllC4FTKSEJYgoKsKiQ0EURGmku8FAUERRSpCSEhMQkFBKSn9nrf1fm/Pm3pm598y58b6z1lvw3r134pt99v52zhSv/X8VWkJACAgBISAEhIAQEAKtIzCFiFfrGOsEQkAICAEhIASEgBAICIh4SRCEgBAQAkJACAgBIZAJARGvTEDrNEJACAgBISAEhIAQEPGSDAgBISAEhIAQEAJCIBMCIl6ZgNZphIAQEAJCQAgIASEg4iUZEAJCQAgIASEgBIRAJgREvDIBrdMIASEgBISAEBACQkDESzIgBISAEBACQkAICIFMCIh4ZQJapxECQkAICAEhIASEgIiXZEAICAEhIASEgBAQApkQEPHKBLROIwSEgBAQAkJACAgBES/JgBAQAkJACAgBISAEMiEg4pUJaJ1GCAgBISAEhIAQEAIiXpIBISAEhIAQEAJCQAhkQkDEKxPQOo0QEAJCQAgIASEgBES8JANCQAgIASEgBISAEMiEgIhXJqB1GiEgBISAEBACQkAIiHhJBoSAEBACQkAICAEhkAkBEa9MQOs0QkAICAEhIASEgBAQ8ZIMCAEhIASEgBAQAkIgEwIiXpmA1mmEgBAQAkJACAgBISDiJRkQAkJACAgBISAEhEAmBES8MgE9OZzmlVdeKaaYYoriDW94w+Rwu63d42uvvRZw1MqLwH//+9/izW9+c96TTsZnk77o/eGjI1599dWga6UresdxUL8U8RoU8mN03j/+8Y/Fd7/73eK2224rpp9++mLXXXct1lprrTG6w/S3gtHZdtttiw984APFkksuWSy11FLFL37xi+Khhx4q/vznPxcHHHCAFGp62Dse8eyzzy622GKLAvL1pje9KeOZJ79T/fOf/yyOPPLI4pe//GUgDuutt17xqU99qphtttkmPzB6uOMbbrih+NGPflTcfvvtxRJLLBF0yOabby590QOWg/qJiNegkB+T8/7gBz8o9txzz2LHHXcsPvaxjxW33npr8dWvfrX4zW9+Uyy88MJjcpfpbwMDP9VUU01y4BlmmKH4yU9+Uiy//PLpT6ojliLw6KOPBll96qmnihdffFFRrxbl5He/+12x6aabFl/5yleKjTbaqLj66quD7phxxhmLm266qZh11llbPPvoH/r73/9+wZ+99tor3MwxxxxTXHfddcXHP/7x4tRTT1W2YUQesYjXiDyoYbzMq666qvjIRz5SHHTQQUGREsX56Ec/WlxxxRXFwQcfHAiZVjkCRrzmmWee4i9/+Uvxnve8J3iue++9d/G2t71NsGVCgHQNDsNll10Wziji1R7whvWvfvWr4thjjw1RGlJmO++8cyAQkAciOUqdlT+De+65p1hxxRWDfuW/LPTIggsuGHSIdG57spv6yGNPvCwPngI4lARLiqEoXnrppWKBBRYIeNx3330TUQK8sTPOOKP49re/XSy33HIpYB/LYxjx+s9//hNSW6RcppxyyrG812G+qbPOOitECq688koRr5Yf1Msvv1ysttpqBcQLknXaaaeFM37ta18rDjzwwOB4XHPNNcUb3/jGlq9kNA9PdmH77bcP0cFHHnlkImIOid1hhx1C2vHmm2+WHhmBxzvWxOt73/te8de//jXUy/Rr1IjmWHj3kEMOGYFH2+4lYrC23HLLYquttgoKFILLQmmiYPvFu92rH/zRIa4Ucj///PPF1FNPPfgLmgyvgFqjZZddtqBmZs455xTxyiADN954Y3HhhRcWu+++ezHLLLOEiNfWW29dnH766aFEAQKmVY6A6VzqaB9//PGJWkTLPPArRWxHQ3qGhnhhuBEaGDu1FtbZNdNMMwXlWFYP0w3io48+OhCl3/72t8lqje66665ipZVWCum1M888czSecEtXSV0G0S1SjBSHkyrgmeG17r///qo1qMDdiNff/va34vLLLy8efPDBUGC/+uqrF7PPPntLT02HNQTQN+uvv34w+htvvPFExFaGK6+MPPzww8Wiiy4aHLd7771XafYK+HESqIOzbANft0jYvPPOG7IPag7JK8O9nG0oiNedd94ZolK//vWvQ0fX3HPPHf7wdxYChTEnPF0nzQfpom6ASAy/Sbk4Jsp6jz32KA499NCUhx6ZY6EkV1lllZAyWHzxxUNX0r777lv86U9/KjbbbLOCAvFrr712JMkX9/bCCy+EJoFnnnkmkMp3vOMdteSuyQO0VCNE9cMf/nCx9NJLF8gtEdrjjz8+OBujuogO4/DgpNRZhjnkk1oVMKfDrc3RDqQWiYhfeumloTbRzjXqxIsUFI5r3cYW5BBjTTctupV9Pc0007S+d3HacDqIdKHr6XJcZpll6ojLUH0HXUGEn45k8COViizlSpeyd1ZdddVQYA+mpCJHaT333HPBVrCod4VQTg4ZgIESLzb917/+9eK4444LHs/nP//5MIoARo8QExU4+eSTQw3A008/Hdq92ajd5kRB4lD466yzTuV3exXQL3/5y8Vhhx0WhP39739/r4cZ2d/5Wg2UJgbTUotsfqJhVnA/Sjf5j3/8o/jSl74UileRN1vIJfdD9DXVAsN3vvOdxfnnnz/RwYjRf/e73x3OQ0pmlDxX9i8EhqgFTRVE8VCqGPFui47C3XbbLdQF+kWzAfusrrPV5LmQYvzQhz5U/PSnPw0RFos+coxRJF5gjzz97Gc/C+m6t771rYEIVKX70aVkBSC7flFCgM5dbLHFmsBa+7tExoncQHohiTQ2fOELXwjO7CgtrhsHn2CBLeqvyIhgHyx93eY9/fjHPw6Om5V81AlMtHk9dY/NnkPGfvjDH75O10K+sPMEWkZJ/9W9b/vewIjXY489VqyxxhrFH/7wh0CS8PKJLJQtlAidRxjD7bbbLoRWyxaKn/QB3iwEjBB2G+vvf/97ODabDEPTNA3axjXlPCZKnpQYxJOiTtKMtqzeYNQKPYnQrL322iFdCnH45Cc/GQgQTgHOAIQMZZpyIa/eM/Yddm14rykbTcABrIh6Mr+NSB37jv1sq4p4kWZaYYUVQtQUwkCqFadqn332mcAa3IkspzIo1kVHpBEFzxpF4sWzZP+BP5EjnAUjUCuvvHKIInQjXkT7IDt0FhLBBxfmapkhRLexryFhbS+ePR15sS5Jdd42BhITnYY44JR94hOfCJEaIof8P3uAqD+6EPlua+G0LLTQQsW6664bsjup9khb12vHpT4N2w/pRtfON998xRNPPFFQw4Ycs3C8fv7zn4/teJGBEC8ULkYOAYWpn3LKKV2VhBlDM3woG5RLvPCySXuhUPGg2xJErofrRlAYHIrXMzktCAPhbZ5DXBBrHhh4jMowyuuvvz7IDc8VLxyjbNdPyouUI54Yg2JThcExnES13ve+902IDudHmVu0kP+mWjyLDTbYIESQU9WQIQcf/OAHQ0kAkU8IFA6PEYBuxAvyzvWwZ+M9xHFJN3Is1iWXXBIcqhQL+bQyAdJqRrwwlCycO1JFqZ5zimsuOwYpLowX2GOkcAQZAsuqIl7sW2T8O9/5TrHLLru87vAQNtJlLMgX300Z+SojQRB2nG/W3XffXTtNWgdb7ACOAcQulT1ALsl0gMuJJ54YotS2qAM2vHguzC1rQ5YgKjx/9pzN70pNMDke+h0nGnuXYnFMCDakFNmaa665Jg7Lvoe4YldZYAz5GsfIV3biRQ0CU80hXQgNA/TqGAKMo6X1ylKO3gjkSAHecccdQeHxh8F/bdajpBD41McwL5Xiek8QfIfNKBAvDBhjL3iecd2ePWPDriqCUxdjlA/zzkhV+JQs/77TTjuFWg3StXjVqRZjK6abbrrgUZIKSbXADxJJ5A7DRiSUvcrqhhefveUtb5m4jJhcWTqfL9QpMah7P0RxyhpjMAKm7HkOVRGjuudr83tgyAJ79J/h2Y148axI31qHHOTLT4z3n3NsIl7M1kpRs/Svf/0rED268pBtI0KkfO1NF6nlEzmCnKZ8nhYtBJ/YIaNLedppp5147G3YIp415Biyiv5l2QxF9lGKZ2XHxDlhZliqaD/lHKRgLaUYTwggmwRxtVIPorDmCLe5l3IfOyvxwsslZWjhxE6RqzIQzHDwGd4pBM57EnghEDk8b0K+baf/qAXBYEMg29hcuQWh6fmMYMUEwf4dkoyyS6UEml5f3e/T1EGdIYuUja/LwAjhnaG4Mf5Eo1IsU5zIjR96iMFH0bVRKNsW8fJ4kLLDINQhXs8++2yoRbKFIUaWWHGEGwOTyqBYLZq/bhwEuxauCyeqqj4qhRykPIYnst2IF3qLSIk9ozJihUNgEUZ0LRmKqlq9Ovdi3Xd8Fz1B1oPlo+S88SJleg5nimOmJF5eZ0AiSfmZLYodCiLoRNNTLeSX1DD6lUJ6yCv7xUp3aApKJbvYazIbKYmXly0wiYmVH8LN5xDncRzflJV44Tlts802QQabpgPxrP3m//e///06xW2bIaV33G2zWMgUZUIhYCqjnGqDtn0cNuW73vWuUAdFxM82OxEcCnYJ8eeoD+nnPpEpaiRIjWGsGN4Yh7VRdBCK1ESeiCEpEHNCuA+UJ2kLZAvnIeW764aNeHG/kC2iT3i/1KhY00ysfNvcX2Dtny/EBBlIlZbqRz6b/LYu8YJkQrwswkf0E3LgHSRzYu38yI6PTja5Lv9dCuox4uy1iy++OMzxYmFYidy0URfaBvEizUd5CY4aOs4cBu7FBwj4e+zM9Yqd/Y5oJZF4I3PIL9EhiDQk0Lor+z0Pv0fH4wjSrJYq4mVpbru+MmLqo90pna4UmKQ6RjbiRYiRECIFdSxLNda9kdhDpjbE6gK8oiYMTLqm2+Lhw7yJjlFcau8HQ+GgEBBkakx4p1i3/LKNrRhV4WDTknqhK4fCZsvjgydeIpuCxSYvC/daQTqfk0KgJZ3mB4o96Zga9uWVAHIAWcTwUleA4bVREp26aFFMFH4jLygok0eM27nnnhteYkvEgLQi0Vi/UN5Eh8COWicKTiHxKE5SL6mn/g8j8QIPsMLoe8MPiaDRhto6jAl1M3GHGBFvRhDYAE7DFzJ9wgknBDJNjRIvIp9jjjlKRZFzf/Ob3wy6CH3CIpJA+QB1Z8MerfU3VZd48Rv2NsaN1DONDPF7QeMUe0y80JPUFSHbNKEYvuh4hqOCPSOANtlkk0nKSNAxHJ8oM0XVDzzwQCAuPGc6fFOPUWkj1WikBD0ZO2Q+DdkpCIDtQffgcBC1Mv0CLkR2zf6gk7wMWnq4k16Nyz761b9tRLwsYMGeXmSRRcKro2InxxMv7AmlF4aR2SxkDKJu46Jim0XEdpgnDmQjXigyK+RESTIotUldFLlfX4jniRvKlkgBnVVVoV08bNJHeF6Eu7kW/osSpzgVpcvDpeCT/ycKYp5ZLMjmGaYMx/e7Wer+nntk03PvKAAUAd4br/r5zGc+M9FtSpoNrFEiZbUxRGaY4cVGIF1DRBOFMQoRA58yoHvuve99bzACGCQ8VRaG4ogjjpjEgFgBOAoBRcn9I+PUOIErZBYZAz/k0qfS7BlBtiAJ9p5A5O2LX/xiePda6mWOS+oaGn+dTVKNne6PCCPTy7/xjW+Er5Q5UpZWwVhjrJA1iNOTTz45YcRx8tjDfMZ/7d12/rycizRXLKvsDVr0R0GG7X6aEC8jvNxfmWOJ00SRMwv9eMstt0x8D9JGlAx8kW10HxFv9AjPzGa3IWfolfPOO28SJ4LvEuHEUYMc49R9+tOfThrhNVzaIl5l8ktKFjlj77OXedn929/+9td91bohwZUoFd8jEsi+x/7gvKFLrKaZQMDMM88cjkFzD6N7Oi0yEL7Qv18dYk1UpH5TRby4JvYXTg/2P95jRvYsFe73vzW1IXcQe0oy6CrFefrsZz87YbP4d4gddsgK9fvFIvXvsxAvQGY4HkqS1W0kRKcbtMGl9rn3wnw0DCPnCZo/HoWPDBZkM0IuLM2EgkABQCxs8CApM7wyHh6KqMz79efl3pp2/7CRIC6pVpNaAogWkSnII0WvRHdYYEEqwMiGpSbYCN06ONmkbKJuM9ZS3WeK47CJ8RBtCC5znegyxOOk05D7Yb4UUaiy1mYUKCkSniHRLSIryBALEoeMkX5FRug4Qy47RXk5F6vNCMsgIl51X4fEs4B8EuEi6mhGGwIWD0C24m/ILs+K6DYjEJBb/o1IDMYLLMEbuea5oIg7jatJIU+DPkZMvIic9iJPll6y4dWUhxgJszlzGDtSeFbPB/nCEBKZsPosDCZjWDql8HnmyD36ok2d0Uaq0T9rujCJ2lE2wOgZSBfkE8JkmRT7vmV9sGVgZ+lbZBcMcRCIHlqN4+GHH97KGJu6stpGxKvq3L4rlIwUXaFGXnGucIT5DgSUjmoW+hkiS4cpEUhvs+pkwKquqY3PsxCvOHRdFZWKb9SiMyhYFiDjZVmYFyVh4yUwdL6rxB8LY4mh5S3vKCVmr2AQEXy8Dq+YUf4QE1YnUuU7WDAc9v06Dwqlg1GxFvA6v+n2Hbx/PMkyzz7+nRkv/h0lQMrQ8CtLmzJrBdzAaVzmlsXdW2ARyyWGhtQHzx9c+BwjYQYIgsUsJNK1lt4mimbv9OSYPGfSkBDXsnqafp973d8PgnjV7QJl//LuPhQq5ItFCoxUfzyLz7qirCiX6DXpCla8B3lORA/Z423WidV9Bm1+r2nEq9O12EgePkdewdSIkRk+ngG6l7ct2MwqHDifDrbnxHEG2ZnWNvE66qijinPOOWeiWQESQGCBP3FGB91ABAbbhf4xO4U9Y/gtw3xtWRE6hIxsT4oau6byl5t4xTqZgIcvf6GpADuHvsVem80qqxe3dCXPA4c6dY1uUyzj72chXhgs6lxs1VXI9n0YLArU5gPhcZmy5TteWXQ6NuQNosN/8apR8lYXUsaKffdFpzlCTVKcZQ8KwSY9U7Wsc8V/rywNUndeDIQRksl94836lFvZ4FmUF94XK1WhbdU9t/25J0ScC1IJIY+7t3y9gXWvmlcGVkRIrT0fJUmHk9/kPnROTQIe3CCUwDATL/CHJLFQvt/61rdC2opI1X777fe6OXk2bR0HgD1gkfQyUsv+xFuu+9aLtmWuzeOnIF5M9F9zzTVDbSLRewiTpbm4dvQuKXj0OTV2RrTKOs+8sz1I0ts28UKPsMexK2QOPve5z4WILQYfQmYZFNMDkAUi5d5mlTnt3mY2depTyVlu4uVtbmyTsVnsZaKqkDFvsyCmcR2n19vdgjGpsGp6nCzEq1v7bZ0Ljjsh4jEU/oF1Sm+wMVDaRLkIh1thPOcvi2j51GanllbfIUSKA0Y+CgvjRhSLUQYsrtu6y+KIluXVLVfeLZXbz71TbG7pjX6OQ5dlnaLKuHOuU4OERfu4JjMg1BiRgqST1ZwCcIkjBPwmTrM3dTrqYEGtGLU33Rb3u+GGGwYiY2nlTt9nf/TSUZmixsuuiTo5e0OFN9zc5/333x9k1td9lhn3FGSkDv5EMzG6/S6i1XF6qu4x+71XdAJOGHoAcnDBBRdMUteIw8prrrhOXwdWRgy8Tm7rvbZ1cOd+cJCQ+241ezZbry7enb5HnRelCugDHDFSkTi5HJ/UOcSMuZWeGFQRh5QDhP11kw7tlublmim3IUBR1aFeV+92ws0335UFQtBf4IfOtWcFwS2rF+e7ZtM4H1F06naHaWUhXl7I2NR0jdUtrI8NP/nz+D1k3jvAy62KKFj0i01JHhmy4aNFcWqzU2rUG5pRnTfiRyqUdeH4dBuC21bEi/oGCHq/i43Ixq2aZRPXeGEc8ERj5eyJVxmx8jUJZTVwvg6wrbA3tSW8/aFqWTEv4fpui8hGL05ESuLlywe41rJIrHeOymbpeePf1pgZiDVpZgxsv4v0lI3baXqsfomXOccYWGSpalp4VUTBf94G8UJvkeavwh0CRMQz7iouw7eJXer0fGLbUTYnzb/rtqwGzr/6jvO0EfFCjzNHraqBhKAEBBI72W3V1btlxyBLwABd6uMgV348R9n3LWNjrxCMOyN9JorfT7YRL2+8ql5nEQMdz5QpG7paJ9Xoj2s1OqQuy/LDGBDqF6wZoFONF8ehKJtrGnQRHxu+ahOVCbHH1xfS2nd9VCGurWtqHKq+b+mmqu91+xwPrspo2O/rGIdYduOi5arIaQ7jz/1UYYfyoTsXL9cGV3bCscpx6fS7psTLJq+X1WTG42Pi2jmuAYJI3SfeLGmyONXun2+b6S4MqTVI9CO7veLOOfshXibDNlLFt+7H8xM5l3/OZZHieFB2WwOmuQ4idd0WERKipIxoqWo2qIs/zxpccO7KfuPljmuLnVVfG1z2DtiYOLTl7FbpDJ4juoIIeJVT3ETv+udlsoINxY77bAWf8XzjII1/iw3OV9yAE9usphMU+tnDdX+bJeLlI1LUuVDMXaceKWb+nZSnJ1512K2vPygjTHXJBhsIpo7QNG0Y4AFx3dRRpFgQL4ZyEvJtsvzcmbJhf55YtOG5NrnW1N+tkw7pRrx8MWhZ40Hs/Q6SnA9bjRepKt+QEM/eiyeAx7LnU7i+8cFkJCaBvXQdp5a3No/XK/GyPUCROBEkv8zAxelxT4o7pXhtDhvdjtRO1tH3beCTusbLN0V1epGz1xncUzzs2+udMrvhS2uQbZylqgh+G9i1XeNl6W3sIBkPG0XCvZjuZO4nZS4+qFBV3+Vt2rDarCzEyw9EBFTyuXVau73R75Yq8ESpjnfgH0yZQvbn7WYsvbJrGg62luEUdU0mqMyEsmLOOhvRv5QU4sBoC+9deGJBeoqwfqdhlHXON2zf8c+v05sUukXF4sgpZMLXTPjPc73KqhPGw0S8/Ou2uN6ypgOMlU+Jxgbe7/myaJj/vK004zDJcy/Ey14OHzcw2H2hB+nQ9a/E4bOqwm9f/9VmpLEO/qmJV/zKm7L7881IXGNsk/znZYEC/3lTu1IHk7rfaZt4kYbF/kGs4m58yzoxT8/PEPPR1E71XTTyUf81zDYrC/Gyd97ZOIgy7yoWBt6tRTEwjBcmjBfQKZXmQ7dV73/09V2cM64Jw5NmhABt0mX1ZP46vefXy6shuBYEKcXiWHXr5ux8PqSNZ8Um9xj7+qVBK9AUGMXH8MQS40+bd5ym9MQrJuk+TVtW4+eV9CAVqCn/Nl6S7TGtm2pkj/mXaZe9aN5HsTlHjL037mVDYe25DbPyTSnTTYkXBo89v/fee4eUbdw5zTBa/p06mvg9h35PxM1Mvou3l0HZKTHhWG0Tr9gxj0ciMGLooosumohYxfVdMbZeJ1PzVzbZPTVGnY7XJvHCntD1SROHD8JYyQxBAAZax+Uvvr4rnm7AfXidPMw2KwvxAhC6PcgVU1dFdIWNH78GhO/xsOlmopsC0kXdAXncbqFWv9mrOkB8MTnn8/UH1nlinRzUBcSTh72QmmEddDSj143oU648E4aBWkoAAae1HK+YiAHPoKpGotfrGOTvPAbxgFOINa+1oEC3TAn6yGj8UnB+w0RuCka7DZ7Nde9tRbzYM/aHfehfwEzUysZzxMN1zXgztuDkk0+e5FUx3rijYJnd42uP6Ho0Ry5OJ1CHx2uYbDBrnS7XXM8h5Xkw8mao2K/2om/qaJkLZU4EuHmHyk9Yr7qeOFoYk+ZY39obSijIRsfHc9iqzpf689TEyxMjBiwz+sSv+NV4cX1bnEL3DgWOC80VRIAgrVdfffUknaWp8el2vLaIl9ebVfcTO6w+DRvbLLClJs3ewoJz1kvdc9U1pfg8G/HiYqntYigiRon3dMFIN9544wAOSoSIA6FtgIPMMD0+LpzrdNOmqMuKFf1vPCO2ict4LRQe083DoFCEnlcFVbV2c/3MGxrkYMx+hMCnXMECD5j7oTWeejGUBu3PEOFhFeB+7t9+a4qAMQvIAG80YLwFMkULPeQAz9TLg++2BTsiA8gD767ju8gR85CGgXRxn20RL+4Pz5UFJvaqD/5OJIuIE7Jj72Uz8gS+q666apgLBamli3L++ecP37U5XhwjfqEy/+bruzg+xyRdRoSc6AKOE/okrhtJISvDcgzKBOj+IioN7pBc5M2WJ5s4r7zUmYVxByd7N2XV/cT61Ef5kXtmrSEDvK4GAk1aCP150kknJX/vYtW1ln2emnhxDnttEvLNAF9SWwQG0Js4CfYKsLLXhPlILhFoxnOgYwgy0NFH9Ja0G+ncTq+q6wWHXn7TBvGKm+WqrisetRGPpiKiyIxJJtnDHbBZg44UVt0Tn2clXpyQegEUK8bcplQjwEQbWGxavCxe6dMt2hTfnDHhTq+osO97ts1DwpO2dxBybjZO2dTh+HwIJd4Jvx1k0XSdh1z2HT/rBJLLfVAUaoYTMoliR7DHmXQZNkT0ME4QKL+QRQxLTMJ9/Ra1CuDExieii0ECPzqq6rSx9/oMm/yuLeJF2QBvX/Cpqjhtxd8hr/5lt0YCIKgY6xh3jBJRLZyvONIa13dxLEaBoE+QZbDn/W3jVI8YP2v2L0afukuIF8uiX/b3oOD/jz0ybMQLvUUjAwawanEccPUkzhMHyAF/t2HW6HFIHmStbodg1TX0+3kbxItrIlJlk+jjawQvXkdW9iYTH8klGs4wUNO5OL7ILnI/iGL6MhuHcwQRTPWuRu4VO1Nn4VQRUTUs/OxF9Cr6hMCMDVYHP/bEKNis7MTLACcsSFSJWgIWntNSSy0VQqtNa5X4vU8hlg2k4ztxFxqpNcLxeNAoGR5w3XP7qdh1mwXqCFuu78Tzu/C68IZRzChrcBjH1GI3fEnXMMsHzxV5pMaAdHgZ8fT1b0a8wRQZIwIDfm2+g66pnLRFvNg31tJvhMv/1xOCTniAOy3fvDSZ49GZS8oyfouA3bOf32U1nYY9MjssRr/pM2r6fZ9qNJztGJ78xqnGJnWl4OnlPy4M5xmBPYvv1qlzePcAAAbOSURBVNWfTe+11++3Rby4HogAadvf//73wY6hM4hg8aLqMhx8SQzkDF3DQu+CMfan7iicXvFo8rs2Il7s7yajVzwBRc54rRIOFgESiBfY8cd07qjYrIERryYCUPe75k10Su/4d7f12+lkabphfgN6N9yqRmrUxXxy/Z5P01Y1dAwDRka8RuFau+HlR3QQWcTwdSJow4D7OF2Db55oOo9xEDj4znGc/EGTGt8ENqxjDvxzsg5C6vSITA868+Hru8pmTg5Cxno951gRLyJPCInNV4k3ms8v91N7A4HDI4e8xC+H7fVB5P6dz5WP+4yj1Nj6+i7C4XG7ferzpToez3lYUp+93lM8v4tUxKh4ub3e87D8zr/4ehSIA7gRvSbC0ssrsFLjHqdp11tvvdSnSH48BhMTdfLv7Ex+kpoH9DarlykCNU+T5WtjRbxAzB6OH0yHoURh82oVGxJ46623hoJfQsJNmbxtoKpC/ixPsOFJ8GL4Q1MDhZzUxJA2Iz0zaI+w4a0M5OtgR5ocAkOTCHNmKOjudXLzQG5iRE/KHibCRWMOa/fddw/7HcMg8tXeQzX9ee655068Soqhnsg+OqOp/mzvSofzyKSEiRbuuuuuE+8fpb6LtNnkkhbv58mgc8HPuuwJrFArRgf+qNqssSNelpeGEd9www2hQJ/o1vHHH/+6rh8iFcxuopOEtv+6i3AxQ0r5PV2Yo7RxwIYi26uuuiqMObBFWy4EjBb0QU2Yrov/IL9HpBPCSsjbF4MjR4xKIf04qopgkLjWOTeRZeo6fNckv2PvUpBMwe4w1dTVuadR+Q41dRRX+65Jrp06JetIHZV7yX2dlu6k89frXOrBcN5oXvAT23Nf37CfD8JFxzO23OPHGxGwWYx8GkWbNXbEC0Ei9QM7hlDgmdHeawrbOn6s+JS6sLphaIgLQkCbur11ftgF118fIXe6xCANcQE09TKMkJDx6vxEibjQqciKvXxkzTrHRkkmRuVa2W8nnnjiBO5+H6+yyiqlHWSjcm/Dfp1E+JmNZsu6J/k73eeMX9EqRwCs6KSHNJjO4N/Qs0TCDj74YEVruwgPNpducZaXO/4+yjZrLIkXD+Xxxx8vVltttRAOT9EKy0NnThORs/POO69YbrnlpGuEgBAQAkJACAgBIdAIgbElXqBA5OuBBx5IFsolaka78DjPB2okPfqyEBACQkAICAEh0AiBsSZejZDQl4WAEBACQkAICAEh0DICIl4tA6zDCwEhIASEgBAQAkLAEBDxkiwIASEgBISAEBACQiATAiJemYDWaYSAEBACQkAICAEhIOIlGRACQkAICAEhIASEQCYERLwyAa3TCAEhIASEgBAQAkJAxEsyIASEgBAQAkJACAiBTAiIeGUCWqcRAkJACAgBISAEhICIl2RACAgBISAEhIAQEAKZEBDxygS0TiMEhIAQEAJCQAgIAREvyYAQEAJCQAgIASEgBDIhIOKVCWidRggIASEgBISAEBACIl6SASEgBISAEBACQkAIZEJAxCsT0DqNEBACQkAICAEhIAREvCQDQkAICAEhIASEgBDIhICIVyagdRohIASEgBAQAkJACIh4SQaEgBAQAkJACAgBIZAJARGvTEDrNEJACAgBISAEhIAQEPGSDAgBISAEhIAQEAJCIBMCIl6ZgNZphIAQEAJCQAgIASEg4iUZEAJCQAgIASEgBIRAJgREvDIBrdMIASEgBISAEBACQkDESzIgBISAEBACQkAICIFMCIh4ZQJapxECQkAICAEhIASEgIiXZEAICAEhIASEgBAQApkQEPHKBLROIwSEgBAQAkJACAgBES/JgBAQAkJACAgBISAEMiEg4pUJaJ1GCAgBISAEhIAQEAIiXpIBISAEhIAQEAJCQAhkQkDEKxPQOo0QEAJCQAgIASEgBES8JANCQAgIASEgBISAEMiEgIhXJqB1GiEgBISAEBACQkAIiHhJBoSAEBACQkAICAEhkAkBEa9MQOs0QkAICAEhIASEgBAQ8ZIMCAEhIASEgBAQAkIgEwIiXpmA1mmEgBAQAkJACAgBISDiJRkQAkJACAgBISAEhEAmBES8MgGt0wgBISAEhIAQEAJCQMRLMiAEhIAQEAJCQAgIgUwIiHhlAlqnEQJCQAgIASEgBISAiJdkQAgIASEgBISAEBACmRAQ8coEtE4jBISAEBACQkAICAERL8mAEBACQkAICAEhIAQyISDilQlonUYICAEhIASEgBAQAiJekgEhIASEgBAQAkJACGRCQMQrE9A6jRAQAkJACAgBISAERLwkA0JACAgBISAEhIAQyITA/wAWiC068ARNhgAAAABJRU5ErkJggg==;" vertex="1" parent="1">
          <mxGeometry x="44.49965517241384" y="63.00482758620697" width="606" height="106" as="geometry" />
        </mxCell>
        <mxCell id="G3RhWABNZF6Ew54WlCH--57" value="2" style="ellipse;whiteSpace=wrap;html=1;aspect=fixed;" vertex="1" parent="1">
          <mxGeometry x="219.5" y="-401" width="40" height="40" as="geometry" />
        </mxCell>
        <mxCell id="G3RhWABNZF6Ew54WlCH--58" value="3" style="ellipse;whiteSpace=wrap;html=1;aspect=fixed;" vertex="1" parent="1">
          <mxGeometry x="329.5" y="-471" width="40" height="40" as="geometry" />
        </mxCell>
        <mxCell id="G3RhWABNZF6Ew54WlCH--59" value="4" style="ellipse;whiteSpace=wrap;html=1;aspect=fixed;" vertex="1" parent="1">
          <mxGeometry x="329.5" y="-331" width="40" height="40" as="geometry" />
        </mxCell>
        <mxCell id="G3RhWABNZF6Ew54WlCH--60" value="5" style="ellipse;whiteSpace=wrap;html=1;aspect=fixed;" vertex="1" parent="1">
          <mxGeometry x="448" y="-471" width="40" height="40" as="geometry" />
        </mxCell>
        <mxCell id="G3RhWABNZF6Ew54WlCH--61" value="" style="endArrow=classic;html=1;rounded=0;entryX=0;entryY=0.5;entryDx=0;entryDy=0;exitX=1;exitY=0;exitDx=0;exitDy=0;" edge="1" parent="1" source="G3RhWABNZF6Ew54WlCH--57" target="G3RhWABNZF6Ew54WlCH--58">
          <mxGeometry width="50" height="50" relative="1" as="geometry">
            <mxPoint x="259.5" y="-391" as="sourcePoint" />
            <mxPoint x="309.5" y="-441" as="targetPoint" />
          </mxGeometry>
        </mxCell>
        <mxCell id="G3RhWABNZF6Ew54WlCH--62" value="" style="endArrow=classic;html=1;rounded=0;entryX=0;entryY=0.5;entryDx=0;entryDy=0;exitX=1;exitY=1;exitDx=0;exitDy=0;" edge="1" parent="1" source="G3RhWABNZF6Ew54WlCH--57" target="G3RhWABNZF6Ew54WlCH--59">
          <mxGeometry width="50" height="50" relative="1" as="geometry">
            <mxPoint x="269.5" y="-381" as="sourcePoint" />
            <mxPoint x="340.5" y="-434" as="targetPoint" />
          </mxGeometry>
        </mxCell>
        <mxCell id="G3RhWABNZF6Ew54WlCH--63" value="" style="endArrow=classic;html=1;rounded=0;entryX=0;entryY=0.5;entryDx=0;entryDy=0;exitX=1;exitY=0.5;exitDx=0;exitDy=0;" edge="1" parent="1" source="G3RhWABNZF6Ew54WlCH--58" target="G3RhWABNZF6Ew54WlCH--60">
          <mxGeometry width="50" height="50" relative="1" as="geometry">
            <mxPoint x="263.5" y="-385" as="sourcePoint" />
            <mxPoint x="339.5" y="-441" as="targetPoint" />
          </mxGeometry>
        </mxCell>
        <mxCell id="G3RhWABNZF6Ew54WlCH--64" value="" style="endArrow=classic;html=1;rounded=0;entryX=0;entryY=0.5;entryDx=0;entryDy=0;exitX=1;exitY=0.5;exitDx=0;exitDy=0;" edge="1" parent="1" source="G3RhWABNZF6Ew54WlCH--59" target="G3RhWABNZF6Ew54WlCH--69">
          <mxGeometry width="50" height="50" relative="1" as="geometry">
            <mxPoint x="273.5" y="-375" as="sourcePoint" />
            <mxPoint x="349.5" y="-431" as="targetPoint" />
          </mxGeometry>
        </mxCell>
        <mxCell id="G3RhWABNZF6Ew54WlCH--65" value="1" style="ellipse;whiteSpace=wrap;html=1;aspect=fixed;" vertex="1" parent="1">
          <mxGeometry x="99.5" y="-401" width="40" height="40" as="geometry" />
        </mxCell>
        <mxCell id="G3RhWABNZF6Ew54WlCH--66" value="" style="endArrow=classic;html=1;rounded=0;entryX=0;entryY=0.5;entryDx=0;entryDy=0;exitX=1;exitY=0.5;exitDx=0;exitDy=0;" edge="1" parent="1" source="G3RhWABNZF6Ew54WlCH--65" target="G3RhWABNZF6Ew54WlCH--57">
          <mxGeometry width="50" height="50" relative="1" as="geometry">
            <mxPoint x="139.5" y="-385" as="sourcePoint" />
            <mxPoint x="215.5" y="-441" as="targetPoint" />
          </mxGeometry>
        </mxCell>
        <mxCell id="G3RhWABNZF6Ew54WlCH--67" value="&lt;font color=&quot;#ff0000&quot;&gt;S&lt;/font&gt;" style="text;strokeColor=none;align=center;fillColor=none;html=1;verticalAlign=middle;whiteSpace=wrap;rounded=0;" vertex="1" parent="1">
          <mxGeometry x="53.5" y="-396" width="60" height="30" as="geometry" />
        </mxCell>
        <mxCell id="G3RhWABNZF6Ew54WlCH--68" value="&lt;font color=&quot;#ff0000&quot;&gt;T&lt;/font&gt;" style="text;strokeColor=none;align=center;fillColor=none;html=1;verticalAlign=middle;whiteSpace=wrap;rounded=0;" vertex="1" parent="1">
          <mxGeometry x="601" y="-396" width="60" height="30" as="geometry" />
        </mxCell>
        <mxCell id="G3RhWABNZF6Ew54WlCH--69" value="6" style="ellipse;whiteSpace=wrap;html=1;aspect=fixed;" vertex="1" parent="1">
          <mxGeometry x="448" y="-331" width="40" height="40" as="geometry" />
        </mxCell>
        <mxCell id="G3RhWABNZF6Ew54WlCH--70" value="" style="endArrow=classic;html=1;rounded=0;exitX=1;exitY=0.5;exitDx=0;exitDy=0;entryX=0;entryY=0;entryDx=0;entryDy=0;" edge="1" parent="1" source="G3RhWABNZF6Ew54WlCH--60" target="G3RhWABNZF6Ew54WlCH--71">
          <mxGeometry width="50" height="50" relative="1" as="geometry">
            <mxPoint x="481.5" y="-381" as="sourcePoint" />
            <mxPoint x="541" y="-396" as="targetPoint" />
          </mxGeometry>
        </mxCell>
        <mxCell id="G3RhWABNZF6Ew54WlCH--71" value="7" style="ellipse;whiteSpace=wrap;html=1;aspect=fixed;" vertex="1" parent="1">
          <mxGeometry x="561" y="-401" width="40" height="40" as="geometry" />
        </mxCell>
        <mxCell id="G3RhWABNZF6Ew54WlCH--72" value="" style="endArrow=classic;html=1;rounded=0;entryX=0;entryY=1;entryDx=0;entryDy=0;exitX=1;exitY=0.5;exitDx=0;exitDy=0;" edge="1" parent="1" source="G3RhWABNZF6Ew54WlCH--69" target="G3RhWABNZF6Ew54WlCH--71">
          <mxGeometry width="50" height="50" relative="1" as="geometry">
            <mxPoint x="488" y="-309" as="sourcePoint" />
            <mxPoint x="458" y="-301" as="targetPoint" />
          </mxGeometry>
        </mxCell>
        <mxCell id="G3RhWABNZF6Ew54WlCH--73" value="" style="shape=image;verticalLabelPosition=bottom;labelBackgroundColor=default;verticalAlign=top;aspect=fixed;imageAspect=0;image=data:image/png,iVBORw0KGgoAAAANSUhEUgAAAr8AAABiCAYAAABZJrs2AAAgAElEQVR4Xu2dCfR2Qx3Hr/Zd0r4JpaTFqbSTt1BpoTcJLaeFShJHe0rJksoWRYtUtHKQQklE+65FoXCUUkn7opX6zOn3Pz/zzt2eO/M8z/0/3znHwfs+d+7c78z85vtbZ7Vr/tcqNSEgBISAEBACQkAICAEhsAAIrCbyuwCzrE8UAkJACAgBISAEhIAQCAiI/GohCAEhIASEgBAQAkJACCwMAiK/CzPV+lAhIASEgBAQAkJACAgBkV+tASEgBISAEBACQkAICIGFQUDkd2GmWh8qBISAEBACQkAICAEhIPKrNSAEhIAQEAJCQAgIASGwMAiI/C7MVOtDhYAQEAJCQAgIASEgBER+tQaEgBAQAkJACAgBISAEFgYBkd+FmWp9qBAQAkJACAgBISAEhIDIr9aAEBACQkAICAEhIASEwMIgIPK7MFOtDxUCQkAICAEhIASEgBAQ+dUaEAJCQAgIASEgBISAEFgYBER+F2aq9aFCQAgIASEgBISAEBACIr9aA0JACAgBISAEhIAQEAILg4DI78JMtT5UCAgBISAEhIAQEAJCQORXa0AICAEhIASEgBAQAkJgYRAQ+V2YqdaHCgEhIASEgBAQAkJACIj8ag0IASEgBISAEBACQkAILAwCIr8LM9X6UCEgBISAEBACQkAICAGRX60BISAEhIAQEAJCQAgIgYVBQOR3YaZaHyoEhIAQEAJCQAgIASEg8qs1IASEgBAQAkJACAgBIbAwCIj8LsxUj/dDr7766jD461znOuP9iDkaufCc3mRcc8011WqrrbbKC+v+fHojW8w3/fOf/6xucIMbLObHz+CrkTWs9ete97ozePu4Xwlu4Me5l5Ih4/662Y9e5Hf2c6ARtCDwmte8pvrhD39YPelJT6ruete7JonEYx/7WAmIFhx//etfV29/+9urL33pS9UtbnGL6pnPfGa13Xbbaf0VQoCD63Wve1211lprVfe///2rDTfcsDrnnHOqn/70p9UnP/nJ6lOf+pTWbCHsU92efvrp1eMe97jq73//e3XDG95wim9evFddeeWV1fve977qlFNOCWv8kY98ZPWc5zynWm+99RYPjAm++Gtf+1p17LHHVt///veD/Nh4442rHXfcUUrEBFjWPSLymxFMdZUfgf/85z/VpptuGghbXUM4/PjHP5ZFpwH+b37zm9UWW2xRbb/99tWzn/3s6g9/+EMgvh/72McCIVDLj8C///3v6tGPfnT1xS9+8Vqdr7766tVb3/rW6gUveEH+l6rHJAK/+c1vqo022igoHldddVV1oxvdSEgVQgCsH/jAB1YYLVj/F198cbXDDjuEt33uc5+rHvSgBxV68/Lo9uMf/3i13377Bfyw+kKCTz311ECAP//5z4sAZ5pmkd9MQKqbMghAINZdd92g/eIG8u2Pf/xj9YMf/KD66le/Wj30oQ8tM4Bl0OvXv/71QHBf+MIXVgcccED4ohe/+MXVkUceGQTs/vvvvwy+cv4+wcgvhOtnP/tZdb/73a+6z33uU+21117VPe95z/kb8DIeka13PlHkt+xEG9bvete7gsyhIWeQPXjvTjrpJBG4minAO3eve90rWMwf8YhHhF9hAFqxYkVQosH2ne98Z9kJXJDeF4r8WvxMjrk1IqZYnBxo1vfxj3/8o7rHPe5RXXTRRdX1r3/98EOw5x8smJBikbd6/Lzg/NWvflXd7na3Cz/G4nvEEUdUL3nJS6ptt9227CQuaO9Gfjn4N9tss4DC9a53PYU6THk9fOYznwmWNBoeJJHfchPAGfvkJz85WCqf8IQnhPAerJdvectbqle/+tUhbM3L8nIjGWfPrNXHP/7xYfAXXHDBkpKMvMZrh9foiiuukJczw/QuDPl9xzveUV122WVBCHIADWkQite+9rWhCza1WjkECGc45JBDAlHzigbCAMslbiAlwtXjT+zYwx72sCWXmf2SBBTI2dC9UG7mx9+zkd8999yzIiZdbfoI/Otf/woueOTFi170omA9E/ktOw+Q26OPPrpauXLlUojDLrvsEmT4M57xjOqYY46RzK6Zgm984xvVQx7ykEByCVXD8EP77Gc/uyRDtH7zrN+5JL9oj1j8vv3tb4fYRMuMXmONNcJm6pusgJsAsor7F5dCjvaLX/yi2mCDDYKW9tGPfjRHl+qjBoE4Mx7XEOvgO9/5TnWb29xGuDUgYBYX3GUknXz4wx+u/vSnP1X3ve99q7333ru69a1vLfwKIWBWdyxeKN6EP+Cp2HrrrZcs8IVerW7/jwBWd4jEy1/+8qX4a5GH6S4P5DWEjrOcM1ghP834Y7BYc801l4gvv7ZkTRKVialWxZLha3juyC9Z/Vhnv/KVr4TD4i53uUv4h/+ncXjsu+++QYPsEnKAxXfXXXetPvShD4VncjaytXHxvOIVrwgJLGrlEUAxIgEOIjemcAcsUJCg5z73uUEBM2s1a5h/4nhmkOyyvpsQp0+sjm9+85sDXrgcycCG/OKGp/+zzjorCNqxNL6JbH3GzfiRB3e/+917K8R8Ly7whz/84cWsUEZ+kWO4LFm3J598clCWzzjjjJCANaZm2F9yySVLRB7LVJeD2J4l+Yn4Z+at67OTYgSJgPSeffbZoQtLPhwj+UV+4AVjLdEe9ahHhTVf57kBb4w+N7vZzUJVly7lsobKm3iesLZTreAjH/lIOMPx4I0x2Y19DIH/3ve+Fz6Ryi23v/3ti8mN1HpnDjFcKEdjUmmw6nNzQ36pv0hZoPe+972hth2B8rvttluwTLEp2fwf+MAHwmFOohOZ6iyGJpc3RJrDbcstt2z97aSQvvKVr6ze9ra3BXcaBEOtLAIWE+XjV8u+MU/v5513XrC2YoXi3xDRO9/5zrXElz0Aubc450lGwQG4ySabLJU2+8lPflLd9ra3DV0ZjjvvvHNwR46hYfE48MADq/e85z3BimQNIkXlBPZiWxgHBxkxc4ceemhQWIlJJAmnRONdkJTXv/71Sy5LQiEe8IAHBEvwhRdeuDQfJd6fs09KVyHnYiWfJD6wJ6SgrparzVv8LPsAOc8azB26xHkBzkcddVSwOvrKG2MjvyhpeC7jqiHE1EKGLDHKzzfnKWT/y1/+8pK8IdnSvGgpZZscCryZuRqJyF/4wheqSy+9NCh8eJ8wbOUm2bnGm+rnl7/8ZVCgIPC+ocxSNnIankes5SR0s19Q5G51q1uV/OSF6XsuyC/C8TGPeUzI3IeoIrDucIc7JCeBOplbbbVVIMAI3Xe/+93J33HwcKh9+tOfriAeOTe1fyHhD/e+972rW97ylkEz7xuSsTArLcOHMqe4jLF+EPLQRnQyvDJbF+Yl6NohJBnBe+Mb37jrI6v8DgIN+eLwRDFj7xjJIJli/fXXD+sWMjiEZE88wB4Pmoxg30Ny73a3u1W/+93vwv7ngKdBArCsxpZs9iix4cgXFGJ+b+SZrGpIRKkWx1V7azzZ76961auyvpo9kvtCAdaHJewxXuQv7zj44IODwYIGGcC7FpNYLGabb755+I09y2+wAtqzXQwZfUGCFNLwetDGSn6pmIByQHgdcbOsHyyQKBJ4cGhYeCGWvkHwsU7ab7rgh3xAWS7RLPwK7yulu3IT4JzJ7Pb9xNxus802wVOxzz77VM973vOqm9/85tXhhx8ejHCQUUq3mUGhBG7IPfYP34cMG5OXrgQeOfucOfnlgCcZhIOJWoAf/OAHG0kNmx8hihWCxsGe0nzJNn3iE58YLMRobbk3m00C42HcuHjYFGTPq5VBAGsvShHzCsnJbS2yUXOII/A4QHOtGywedth3QQeyzHcObVZiiH97qwuhA0as573oP4KfQxPSijXpTne60xIskBrI2GmnnRb+DCLL2vAE8BOf+ET1lKc8JVzswYFFM8JckvwiG7DaYHn068jmJHfyj2EBscx1mQDYQ6xQMl72spcFy3tK9vFnsfzjWQgbBO5Nb3pTsIB3fXbIugdzzhSsjYSa0FAKMKxgPUXxIVRjiGI5ZHxdn0Vpw1oL7pAtv4awqGLcMXIby4u//OUvgah1bbkVkJiMcs7f8Y53DMPBIJWztjgKLUl0KDq5zgTOGsaIohGHNXoOkpI3XTFv+52F+OElhBch00rcDMl5RyO0YpHaTMkvCwwhRVwQm/zMM8/spEVxcFmIAZuWyfOHHYIODZY44WmEI5hLm4P1W9/6VqcYuEVaZLm+lQMY92rpuCeEHSQLS0gOKxoCi3ETagBBsD4t1tf+jWuZW5Bws5lyNxQ7s7jE5BfL0E1ucpPQ/by7gSEBhIgQ3gA2sYLJ4Yf8sBbveUghCbTgjrcAF7LhW5L8Wr1T5p7KJNaM/PpSUEPn2eaROc2lONEnuBGbjHGCFhNcDBEWzoARAreseWRQqkhuQpHs++wQPCDbGDxi175dlMPZwd8RN94lXnnIWIY8ayF1WH3f+MY3Vg9+8IOv1R1yypQRLkDg/DQPDusackzOC14SWpxbAAbkIfDnWDCtDOKQMdOn5eOwVsxFTxiKYZ1bfhO6xH7m+3PNp2EPFikDm+cgJTzL4PisZz0rrFMs5ZB6U0TBNZenzog8ayCn8jBkDU3r2ZmR39hiU2fBTQHhtVrctpdffvm1tHg7DAmyJ86xdCiCPyCmQbantTjm6T1sUjRTDjUEtrkzS4wRwYfilIv8staxQFFyrI7UcjhQyBxLTs6QDuJKSbDjwMdaZNYjyx4eQ91NO8htrmNZYfiaNbctAdUfbKXIr1+vMfm1sk+5SYApNDnJLwQWKzIxyjSw8+UdPZasMQilHczxs3gerESk9WX7AeKMWzfHoQ5JwADiG/vrpje9afijv/71r+E9Od5VQv7QZ7ymIcB4MDy58wSMZ/785z+HBDcaoRDMU9P5BzHGoowlltyYHM3kCn3hDX36058eujWvHf+NRT7nteqQXxSwXMpMrLSxXsxQYBj97W9/W1pPbfJmElxRIJAhGPZMZhPHzc2E8I1cJF/kd5LZGfgM2gwB9rS+oQneZRtvev7fXMy5XTl1n8wCIi4LyySVKBAoankR8Nccj438sl7JbIew17mWWLMIcCzOxJDnaoYb1jdfXB4lAgFbGssc34FC6WMRYwXT7z/eB9mM60L7cUyD/PI+LJAcXigd5o61hDfi1n0CYg6cSpBfxkUIGUQKNzruVyuPZ5ZDs/ym5C3rDKs3z+Ka9s/68LWSsppxgrsRBnDCIJIrpCnH3MV9sG+pJGThPCgWsWXTEzCbJ0I7aBAyLJIodynvFQYi+uR3XiEZ+i2mbOOlYbzczknjyl7mGGUb72jORLHc5PfnP/95qE5hrY385lTcTG6QD2DVqVi/GEWQIxj7IPm58l1Efoeu+J7PY6klAc2STnCpebdlW3csRtNw403vhQaaLVaWpoYVCQFBgtFOO+20JJwRDsQOMsYNN9ywetrTntZoKUDTxh2L8GEz5nCXt+Ewpr/HSoFFirhLyn1ZQiNrgSoeJDLhnnv+85+f1Gp9wgrKBUpGqZbb8ouAYc0SY5haF2bBaSrHB3asVQ4Py47HwvWjH/0orFOEIyV4sLTE7yARE9c1blCu1j333HMD6WUP2g1MpbDM0a+FjfCtWM8hYp64xOSXAz3+zaTkF4whbygPuJYJVeDdrEcUFWQHDWzjai8+Zg9FH9lEXxxixx13XLXFFlvkgGepj1LklxdgdYLA+0PXbl80q3CdHJ/0WZJ9qP6DbEBptHht+gM/3gcZgCTWJTQzT8TaI89trpgnqlSQrZ+LRGSdyP93RuwysdKcQQcddNAqV7jH56DHn7lhX2ApjBv4cfEHsqTurGKvoawgr0n6shhyYndPPPHEkHSMvCaWPk5OR+mjUg1W/bXXXruivB0hQIyHyxri8I2h2GFIw/CUy/KLwuGTYFNhYT5sjPGjiPgYcuMVkGhksil9bbzCLiWqw4RxcRbkUtxKkl/mhTXJOuHMYsx2ZlnSI/sQpShXrHaftTSTsAdiVl760peGcUJ6ucyijxnfYgDtQ/2m9y6LNvcf7hcmhQOVeEzGwr8pg4SmirBlceAW4r+bsi0t1CJHln6fCRzDb8EPnElUIpwALBFUCCwEpCUsInTYDFgMUpcv8HsI4vvf//5Q27VUy01+m8Zp2fAISdZrSgigxHGA8xusOaxTDsY99tgjuBBRuPhz/gFLDrS4HM5vf/vbsOcgcRxokDWqpcxC6Ewyb+xDDu1UCJOVteL7aW01vbtafhHUJLNCctnXyBlKc6FAcKBBAHAXs/d5d6r6DISXNW7ECwK9++67Z4mvjHEsSX7jd4EN1nVqqNP6JPvyLF4QSwBNPUv8O6W6WKtY4sCa0pZYFLGIYfxAjqA4Qr4ZCzImNU4IV9xYT+SbzPv6Z81DGlIhGj7sAdmAkpsiu/G3s/4pF0jFFypCxI1bxlDMWNvIa94PmUNpxsCDjGFekOv8HaEOMaHlzyDPyBuwRq6z7nMlYvoxQ6T4nlwxvzH5jYkt744VDziJJfQN4RWcB4S91bV11lkn6yUh5r3hfTljftnTyD3WCfLRqnihzLGPIfF2ZlEphj/LRei7ni9TJ7+mddpB1VSurO4jONwIBrdGDLCP5zKrMEKRRJlU46AgFhJBgLXREjPQhrEmsIDtNjgT1Bx4TFLKeuc3wyQB8LiLcIPmajkqBeQYi1mHcEVjkcPiAIkAZwgFcWFgz8LHeg5BY6NgzUxZZUqUcvLfaZpwzpjfJhwtYcgLT/97LDBYtXD144GwDG7WKIcQQh/LC4QC6xh4xln5vj8sYRz4837o91l7lnDKM6yrtpKDXckvyghyBuGNgk5VCRrYQ5wIAUBpR+GmogPruk7hthjUkh6h0uSXvcH3EVsKQSCkgcMNPNtCvfyzhFEgX3mWcJ9UhRxTQDE44JYnsQvcaZSdQglBPkCMzSLMns0ZMtRnDU77t+AJacBIQ+sadwqJRQGrU1Ys1hjiy7ln5UIhryggzD9/h7xGoWNP1O05xohcopVc97kT3uIycamwBy9z+D7WNOdWbl5Rel2VsPyaITA+s1gnGG64aInkSmQi8pUzK2eSd1fMpk5+40XTZp2NP8RcoBz6NMAkhsgsQghAsySmFq31B9EiVg3tl42JJRGyzAThevCuHK8J1rn2vBukbxINiwBrhgmyrpNX9zvTynMlMQwZD8oCLi/cZRxW3PADhpC4888//1plq/zczSpxcJrk14REU7wjJIDfnXTSSRXWW7MusMZjN58phZAEyHScpDFkHuf1WSP9dsW4HUJN4+1Cfi0hF+UZNy5WLnOFMl/+SnNbM1g6OACZqz6erFzYlia/kHysschJSCeNcDAqEbSRzj7P8lsORzweHI6+okRc0xarP2OC1E1iSMmF/bT78RVOOAOxyraFcPgkOsLNUrX0rV9kNEo3RhTOPwwV7C1fVtSfeV1CDEthlJv8GimzPZ7iERbmaN9kZ/6kvGISg1kOPEuQXwxdyAgSNAldstKUqbh1PDaEpqYKF+T4vqY+pk5+42L/KZdC04CxHJM8ZOVzsABwOFmz+r78f13fTLhlU2K9wLpmMcepTeyzzetuhPKZzX0JPWNFMCHI21rqKtyUu6CL+6vtXUP/HpwhvsTsQcwgwGaJjzO/eZdZJfhvXGbeuj90LF2fnxb55T1WHxq3XSoRzg52Mr2xfqFI2O9SCpZd5W1Ypupfd8VhLL/zXqBUsf/Ud3Qhv5ZMZEqYfyaWKxBwYqitckFfmZYL69Lkl3HiyaGxfom7xVNjF4+QpNPkukR281z8LLLA19Q2YwOkAyWCi22Q68hoXMI+BMDfZBaXWsuF67z140ksmGAdT4WJxeO2c6zJs0asLpY4PB2QQC5wwNKfSkr33s6ulucSWOYmv4wRJYD1xNrGw2PJ+XZW+9ri/BnYgmtuXlECL99nbvJrIWjwMjw6/sxKVfTy9e+nrQBMnfz6AxoLJTEufYiaJ0ipQ94T1br6pUw4k4K1l2sDvRaXmgB/wMalfmwhIYS5pY7xzYq4DdkoYGJxiUP64Vl/XSzEDmUFnD2OqY3g/76UMOW9v//97xs/EY2fdUBSXVsc0qRX42J5MY0YK5q/uMEGZ7GRWLTIjkajthsNU9aILqRu6NxyqxoWetZL38YzhieWpKG3SaG0ckCRENTH8uRxqlNUsbJjlcCdb4lrFmPpy3nZYUgpOyu15sOw+mJU93twt/7rfgMpWrlyZQgLIPmxqbEnLaxryBghSxbyQMIw67Ntz9j7/LPeaos3jrhTCAeKBN6Ouhs9kfFYMPl7LEvUqy1R2pK1RuLW0EaI19C4V1u/hHsQz5yK243H6UuLNslWPBzsU4icjylO7S/vxYXssF9yh1MxBtZ+U+OeABSxvffeuzW8oo+8Nq5CuBl8gT2DQkASJuscgmwNSycyPDevGLreSK5lbzQ1s3ATRtPUushsO7NYD9xGZ1Ww6rjeNM6sum+aOvn1H5ty3TaB761l/C6l6XvLcpebq8wKzAJIJQ3EYRZ1h6XVaWWz1hHkoQu55PPf/e53g5V2qPBig6Tcvh5HNgJ1H+MblnzR9j5kpisurAeyk7FkNDUEGQKjrQJJ3bd2GY/XeLtcMuGVq9S6j+uCdnH/dxln/BuSSt7whjdM8ui1nsHNxTqZtNaqXZBjiVB9rijuQn79YH1JqVRsWhwjWMLyC8nhcG8jlsgfSBF7rKlhycPd2NZf20R7JY7f9glXip9NKcTe2JFKZPQEDPKLFbTN/d/2TfHfQ3iYd667HdrIG7EkwUn6MjcxMuCEE07onDjpk8TrvJfxeLxyksqf8YasEsYKZBohLyT3NjUq3eAJbpPXELOjjz66l9JnycamXBmRRL4SImktNkbk4hWTrBF7BjlEpY62K66tWosv75Z6L+cdoQxdZTZnloU54r1k3fm96TkT7+tz18MQXOzZqZPfphuB2j4ovskpBVaXsAf/Htx4aOJsnpRrJ84krzPN089mm20WJrAEcWvDxv+9t7D1ec5cmn2eSf02ZXnxF4GkysHF5K3URmA+LQkjNXaw4xpWrJtYkdqUgUmsTDGRhVC29eNdjKla0hYniaBDSEEsSsX85lgn4NpViMbzRBwZXhb2bByHyPwyh00xt33Jr5cpqXATT8By1/yMZVXT3oSEr7HGGuGAars+Fny6El/6BdPUeopLPsWKf59nUwTKK4mppFDvtSsZ8wsBRkYNbW37vKl/UwQ4p/Au+v1jCnTdnHqi2iUnxZcMTVVkYj2YVY8x14VuDcWrC+6EyRx88MEhLr9NpkyCP+F65BUhb0j8I7mVtWBJ9vHlLnxzLl4xFL+u5x3rhkoMTTKhr8z2ClfqzPJemzqD2NDvb3p+6uTXW2ZZSGh1XcIe2ASWecoH1V0m4Q+qpoQ3A8UfXCnS6icwTq7zwDKRlIdBQE0S88u4cVHkaAgmYug4COeleRxT8b6e3E3rZr468ouCVrLag8eiq7XKh/OkrGv+IgjcVxxGJTOsZ7WuOHRwh2PhJEGUcBprVpoM8m/hIalx9iW/3iORkimeoM3ykpsSMb+UeYNIo1SlKgRwyHv5zdrDQstByR7CIk9YSt9nmTfvqk/F+3ImWIUTft/H6jyr9Tvpe8ESowEWNFzrXimHnBEawp5IJTnHZ2dTFSQbn/dmoFSQV+OJkSd37DfCQiwZd9JvnPS5EjG/jAV5wj8pT4IPCSHMyMr25eYVk2LS9bncMb/+vW1hjv5MK3nJTR0WUye/mOKJ0TJTfF3WaTxgr+E3AeWJRZfYO68Rp6y6/r1NFl3vGu2iWfvv80lWXRdt0+/oj3IiOWL6coyHPto2Qlecc42nrp9pJLz5Td81SccTsJRbnRgrq4CyXEmAVXZgn1KPOz5sOZBxs0ES/BW88Vz3Ib/eNZey6vq/x3pBvGoqi770uqX/3OQ39sbwjpj8x7eMmeV3yLOGVZ943677aBrzkPsdVB+C9FJej/C82DpnBp+68857hRibvwa5bqye3KWsut5oVCLkoQ+GJcgvMf8kbMFTCPOK6xi38Ya2v5+38441lbPOb1uYY+w56HvRWZ/1MTfklwMMq6RdiXnYYYe1xkCdffbZIVYTCwKaLdbVOvO8d8O1uc59XA4AxTHCPmaF955zzjm18WTeclmXwNRGWHO41XhHm9s3x8Lp00ccNx3HuPpyRSXdxl3GPA3y6y2FrCss/k1W2piAsR+8NQLLz/rrr1+bFNTlu8fwGwg+lkhihX2Sj4X5EJO5YsWKVs9LH/Lr5Ukqlt+TgFKu365zU5r8pnIi4guHzOsVk9/Us3EYW2w0aIv3NYKB0oFltO6Wt674zePv2NtY3qkugEcqbqz9HXfcMXx/3SUX8YUMXYxCXkYxT76UHe+0GsPMK8mJXZLuSuFbgvx68gr+rGuTuaxt5AzrMxUqmZNXlMLM+i1l+fX3OXDGYZCJvRV2Zs2ixi/fP3XLLy9lQ+OuJIaGoHE2birbnUWG+xKXAsSXZAEsiE0JDV7otgX2+9vgGJe3mLEoCPjn3bjczjjjjMYNbta8WbrsS2+USfs3i5xdbBKHhdiNfyTqcDPQrCxnpjiUDnvwVlzIPuuuKdbKH14kioGj7Rew5bpoLELgR4mitri3Sedxls/FdTWbxpJSei3Om31NWTIuTaAhI7CqgT//xDHe3kqPrLrooouW8MVrxbNkmyObKBE1y5ab/PIthjvE8qijjlrlil3CPIiRp8XWVyMQPIsnilhJ35qe5Xf+72OSQaIjWfh9K33Mcn76vvuKK64IeSRYxdpak9HAhwLST1tCZhwmEYessGcg44Q7EGfLDamzbCXIr/dUxnvbn1epahs5eUVpXEuRX68Uc2ahQJmnzp9ZlPuklFzuJNUuuM2E/DIwYn0pkE78EXc/I+ie+tSnLt3/TIA5tU05yCCUmOSpodelmWWnTaPwlgc2MldnIpJx1AkAAApHSURBVLAp0cGEYJ3uWkfRBDWHIeRuOcZbdsE+9Ru/EbDScN87ePFvcKY+KjhTQoqSXrNspS2/seeD8mVkcDeRX0/AWKeQXJRCDn4sNCR8sO4Q2PG1xrPEMte7vQu2S5+xax7lGoXDiC3KA9jR2PPUnrZ756kW4JPlvKLC2iWkAuKM9R35APFtkzNdxpzjNyXIr8VRE1+NXCXeGnnNYcXBz/+DJQQX7Pz+5VlkNkoBz1K3mz2PbCSZlP+ve9bH+4I77mdkBlfkYvmHcFOykHMhda1xDjxn2Ud80ULbWPCKHHnkkUk5EpPftuoykDcsuVQ2QN6wN5DThBRxtTzrn0uKjj/++FUUmrZxlvj7EuSXM4s1zfcjX9ddd90Q/3vooYeG0n5wEqptbLTRRqt8Uk5eUQIv32cp8uuVB/YvpRdZn+x39ixrkjOLs60tqbwUBjMjv3wQNX4POuigcJBbDDAHu2m6ECI0fq4f7uNWMXdZmwvdW5OwvvH/Zr3h3QgUgv3bbmuyJBysb7Ou9FBqoQzp1xe6RjFgwVtCEvONZg2BmCQTd8i4Us+WJr+806+7VPJfPC7vpsfiBaFgjdMgY7gg+We5Klx8K9baLg0iG3uHIL9Y85lbC5Hg3zS7NAYBDOGAwNk69F4kZIkp4CjsRoRJuOpTZq3LN0z6mxLkl7Fw6KOgQfatLJKNERyQkygJKcUVTDn0+j4bx/uSHI0xhHMC4sF8QIDbbpabFMtZPwdulKIzb1nbeNj//D7V8LSS/wF2bWciz8fxvih4doEL2COvuUK9z5ncNv4hf1+C/DIeQqz41njNw0kOOeSQ2u+PeQV7x2rp9uEVQzDp+mwp8ms16ZEPrCcU1PjMwuo7K+IbZP//Pr5/tfquyHb8HYKOQ8cuH8BMjkuL22XaiGfqFd7tkCqPYwLdrBK4My+88MLwLkzyQIJlo+u7vabcNYGvIzSj/5mP90WLRhCTHQ5mfXGeBhjTIL98BwoBVkeqPTQ1H+9rlSEYI38OcWOdLscwB48J3wsZ6NLAJFYCeD4ub2ekN74x0T/r430tqQf5wFh4DvkwTwpHKfJruLNnCavh0gGsgshprhbuUlLPP4v1h0o0Tc+m4n3pg3kE8z6l2rqsm3n8Deus6/EMJk3eIxIxKakImWu7Dc7H+1r+ipWs4z3zYKTw81WK/PIO1hy4wU1Y7+uss05QJOpIm/d2GK9APtvthn14xTTWZAny6+N9rawpuMzbmTUX5LfEJJu1LFVih/dxiHFjC1rd0DIbFts2D3F/JbAc0mdqI8wTYYi/DWHA2sF1NQ/hKz6bfoyXpwxZO7N+1oebTFK+cNrjL01+p/k9bfV9pzmWRXpXW33fecQC8ksoBnk5sybmOXnFNLAuQX795TWzLP3Yht+yJb9MAC4x3OrxdaSA4uNy6ghyG3hGoim4j3uKPlOJe136Wa6/aSt0PY/fTZkbhEKbhWQaY/chI31L6E1jfMv5HW31fefx25FBY696ENf3xdrc1Qs3j3MypjF5L2aqksE8fguyGss21QNm3XLximl+R+7zzp9ZbRW3pvmd8buWLfnlQ8164K02bBSskdzPbddMUmqKOn6TuNIsmWBekl5muZj8u801T+1Zw5lScWR8T4LzvHzXtMZhNxvttttuS/HRuJoJGRERKDsLkC9kBBVpyD+gVA/JXeC+3ENMyiLb3juuUa6uJsaX8AjiiSmHiZt5Fhnh7SNePr/AaknZsk022SR8FB7NnXbaKeA+y9jMMSCc4hXnnntuIOSLct6N7cxa1uTXLAhoYxQKJ0AfKy8lewjit0ZQNsKW0mYbb7xx572Gm5H4H56nOsWsXS6dBz6FH1LzlCQJX6aHmCkC/vviPIXhztUrrCIEyZeUA7QGflj1UCiWa6LPrCcC0rv11luHZBerCMGYiN8j2afLVdSz/oaxvp98ACoAkSDjG5niKM0kDs1zyNRYcWfcYE5YFcmhvnEebrvttuHCB7V6BHLyijHizJlFUjJVYfyZZXITzjVPl26B8bImv3wgFSU233zzcHidfPLJodKACdc445vN37XUFsSaUj3UOTz//PNnWpt2HjcLOPvrmsEa6wH/xppAvLVaGgEwIkP+0ksvXapOYL9EyHB7mUhAmdXDvuYSnlTyEJUk8GI0JRaVGdVi9MolDRySVpGDrza5QfgalTXUyiAA6aWEnK1tPwcrV65cpb5zmVGMt1e4RQ5eMVYErCIM1Yh8MrHt4QMOOGDuzqxlT34B/8orrww3snBTi5VsGbLIEAy44ijTVlfrb0j/elYICAEhIASEgBAQAkKgDAILQX6BDgvwxRdfHOL3cjS0PAq2260lOfpUH0JACAgBISAEhIAQEAJlEVgY8lsWRvUuBISAEBACQkAICAEhMAYERH7HMEsaoxAQAkJACAgBISAEhEAWBER+s8CoToSAEBACQkAICAEhIATGgIDI7xhmSWMUAkJACAgBISAEhIAQyIKAyG8WGNWJEBACQkAICAEhIASEwBgQEPkdwyxpjEJACAgBISAEhIAQEAJZEBD5zQKjOhECQkAICAEhIASEgBAYAwIiv2OYJY1RCAgBISAEhIAQEAJCIAsCIr9ZYFQnQkAICAEhIASEgBAQAmNAQOR3DLOkMQoBISAEhIAQEAJCQAhkQUDkNwuM6kQICAEhIASEgBAQAkJgDAiI/I5hljRGISAEhIAQEAJCQAgIgSwIiPxmgVGdCAEhIASEgBAQAkJACIwBAZHfMcySxigEhIAQEAJCQAgIASGQBQGR3ywwqhMhIASEgBAQAkJACAiBMSAg8juGWdIYhYAQEAJCQAgIASEgBLIgIPKbBUZ1IgSEgBAQAkJACAgBITAGBER+xzBLGqMQEAJCQAgIASEgBIRAFgREfrPAqE6EgBAQAkJACAgBISAExoCAyO8YZkljFAJCQAgIASEgBISAEMiCgMhvFhjViRAQAkJACAgBISAEhMAYEBD5HcMsaYxCQAgIASEgBISAEBACWRAQ+c0CozoRAkJACAgBISAEhIAQGAMCIr9jmCWNUQgIASEgBISAEBACQiALAiK/WWBUJ0JACAgBISAEhIAQEAJjQEDkdwyzpDEKASEgBISAEBACQkAIZEFA5DcLjOpECAgBISAEhIAQEAJCYAwIiPyOYZY0RiEgBISAEBACQkAICIEsCIj8ZoFRnQgBISAEhIAQEAJCQAiMAQGR3zHMksYoBISAEBACQkAICAEhkAUBkd8sMKoTISAEhIAQEAJCQAgIgTEgIPI7hlnSGIWAEBACQkAICAEhIASyICDymwVGdSIEhIAQEAJCQAgIASEwBgREfscwSxqjEBACQkAICAEhIASEQBYERH6zwKhOhIAQEAJCQAgIASEgBMaAgMjvGGZJYxQCQkAICAEhIASEgBDIgoDIbxYY1YkQEAJCQAgIASEgBITAGBAQ+R3DLGmMQkAICAEhIASEgBAQAlkQEPnNAqM6EQJCQAgIASEgBISAEBgDAv8FKM8Zf1nptUoAAAAASUVORK5CYII=;" vertex="1" parent="1">
          <mxGeometry x="32.99689655172418" y="-275.99724137931025" width="703" height="98" as="geometry" />
        </mxCell>
        <mxCell id="G3RhWABNZF6Ew54WlCH--74" value="2" style="ellipse;whiteSpace=wrap;html=1;aspect=fixed;" vertex="1" parent="1">
          <mxGeometry x="274" y="-890" width="40" height="40" as="geometry" />
        </mxCell>
        <mxCell id="G3RhWABNZF6Ew54WlCH--75" value="3" style="ellipse;whiteSpace=wrap;html=1;aspect=fixed;" vertex="1" parent="1">
          <mxGeometry x="384" y="-960" width="40" height="40" as="geometry" />
        </mxCell>
        <mxCell id="G3RhWABNZF6Ew54WlCH--76" value="4" style="ellipse;whiteSpace=wrap;html=1;aspect=fixed;" vertex="1" parent="1">
          <mxGeometry x="384" y="-820" width="40" height="40" as="geometry" />
        </mxCell>
        <mxCell id="G3RhWABNZF6Ew54WlCH--77" value="5" style="ellipse;whiteSpace=wrap;html=1;aspect=fixed;" vertex="1" parent="1">
          <mxGeometry x="502.5" y="-960" width="40" height="40" as="geometry" />
        </mxCell>
        <mxCell id="G3RhWABNZF6Ew54WlCH--78" value="" style="endArrow=classic;html=1;rounded=0;entryX=0;entryY=0.5;entryDx=0;entryDy=0;exitX=1;exitY=0;exitDx=0;exitDy=0;" edge="1" parent="1" source="G3RhWABNZF6Ew54WlCH--74" target="G3RhWABNZF6Ew54WlCH--75">
          <mxGeometry width="50" height="50" relative="1" as="geometry">
            <mxPoint x="314" y="-880" as="sourcePoint" />
            <mxPoint x="364" y="-930" as="targetPoint" />
          </mxGeometry>
        </mxCell>
        <mxCell id="G3RhWABNZF6Ew54WlCH--79" value="" style="endArrow=classic;html=1;rounded=0;entryX=0;entryY=0.5;entryDx=0;entryDy=0;exitX=1;exitY=1;exitDx=0;exitDy=0;" edge="1" parent="1" source="G3RhWABNZF6Ew54WlCH--74" target="G3RhWABNZF6Ew54WlCH--76">
          <mxGeometry width="50" height="50" relative="1" as="geometry">
            <mxPoint x="324" y="-870" as="sourcePoint" />
            <mxPoint x="395" y="-923" as="targetPoint" />
          </mxGeometry>
        </mxCell>
        <mxCell id="G3RhWABNZF6Ew54WlCH--80" value="" style="endArrow=classic;html=1;rounded=0;entryX=0;entryY=0.5;entryDx=0;entryDy=0;exitX=1;exitY=0.5;exitDx=0;exitDy=0;" edge="1" parent="1" source="G3RhWABNZF6Ew54WlCH--75" target="G3RhWABNZF6Ew54WlCH--77">
          <mxGeometry width="50" height="50" relative="1" as="geometry">
            <mxPoint x="318" y="-874" as="sourcePoint" />
            <mxPoint x="394" y="-930" as="targetPoint" />
          </mxGeometry>
        </mxCell>
        <mxCell id="G3RhWABNZF6Ew54WlCH--81" value="" style="endArrow=classic;html=1;rounded=0;entryX=0;entryY=0.5;entryDx=0;entryDy=0;exitX=1;exitY=0.5;exitDx=0;exitDy=0;" edge="1" parent="1" source="G3RhWABNZF6Ew54WlCH--76" target="G3RhWABNZF6Ew54WlCH--86">
          <mxGeometry width="50" height="50" relative="1" as="geometry">
            <mxPoint x="328" y="-864" as="sourcePoint" />
            <mxPoint x="404" y="-920" as="targetPoint" />
          </mxGeometry>
        </mxCell>
        <mxCell id="G3RhWABNZF6Ew54WlCH--82" value="1" style="ellipse;whiteSpace=wrap;html=1;aspect=fixed;" vertex="1" parent="1">
          <mxGeometry x="154" y="-890" width="40" height="40" as="geometry" />
        </mxCell>
        <mxCell id="G3RhWABNZF6Ew54WlCH--83" value="" style="endArrow=classic;html=1;rounded=0;entryX=0;entryY=0.5;entryDx=0;entryDy=0;exitX=1;exitY=0.5;exitDx=0;exitDy=0;" edge="1" parent="1" source="G3RhWABNZF6Ew54WlCH--82" target="G3RhWABNZF6Ew54WlCH--74">
          <mxGeometry width="50" height="50" relative="1" as="geometry">
            <mxPoint x="194" y="-874" as="sourcePoint" />
            <mxPoint x="270" y="-930" as="targetPoint" />
          </mxGeometry>
        </mxCell>
        <mxCell id="G3RhWABNZF6Ew54WlCH--84" value="&lt;font color=&quot;#ff0000&quot;&gt;S&lt;/font&gt;" style="text;strokeColor=none;align=center;fillColor=none;html=1;verticalAlign=middle;whiteSpace=wrap;rounded=0;" vertex="1" parent="1">
          <mxGeometry x="108" y="-885" width="60" height="30" as="geometry" />
        </mxCell>
        <mxCell id="G3RhWABNZF6Ew54WlCH--85" value="&lt;font color=&quot;#ff0000&quot;&gt;T&lt;/font&gt;" style="text;strokeColor=none;align=center;fillColor=none;html=1;verticalAlign=middle;whiteSpace=wrap;rounded=0;" vertex="1" parent="1">
          <mxGeometry x="1154.5" y="-885" width="60" height="30" as="geometry" />
        </mxCell>
        <mxCell id="G3RhWABNZF6Ew54WlCH--86" value="6" style="ellipse;whiteSpace=wrap;html=1;aspect=fixed;" vertex="1" parent="1">
          <mxGeometry x="502.5" y="-820" width="40" height="40" as="geometry" />
        </mxCell>
        <mxCell id="G3RhWABNZF6Ew54WlCH--87" value="" style="endArrow=classic;html=1;rounded=0;exitX=1;exitY=0.5;exitDx=0;exitDy=0;entryX=0;entryY=0.5;entryDx=0;entryDy=0;" edge="1" parent="1" source="G3RhWABNZF6Ew54WlCH--77" target="G3RhWABNZF6Ew54WlCH--88">
          <mxGeometry width="50" height="50" relative="1" as="geometry">
            <mxPoint x="536" y="-870" as="sourcePoint" />
            <mxPoint x="595.5" y="-885" as="targetPoint" />
          </mxGeometry>
        </mxCell>
        <mxCell id="G3RhWABNZF6Ew54WlCH--88" value="7" style="ellipse;whiteSpace=wrap;html=1;aspect=fixed;" vertex="1" parent="1">
          <mxGeometry x="622.5" y="-960" width="40" height="40" as="geometry" />
        </mxCell>
        <mxCell id="G3RhWABNZF6Ew54WlCH--89" value="" style="endArrow=classic;html=1;rounded=0;entryX=0;entryY=0.5;entryDx=0;entryDy=0;exitX=1;exitY=0.5;exitDx=0;exitDy=0;" edge="1" parent="1" source="G3RhWABNZF6Ew54WlCH--86" target="G3RhWABNZF6Ew54WlCH--90">
          <mxGeometry width="50" height="50" relative="1" as="geometry">
            <mxPoint x="542.5" y="-798" as="sourcePoint" />
            <mxPoint x="512.5" y="-790" as="targetPoint" />
          </mxGeometry>
        </mxCell>
        <mxCell id="G3RhWABNZF6Ew54WlCH--90" value="8" style="ellipse;whiteSpace=wrap;html=1;aspect=fixed;" vertex="1" parent="1">
          <mxGeometry x="622.5" y="-820" width="40" height="40" as="geometry" />
        </mxCell>
        <mxCell id="G3RhWABNZF6Ew54WlCH--97" value="9" style="ellipse;whiteSpace=wrap;html=1;aspect=fixed;" vertex="1" parent="1">
          <mxGeometry x="748.5" y="-960" width="40" height="40" as="geometry" />
        </mxCell>
        <mxCell id="G3RhWABNZF6Ew54WlCH--98" value="10" style="ellipse;whiteSpace=wrap;html=1;aspect=fixed;" vertex="1" parent="1">
          <mxGeometry x="748.5" y="-820" width="40" height="40" as="geometry" />
        </mxCell>
        <mxCell id="G3RhWABNZF6Ew54WlCH--99" value="" style="endArrow=classic;html=1;rounded=0;exitX=1;exitY=0.5;exitDx=0;exitDy=0;entryX=0;entryY=0.5;entryDx=0;entryDy=0;" edge="1" parent="1" source="G3RhWABNZF6Ew54WlCH--97" target="G3RhWABNZF6Ew54WlCH--100">
          <mxGeometry width="50" height="50" relative="1" as="geometry">
            <mxPoint x="782" y="-870" as="sourcePoint" />
            <mxPoint x="841.5" y="-885" as="targetPoint" />
          </mxGeometry>
        </mxCell>
        <mxCell id="G3RhWABNZF6Ew54WlCH--100" value="11" style="ellipse;whiteSpace=wrap;html=1;aspect=fixed;" vertex="1" parent="1">
          <mxGeometry x="868.5" y="-960" width="40" height="40" as="geometry" />
        </mxCell>
        <mxCell id="G3RhWABNZF6Ew54WlCH--101" value="" style="endArrow=classic;html=1;rounded=0;entryX=0;entryY=0.5;entryDx=0;entryDy=0;exitX=1;exitY=0.5;exitDx=0;exitDy=0;" edge="1" parent="1" source="G3RhWABNZF6Ew54WlCH--98" target="G3RhWABNZF6Ew54WlCH--102">
          <mxGeometry width="50" height="50" relative="1" as="geometry">
            <mxPoint x="788.5" y="-798" as="sourcePoint" />
            <mxPoint x="758.5" y="-790" as="targetPoint" />
          </mxGeometry>
        </mxCell>
        <mxCell id="G3RhWABNZF6Ew54WlCH--102" value="12" style="ellipse;whiteSpace=wrap;html=1;aspect=fixed;" vertex="1" parent="1">
          <mxGeometry x="868.5" y="-820" width="40" height="40" as="geometry" />
        </mxCell>
        <mxCell id="G3RhWABNZF6Ew54WlCH--103" value="13" style="ellipse;whiteSpace=wrap;html=1;aspect=fixed;" vertex="1" parent="1">
          <mxGeometry x="999.5" y="-960" width="40" height="40" as="geometry" />
        </mxCell>
        <mxCell id="G3RhWABNZF6Ew54WlCH--104" value="14" style="ellipse;whiteSpace=wrap;html=1;aspect=fixed;" vertex="1" parent="1">
          <mxGeometry x="999.5" y="-820" width="40" height="40" as="geometry" />
        </mxCell>
        <mxCell id="G3RhWABNZF6Ew54WlCH--105" value="" style="endArrow=classic;html=1;rounded=0;exitX=1;exitY=0.5;exitDx=0;exitDy=0;entryX=0;entryY=0;entryDx=0;entryDy=0;" edge="1" parent="1" source="G3RhWABNZF6Ew54WlCH--103" target="G3RhWABNZF6Ew54WlCH--108">
          <mxGeometry width="50" height="50" relative="1" as="geometry">
            <mxPoint x="1033" y="-870" as="sourcePoint" />
            <mxPoint x="1119.5000000000002" y="-940" as="targetPoint" />
          </mxGeometry>
        </mxCell>
        <mxCell id="G3RhWABNZF6Ew54WlCH--107" value="" style="endArrow=classic;html=1;rounded=0;entryX=0;entryY=1;entryDx=0;entryDy=0;exitX=1;exitY=0.5;exitDx=0;exitDy=0;" edge="1" parent="1" source="G3RhWABNZF6Ew54WlCH--104" target="G3RhWABNZF6Ew54WlCH--108">
          <mxGeometry width="50" height="50" relative="1" as="geometry">
            <mxPoint x="1039.5" y="-798" as="sourcePoint" />
            <mxPoint x="1009.5" y="-790" as="targetPoint" />
          </mxGeometry>
        </mxCell>
        <mxCell id="G3RhWABNZF6Ew54WlCH--108" value="15" style="ellipse;whiteSpace=wrap;html=1;aspect=fixed;" vertex="1" parent="1">
          <mxGeometry x="1119.5" y="-890" width="40" height="40" as="geometry" />
        </mxCell>
        <mxCell id="G3RhWABNZF6Ew54WlCH--109" value="" style="endArrow=classic;html=1;rounded=0;entryX=0;entryY=0.5;entryDx=0;entryDy=0;exitX=1;exitY=0.5;exitDx=0;exitDy=0;" edge="1" parent="1" source="G3RhWABNZF6Ew54WlCH--90" target="G3RhWABNZF6Ew54WlCH--98">
          <mxGeometry width="50" height="50" relative="1" as="geometry">
            <mxPoint x="668.5" y="-800.34" as="sourcePoint" />
            <mxPoint x="748.5" y="-800.34" as="targetPoint" />
          </mxGeometry>
        </mxCell>
        <mxCell id="G3RhWABNZF6Ew54WlCH--110" value="" style="endArrow=classic;html=1;rounded=0;entryX=0;entryY=0.5;entryDx=0;entryDy=0;exitX=1;exitY=0.5;exitDx=0;exitDy=0;" edge="1" parent="1">
          <mxGeometry width="50" height="50" relative="1" as="geometry">
            <mxPoint x="662.5" y="-940.34" as="sourcePoint" />
            <mxPoint x="748.5" y="-940.34" as="targetPoint" />
          </mxGeometry>
        </mxCell>
        <mxCell id="G3RhWABNZF6Ew54WlCH--111" value="" style="endArrow=classic;html=1;rounded=0;entryX=0;entryY=0.5;entryDx=0;entryDy=0;exitX=1;exitY=0.5;exitDx=0;exitDy=0;" edge="1" parent="1" source="G3RhWABNZF6Ew54WlCH--102" target="G3RhWABNZF6Ew54WlCH--104">
          <mxGeometry width="50" height="50" relative="1" as="geometry">
            <mxPoint x="672.5" y="-790" as="sourcePoint" />
            <mxPoint x="758.5" y="-790" as="targetPoint" />
          </mxGeometry>
        </mxCell>
        <mxCell id="G3RhWABNZF6Ew54WlCH--112" value="" style="endArrow=classic;html=1;rounded=0;entryX=0;entryY=0.5;entryDx=0;entryDy=0;exitX=1;exitY=0.5;exitDx=0;exitDy=0;" edge="1" parent="1">
          <mxGeometry width="50" height="50" relative="1" as="geometry">
            <mxPoint x="908.5" y="-940.34" as="sourcePoint" />
            <mxPoint x="999.5" y="-940.34" as="targetPoint" />
          </mxGeometry>
        </mxCell>
        <mxCell id="G3RhWABNZF6Ew54WlCH--113" value="" style="shape=image;verticalLabelPosition=bottom;labelBackgroundColor=default;verticalAlign=top;aspect=fixed;imageAspect=0;image=data:image/png,iVBORw0KGgoAAAANSUhEUgAAA0UAAADMCAYAAAC80Ag4AAAgAElEQVR4Xu2dCdhuU/n/tyYpCpGEZK5UOEqhyDwkM6XJXCpkKElmMmRWhsw0mIeiQRGpzJkqU+JUJDKFNOffZ/2739991ll7ep69n3c/z/Nd13Wuc8777rX3Wt813d97WjM8/9+SqQgBISAEhIAQEAJCQAgIASEgBMYUgRlEisZ05NVtISAEhIAQEAJCQAgIASEgBAICIkWaCEJACAgBISAEhIAQEAJCQAiMNQIiRWM9/Oq8EBACQkAICAEhIASEgBAQAiJFmgNCQAgIASEgBISAEBACQkAIjDUCIkVjPfzqvBAQAkJACAgBISAEhIAQEAIiRZoDQkAICAEhIASEgBAQAkJACIw1AiJFYz386rwQEAJCQAgIASEgBISAEBACIkWaA0JACAgBISAEhIAQEAJCQAiMNQIiRWM9/Oq8EBACQkAICAEhIASEgBAQAiJFmgNCQAgIASEgBISAEBACQkAIjDUCIkVjPfzqvBAQAkJACAgBISAEhIAQEAIiRZoDQkAICAEhIASEgBAQAkJACIw1AiJFYz386rwQEAJCQAgIASEgBISAEBACIkWaA0JACAgBISAEhIAQEAJCQAiMNQIiRWM9/Oq8EBACQkAICAEhIASEgBAQAiJFmgNCQAgIASEgBISAEBACQkAIjDUCIkVjPfzqvBAQAkJACAgBISAEhIAQEAIiRZoDQkAICAEhIASEgBAQAkJACIw1AiJFYz386rwQEAJCQAgIASEgBISAEBACIkWaA0JACAgBISAEhIAQEAJCQAiMNQIiRWM9/KPb+f/85z/ZC17wgmQHn3/++WyGGWaY7nd5Px9dlIarZ4wpY/TCF75wuBo+xq3997//XTpejCslb72OMXyd73rRPmuNZ83ac6l9t/OdVANbR6DKPGq9EfrAQBGoMuaTceaLFA10GuhjbSPAInrssceyrbfeOrvooouyF7/4xdN8kt/vueee2fzzz5+9/vWvz1ZcccXsxz/+cfbb3/42+/a3v51deumlScLUdrvH6f2MAcLykUcemc0666zZxz/+8dLuI1h98pOfzH75y1+G8ZIAXQrZpD1gQvBNN92Ufe1rX8u+/OUvJ8eLefClL30p++lPf5r9+c9/zt761rdmO+ywQ/aGN7xh0tquD1dDwPbZ/fbbL9t8882zZZZZJlnxe9/7Xvb1r389+/3vf5+95S1vyd73vvdla6yxhvbYajAP5VOsf9vfZ5llluwTn/hEbj9sHu2yyy7Zpz/96eztb3/7UPZZja6GAHODPzfffHN2wAEHZJdcckmu0uycc87JvvnNb2ZPPPFEkNWQ2wZxNogUVRtLPdVxBL7//e9n11xzTfaLX/wiu+yyy0Jr//rXv2YvfelLp2k5m/VKK62U/eQnP5nm56985SuzQw89tJKA3nEoOtu8e++9NzvjjDOy3/3ud0EQhoh+/vOfzw466KDSNjO+a621Vvaud71LpKgUrcl5AAHnpJNOCuP7ne98J7vjjjuyd7/73dmPfvSj7EUvetF063CppZbK1l577SBUc1ButtlmYU589atfzd7//vdPTif01UIEbJ9FOcEe+tRTT2X8DKITF5QYkCH+ZlxPOOGEMCf4/1e+8hURoxGba//617+yvfbaK3vmmWfCGcyY77777tnBBx88XU8hy8wf5sPPfvazMI8uv/zybPXVVx8xVNQdEGB/Z1/nbGDcOf8p//jHP6ZTXPPzPfbYIzv++OMziBHy2lFHHZUdcsghYY684x3vaBVUkaJW4dXLB4UAQhgLDW3kiSeeGBZeihSxca+88sphcbJpo51+85vfnO29997ZYostNqjmjuV37r777uyss87KXve61wUCe/bZZ1ciRY8++mjQRDNeIkXdnTqQIg4+BGEI7AorrJBLilijaJA5/L74xS+GThnxxXr4yCOPZC95yUu629kxbRnCLGuXfRMhBaE2RYquv/76QHJvuOGG7NWvfnVA649//GMQaNh7Wfsf+MAHxhTF0ez2P//5z3COzjbbbNnMM8+cfepTn8olRd/97nfDGe3nkUjRaM4LemVnA2t/+eWXDxbjPFKEnPDGN74xyHHmRQKp+vCHPxwI9K9//eskkWoKPZGiCMkqfo5VwWcgKfKjropY/8+xMa+yyiqlpAgLxaqrrho+iBZbY9Q/9nXeAP4IVWWWItYQh+uTTz4ZtEYiRXVQnrxn//a3v2UzzTRTLimCDKFBfsUrXhHcXXFz/cEPfjBhcUgpNCavN/pyjIC3uKdIkY0vbspeiLF1/973vje4K8sNdjTnFuQZK3Cepch67eeRSNFozoW4V3//+98nPHhSliIsyViV77nnnmzRRRedqI7CbbvttmtdoSJS5EbsuOOOC1osNJexu0fd6cpi5wBA2MYtS2UwCJSRItuEv/CFLyRdPgbTSn2lKilC4GI9ImRxyIoUDcfcKSNF+IkfdthhwTXCXGYgvVgXYkF6OHo8Xq0sI0WceQjEWIXvv//+ibgB+3meW+V4oTi6vRUpGt2x7bdnRaQIT56ll146WKA5Q2acccaJz5knAR4GuNa1VYaWFKFBBlwCtvBHtcxhuF4QrOfBrAIehAjBC23FO9/5zipVSp/5wx/+EMyACHMEjMkaUQpZ3w+UkSIsgQhiHNgQ4KlTp4YgvvXXXz+ba665+v6+XlANgSqkCLc5rH4XXHBBGKc111xTpKgavJP+VBkpihvIusWtFRdYyJFiiiZ9CAsbUEaKqMxZ+ra3vS171ateNfEuW/frrLNOYZB1t3uv1pUhIFJUhtD4/r6IFGE5Mtmd57wLtY8rjmPCm0RzKEnRr371q6A9vvbaa0Ocwbzzzhs0UgR/Pv300+Hfu+22W/BZr2KehxBtv/32IVMSfotNFgIO8Z/87Gc/GzItqbSLgCdFsaaBL9thzrxBK/2e97wn+9a3vhVMsoMI4muz9ygG8LnFmlJUwAD/fkhgyiLKxvSnP/0puD/NPvvsrTS5jBRZtjkI6+c+97kwNqNCiti/wH6OOeaohC1zGoJ4++23ZyQEmTJlShibosI3FllkkWRcDuPPgQPRfNOb3lSpDXUfqkqKiDnBjYpDjjWJ9WjTTTet+7lOPn/dddeFDJicVan4KMb05S9/eXAlSaWZZ4xITkKcZFyIuSKzFwJE3bpNgNWL2xNa4IUWWmgkYoqYr+yzVRWduIP+5je/CX1HPmFt1lHcosxjTd1yyy1BxlliiSWy1772tblXSyALoZBN7e/sJ+zvzMmqe1DdOTNupIi1Cq5kRmVOIFfkrc0YS9YF9a+++uqJ/Z09oYrsSl3mBd+1s6FqXepRv5c2150P/nlPisDMz1E7N3g+z1LEuhMp+h+iCGuk5SPDEUITQVikcWRhMxEBmOxWuEaR4pVATtKBFt1rgvAAyMstt1xIx1xlItadEBA0DnsIEr7UKu0hUGYp4jBfd911sx133HHCfY6NAUGTAwshxAKD22tlc2+29Ke0G+JNAOuzzz4bhK28QlIKNLU27xG6CI5FSAYDlA1o7NksCZZvo5SRIrRCBx54YGgD63fYSRFzjLl52mmnhT1sm222CXtCWUGwRqhmzKxYGvP9998/KWxz6GBhI+EBVurFF188W2CBBUKwK+PKz5knkEyUAVUFu7K2+t/b4cYcu+qqq3LdkfEbRylBzBjWdNyqjjnmmGmsC3W+25VnfVIBhFgITFw4F/CTByOSvfA35w/k19Yha5KYq5hUsdZPOeWUELTM+Pq6Nr54UJjw2zQuVSxF8TfNde6DH/xg9o1vfKPpJrX6PttnIbLMTxScVc5zc6M/+eSTg0eLFVxEsYZWcdV/+OGHs1133TWsWeQaKyj1yOIXK67I/kasXry/s8bIzorMw35COuT11luvFdx6IUV5WQxbaWCDL2UeIHPi8mUFggL+zJMixRNJBT7zmc9Mt7+TqIYrK17zmtfktpS67AOWbZcHORuYV6TKL/J8oQ6GABRRvs2cF5xL88wzT4MITfuqIkuR/12epYgzgmQvbZWhsRSxuW+wwQYTmvBzzz03aEpSBUEKwZfDCOJE0Fbq4GfDwjKEuwaaFQ6XNoq50TFhEV7raIjaaM8ov7OMFNF3BNRYg2aBwQT/Y5loslS5wLLu99iA0ZZ4EmPvqEqKir7J3TJsmm0VI0WpQFzGEL/i888/fyIj4DCSIvYssnAxTg8++OA0Qk0VyzHklEOKgnKHxCDMpX333Tc7/PDDgyCNdtG7J/EshwnPWtrT1BhSF7LSlqa4qqXIt83GmIxUpPGO+9XvXGwyiU5RWxCg8VKA8FCKSFERMUawQnhJWX5N0ZbXjqK6/eJI/bqkCIsgabtRCg4TIYJA3HbbbUHgNTJh+EEsbH2mMOWcwUvkoYceCmcKMgnnDglFcNemsA5vvfXWXKWB4cazjPkWW2wRFFjsjSiEU8oVIyRF44zgjNzTVukiKWpj/ZuXEWODLLnwwgsHGe+jH/1omDOsQ7BYdtllp4MahRfzh/0CcrvRRhuFf5N+GsUZysorr7wym3POOZN1IU48TxtSddlDU/s7z0PikI0/8pGPBOstyVBoP6SZNkNQmwojiRtfRIq8pUjucwWrE00JWk0mGVomrEHxpZy+OhOFTcgOnDyNjmnMsSi1GfNDe8iagYWrbWGzrU1uWN5bRooYCw4aUsN6otxWViQORrRxRxxxRKMXj3HZHZunaQTRIOI6RykjRebSmRrT+eabLygR2rZoFpEiCCoacgQALFWMGRu8WbfYsNGcF+0BXZivtr/QFjT6aN/OO++80LQyUoS7DSni0frjXmYpTKnr9xPegwbez2UOltVWWy1JipgvHIZY4dpMeV2FFMXKAg5BrLSQCDLTQZibKggqO+20U8Cy3yQ6ZW2K11cvpIj5wnmRp2Vm3CHGqVJWt6z9VX5fhxShHCDOl/HkHLQ53IaFskrb6zxjOCMo4k2CtQdhllJGilhj3NsDccFiAJmxAg5GmhGoU8mYvFIELxY05BQ8ZhC+2RtoF1ZJfx8fFqW8/RvXPaxTTYcJxJh2jRRhEccCy77S1LwzLyPOTCyB/v6cO++8c0LJjlXwrrvumsblmTEk3g4SAiEiw6ovpvRIeTuxT7KeqMsVFxCbvLooILz3E22GiLNHnHrqqdNcQ+LbDCG78cYbp7vnsc7ayXu2akyR3OdyEGTBo2GCEDFQV1xxRSX3Jiw/5ouNmZl4Ie9Gx6aOoGGXiJXFYfQ7GWwyogXlpvc2BZJ+2zrM9ctIkaV7jDOY+ABg3HmacqNEuH3Zy14WXDMR6psqbKoQLuY0f9D8WMxaVVJE7AYbthU0mWzU8YW3TbXZvyePFLEud9hhh7Dh+wLpMy0W65rDgrFs6oBro4+Ql7/85S9hfBDEsYQYuSkjRRyU4IAQk7IuYwUyISm2chspQjPK4QdG/Jv4rA033DCbe+652+juNO8sI0WMP4cwLiJoKimWBAXXCNZKk+vQCGrZ2ugXGM4rNKzMY6yDlDJShGuU7TcIuShRuLm9iLyZsN5L3X77SP2qpAjXP1w5Wat25wj7FoJcm4rIJvrIOzhP+GP7LAobU7YWkSL6SFyJKapQ0uKFYMUrTFJrHMGRvZi1He8VzCsEcSvxnDZShDWI52yPZO9BmB7E/t41UgTJgGRiHW9KmYZMiUWIwhjizmaxnnbu2xjFinmzMLHeUfrHMaImL1Lf4tfsXWReg0Sh4GK/qVPXzhXexXkAWbP5ELc5/m5Ta6os+5zFHcakyObUWGefY2NBUAOM1OQoGiSEES4Qo6QmnrHiPKGjqQlg70GIJbsSm2Rbk63pNg/j+4pIEUIqhzHaE4gyh7IVNhk2m7J7c+pi0hYp8u1AmKTddUmRHeqWubFu3/p5vshSxLq3O77sGyhDcDWACPBvE1L6acOg63oLQhEpYg6TIZG9AhcJ6sUk/bnnnpuIGzvggAOCu4UVI0W4bDAn2nAbKcOuiBT5Q9GvN/qNuwckoux+k7Lvx78fBCkytznGjTTjED5KGSlij8Clug7BN1LUS9262KWer0KKHn/88XDmIcRAiOgfGKGBJo4CN/emlE9N9KnKO7zbYhEp8muY96LE8Vp7lGTINpSUcIs1x9Z0rPSweYaQj2LLr33eZ6TIFHGTsb+PAykyYgPmyJiESaAApcQEwytFfdgGSitcoGMFCHskd/TgHs/a4SJTisVEM8ZYLllDqbpmcf/Yxz42YZGkvp9XzDsSthgp8mcKzzatyLX1VRQ3xDMf+tCHgmwGycRbworFJLZ98XOnY4rwozfTYF0XNw88oKJd8cFjxpjjzarKxtjLM97lBbM6mn2VZhEAYwRqu7yVRW4L3gQOXBbYzPATtwOZjWappZYKGxCB302m5u4iKTIBscz9o9nR+f9vM7KDxtXit3BpoOQJhdTBDx8XWtzpcKVj7OoIkW30pe47q5Iir9BJucfxXUgH8xSBG+Lk3cJQwLAGjBTVbWc/z9v4sv+iwcQCj1882lkbL9pH9i2sf4zrMsssEz7J2sNCgoBBLBb/bqoMghTZ+GLFw8plFoU8UoT1ANLay0W1/dTtF1PG2Kx6KPgQgPHm8GuY33N2I9Bj9TPBHGsvf5izbd410m8f8+pXJUXUZw5D/hA+jz766GkuojzooIMmZABc3S6++OIJCwZrh/WBexyuTmSci60b4OnTF/v2GiFpS6gtwtbWPy7OKLGYp3n7e5V51NQ4tmEpYo4jwDNOhHVgDbXi93B+5okt650ECuwLEBss43EyMK9ExzOCq2fwLqIuln72TvBl3y+qC+nivDTPJO6HQwGMPIxi2LcZi6NPCBPLzP2Ohc0N+mZyGeeYtc3OB9xTwQUiaNZl6uLyyT6OO25T1r5UnzpLijApklLSsq1w0DDAVUvMer0AaJOZQMMqBIVvc+CxuW255ZYT7ieYODn88DMmu9PWW29d6BZn5lYmM/Xa9m2vilVXnkPDykYe44wGhjgy5gLuXvhox+6HaE4YJ/5YukY2EwQsDh02Z3MjQkPHv8lAB4kihoaNiXgPu0iyKUy6SIpMeLM1ASkEBzApc+tkQ8J/mrHAHcPcTtnowA+Bh4QiYBwnLuEZkgTwDIeE3RFFSn3G9fTTT59us8Oii3KEtuJCy7txQWU8EayGiRhVJUXetSbPouSTKYAJ+6U/aIgp8pYixpfCnlOmnUejDdaMCZpG6rBnMhbsYWCOxQ78/bt4BqUD44sWGx9+irn5Yf2xwHRcCXHvQTnE76nLAU0dfxg2tQ7bJkWWbY4+QXS88FzFUsTYYV0wq17Zoe8tRXXrMo5nnnlm2Bs333zzCWUh+yzCOcohxh5Xyzj7la1H9kvOP84+0kOzZzMf6DdCmml188avaYt8U/Ok7D11SBHvYkwpfjwtzpQzixKTF+8aa5Zi1jvCLWsPvPOuU+B9saXI9nfWatm8om2MHfs7Cihz+Wbv5r44W9MIqHGqeOpitWJe2P7OHOM59ihi4Ezzb+c1ZzXP+nnEHgHOZftU2Vj537dBing/fWbNxuemd1OL44K8+2Oe0ov34i1gyXKQZ1Eyebe6unUNj7w2E++OTETJMxYwV2lTLIcxhhA05g3zk33QkzVIDXIW7ed8MBmNOQZ+nA0+Do6zAIsQFiMUfMRP88wg7rDrLCnyk6oXFzcyviBsWfGkygeqlWlTGATYKswV7QcC2Q9/+MMgGBIIa4If2hkWf17GD9phEzrPj7TOIh+1Z8EPNwuseQhUlnkFjNG4GiFmM01lZcE3lvSSppH0LgNsyD6TCovQUqqagIdw4E21TeHbRVJkAiKbGAIQmCK4UdBM7r333sm4E+IDcIdh/lKPPwjJKATYxDh8IUmMJb9DE8yYWuH3WAaMyJjmyNxq0DbHByEpcNGUUuw5/s2mjNJkmEpVUuRda9A0pzKUmTXIDk0fV8D+BilizkNOGQfGg8JeilYzL74N9wrWHBpD9iu0iRxIkFkOKA4uI7X8DgLlxxPtOAJOiqwyT/wawzJ07LHHBkGL59lbOZTbWIcmKLYRU2ReAOxbP//5z4OAVIcUPfDAA0EAoI28izWAVZR4obxMpfZ+6jIuJmCDI4J0Xl1c11D8QJjRyPI8Y4ZLKgSVc4790t7nLXnMH9xtyJaWKuwLzDneyX6M0iOvEC+TyqrV9fVclxTF/WF8Wd+WChvhMU6L72UfBN8ll1wyaPdZk1glKKxh3DNTXg0211G88jz7MWuSeUXiDtZYKoEH+zNCKmuE59kzWJ8IpchAzDV+b2n94wQBnKsoO/IUVYy5ZUNj7d9///3JZ5l/cSKkfudFW6Qo1S6fGAxZBUx8HKc/B2gXHhMxZnFMGuOIPNtP3SIMaTNrnzVLm1n3sULEstYhI6DANgsWsa9kg4bMMmfsrkTmn08Xz34Tnw12phPfFHsGIHvzTdYMvyfbIjFxbZdOkiIOfFLywj4psV9kFVC86x3P+8PQW5GKUnFj2sOvE600ViDcPBAICF5k4TJoHOAMLIIHk4NNDkEhdTeSN6nWtXzRBzYSUic2VZoM/O+nTeYuQEYeDgHGHpwR4DhoPc5sxCyOPF/cOu1gE2fBFd1jVed9qWe7SIpsY4VYgAG4o93BPxkBPC+NKBs4GxsCFKQS8sRmxf0XxLVAgMAShQTKAohWm6nu+x2bQdevSoq84JVnKfLuFfSDu0kshtKsSBxAHKbsSVj1UBqYJcf7qRsOprRBi8e4WjA36xCySwZFhDCEJwKMEebySFsdbHkfpc112KalyLvNmfKmDiliHSLwQDL5N4IACrgiJZtZinxdspuhpMira4IWwg/uWwjmCNCMLxpe+gFZ4jzj3/xeiYGmncm9kiLWFOsRvLGEYllDrmEfjQVi/w2UGxBZsoyhNGKtkHmUdZw3P4wUIbwyrra/4zJuChaIdJxOnHmHlQg5g5TfKAqRcyisc9qF1Rj5CYUUe8uwxEe3TYqIf7nvvvuChR2lEnst6wxiEKfF9kqvImuPT9RhiRqq1I3j2fLc5FFccKGwbzMKFeZa3GasyJzpyNVYsOweROYHe5cRP+Qp5GWsgk2eDayRJi2HRedTJ0mRzxxH48usOXEHffwOv2NzwCfTtG7eBGlmyRRIbBJsWkweNgNLg8lBhHDo2b9Pg5lHeHzwXd0+mXuJpfGsI3SknkXwZbHUcUns95t59SGRWBrQVoCzpark4MBdw8eC+bSRw7Ahd5kUcSheeOGF02QjskBM5gdz3KwxpiDg98QK+IBN1on3Tfamf4RvFAaD2tDamqNNvLcXUpSXrjc++FAisM9RjBRx2PFNc1/jdwgyCFMIS7HrMMITv+dSR6yCdg8chAgLuHe9sQxIw2L1bosUsS7QXiJMWKITcK5DilAo4E5mpJC9HoWVeR9YPIGfg/Z+XF5MGcHv47pYrmzcTIPLGDO2aP35Weos8Ao8BCFiJ1SmHdcql7faekSQxG3KLD2bbLJJUO4hOHtSZK5E3jocW2S86yxrM05YYbEh7Ado/L2cgneAWakYe75PMUU0ChRc4Gx98zv2emJArdBGlCzIPHlxLV2bK22TIi70hUhatkEUShAeiG9s7fVjUNVSZPKiz3iXdzbEVqa8eUqcG23Gwk3hXKC9/IndAZkDKKfZixh/SyjBHENJ6i2Wds6xr6AgLbpIvmvzhPZ0khTF9zywQdsgVAExtjTFF7h6n/28d0OsMFFT0KogjJvQgZaNQ8wX/04mbuoeAA5QszbFd49U6RdaIvpWVrybkT0ba6PoX5zKsey9bfyediBQI6Rx+EKMzO0xFe9lBzttGYY7n7pIikjxjPsnPrrxBZmeuPtU9oY7mxwbIG5Z5soYC23eigHpbjINahtzcFDv7IUUVbUUeQGHQwuhZsEFF5xOG2z7GgccWj4UUCgdIFkkG4EYcWkvigrbw1JKnqLsWIPCs8532iJFCCaQF690o11VSBHzAddBBM54f/bnSWqfs7qphD15dRkz1izZrhCcLGA7ZTX0Qddl6ePrjMOwP+vHtSopos/siaw9/nAlB6SCMy9WGnHGr7jiihPCNYpBzsRY/rFEG7w7Vg6ylplTtDV2UUQGwbsFNyev7DBlIwpj3JggwewRCLa4THrB3gvdCNL0p+sX0rdNithzwZ3xxXOCuGfWGpZWFNnefd97MdW1FPmMd3XrxmvPYs1oMwkYtt1224kz3V+cbuON4of9xu8vqTXgrVl11khX9oZOkiLvU9uLJtIHKqY2DS+c5FmKmChMXrLAMKH9ZEwJCfFE91pDG2wvLA6DQB9PUjABuyaKv4wS7LDCgbPHMYVzVcGyiTaWvYONxDRDec+yoRCwjDYYF7WiwlzrJeNW3ZTctMHHXPk2xW5ZloEG9wDcOLASoam0zGdolXAH8UKdv4STgxdN0mQfmk3ceQPOlqSjbG6kfl917lZ1n8PX32KK8oL5U+3w7zfFA31D2QMpgihjfeAwj9O22vt6FQ57wa2sDu4+EP2igtUMDfhFF11UmuAG7XmsLEi9286ZlMW6Cikqaq8nJT77VBkW/D6vLkIa5ymKCn9GpixBXvmUJ3xVaUtTz5De2zTa/bwTRYC3nNZ9V1Pz3isdEDYRJLEUxpYixgpLUOxa6klRirTm7e+xFcHOWBLo4PYFmbKLRVGYpCxBsdK5yNumLr69PM9c5SwuKqbY3n///Qu9FsDNUqX30harQ+IVFOBYBplzzF3zuujFBc7Ihbcy5a3L2IugKjHxyc1oM0QZxQmYcDZAmkj17dcASlLzKEidDb0o//vBvYm6nSRFHvQ4pWBZpxlANNwEflFSsSdeOIkviEq932tXMYtyAMcXoPk2500EP1nzTJ9l/ZvM3+OTjFWnX1co8MR6EJto+bkXxlIXk/mb3FM3QQ8SH1wT9ttvv9IMaBaUiIBZVHBdQEtfN6NaTIp8fEnefLaA7vj38aGZmsteoEpZRb37a++XNnYAACAASURBVBOxX/2OKXgQuF4X1/i7YMYt4L0QV95VlRR5BUyeX7Z3oTFB2LspoAXMi9Hxh3IqE6YXelJCUXzoTnbcGK5GkN6iAmnExbCKuzACAK5lRcUu1yTOwxRg3kKPFdZcoIglsVS3cbY+vpHaT+PsqfGaZs33Wpd63tKXSr0bB/unlHz9rss69YlZQLHUb2EP9unr676vKVKE3EEgu2XXNRdki8mwucN5RyB+PEd8Su8Uccpb/7EbfsobwyepSv3eu1bGoQl18ez3efYqklAQ4lBUICdgbd4+Rc/6FNb9tA8rIEST4olvfA4QxxWfTXl7bC+Equr+7OVc2uw9RQwHLx+kvED8PUp25vmscv3gOai6nSRFXgtS1/3Gx5wAYsra4M1/VbQc/t6A1H1JRf79fiB5D9pdhOTJJkV5mqSyiUcfmigpy4FpqOweC9OepRZk3tg20bY67yjDA3c0AqCJ00AwLyqQxF4E9zqkyA5dDj582u2OGGtX7L6R0kKWCVReqO8lSUod/Ks+WzZOVd4Ddv3cBl+VFFV5DqGK2DvcXWJrOlpR/rBXpdx4/fvtHiGvoCgTiryLZS+W/CpY13mGcSlzKyb5wPrrrx80ykWu2FXS0tM2E0rZx40MeVKEZtiseDxDwU0RpRJxk8Rssf4gS7zLZ2niWbv81nDwwdJWl/dBvuK68cWRcaC1vxQdK5SPO+J7sXDUlZgic0GrMzfiZ6ukpS56fx1SxBiynzLf4n09zh7plQ9+f81zXfRrOFY80UaILlnmvNuWjS3ylSddMeH1VqyUQO2/Haeb7mdseq3LfLZkLXnvwEpMjCzkuuwqlKpeDXyTMeZ9qTp+rtAuS/blrbBxaIe1n/mx6qqrTqSutrpeIZkXjxTX9SEi1mbiDFPXb+S12drl95bU3LTYY4udqxv60uscaLJeJ0mRX3T4ZN5www2VhBEGHLcsfLwpeRuK12RXGTSfmCFlnfBCBJYkMsSlFonXDtVNtEB/WBBouZoqxEUhsHeleBzj4E7a6DVURTh3pT+0YzJiioosRWj+9tprrwARBzH3kvjNMbYUkYnGLlCmjr9jA62bpSA2zP1t3fxsGJJhDGq+VCE7tMWvg6LLWy0m0CuOyBLkE5OklEJe25hSOtVxYR3U5df9jlHTMUW4P5s3QqptnDFmBTDrFNmbqIcQhfYUokbBAoLQ5ktMbCwlLwqQXuva+/3lkSmlhY87yYtp6Xc8hrV+VVKESyepz4ndSQm+8T00XjkR31OWsiTEliLixJhXfu2SVZB2eEWO98ZgDGIZyVuSUvWp4y0gk+2tUXUeNR1T5M+51BUhtMsr9/m/7cXeCpx3eav3BPCyTt26jCHyKGc8bSZWjH2LsxuLWBxzFrc5dsv2czMlw3rSNixJOOI51ElSxMDjy2h3p6T8FlOLwWdMsUvPUq4J3ue6yr0VXvOd0px4V4OiTcJP6Kp+ntZP0/A34Vdt7yTYvkt3vZQJY34chmUz7hop8pteitTEGsxYqC4TqPzv61p5qx5ww/pcVVLk71Hzbhe+334v8YKNV+DkkVIv2MUxYT5zJwJx7MIauydXdc2Y7DFrmhQhPNqFuHHfED5IpWzxhlincG3EWoCGNlY8pIiJVwD5cYi9ElLulXFdAuW9YFwWT+R/ryQL045uFVJkyYOItbRipNb+H7u/egGStU2cBqQ6vgvM6vt93M8fT5awQnLPmx/72BMgtgKaW6jFEyH4ehnKe830cn/kZO0DTZOiOBlYyvPHu/rTb5M1y1zQeBbFhMXtesWTX/95runeyuw9m+I2p1wj89ps4+Z/nzIoVFkfkzUHqn63k6QoZtlcIMYdQEWFYETcI/DfRtjjxu08K4i32JSRk9iVII5BqjJJrd3+sIo3ySoDRlvyDuIq9f0zvCtlPq37nqaejzVYCNd+M6+ykTTVlibf0zVSZK4R3EdCSs7Yfc5rqFP+4t70H6fiBjcjrl1K+d7kePbzrqqkiG/4e2jQ9saWZy+4+nTcdpgSKMuh5618vDfez2JLno8nSqX79cG4TdxD0Q+edeo2TYqKvg1hsnTXXhjydRBkUUoRR8iaiRM7+CseYpdt09Tzc5RDcV2vzU0RLu+ehWXRp2ym7bhccgcVGnAuKk9dEFoH+1F6torQxxrDrdG7pcWK3dgS6BMv+TWKpwyZDX06fPD07fDr3/YFLBDcFcM+7wukhrsXsWCl4qO9lTol6Ps9rBdvl8maC02TIr/G6FOcOCsV2+6zsJoinX2aNRhnAvbKrRhnq5vnuuw9oXzdmBSlLt+1tU+f4njTWAYz66SNKQo0Lt1lbqUSME3W2Nf9bmdJkQfYp46NO8hAkSWJVIFoVjhk0H4U+Y36YLC89Nn2Ha8Z4WeeRFlWDlwf2LzwV41vAfbttUk5TBqWuhOq1+e9dpx3xBuBuX2l7l7o9ZuDqNcWKWLuIcCgfWY+M//NT5yUoBbYHV96ZvMZgZd1EltSvXtdSmHgBar4NnYurCPDHutwWCx5bc8BuyCY7yDoWmajXXfddZqbzOOkCByU3DoPlvFa8AqEVKIEBAACfMm4xl7jCwIUAjvKo9QdUl4oYt/lcLbsQhCujTbaKPQDDTaulWX++W3jW/X9gyBFjAt/WI8rr7zyREwRCjDOBdaarTcTelIKP38+sY7J/OgzPOEtgJa4rC4WJgLQfV0fTwR2sWLDBC7q4oZu99hUxXkUn/NrGLID2aCQ3IP1xx4b77N21oMjHizxPU/+vplUWmsvFMf7MJYkYoVYy7HwiZJ2oYUWCvIImRZjxSdrlktZKbFrND/z3hqcEQjytsaZx2TuY58ftuy5TZMi9kKyxRK7tdNOO2VHHnnkNHFj7N8QUghCLDfyfy/fppSLRnpT3ha+birez+qydiEuRqi99WnnnXcObfbFLmjlbKDECrM4+YtP0MK8Y16hTEFGu/LKK0OmumEsnSVFgEkK4I033jikNeTCVEzDpDdmA2KjQoOCvy0HHloPfp8KLE4NjAl3ZdpOvzmxwXHTOwcHwa1sKmiD8BVn8sW3AMffNYEzzyVmGCdQU232whg4L7DAAkHTzd9nnnlmEPir4txUm5p4T1ukCEuov9/EgrppM4esZbpDsOZQ9sKraaE50Jm/3GcDkQJnu6QvRWq8sIaWyi4A3WKLLcLhSawSrkJkSyKL4LgXCCjCsQnCHCJTp04NsEA4LBMSgjTzO9bqkiwBYYq9j8MPqx77HhYGgqipT0wY6ex9Ib0ul0XirsE48m/2TMYI8szdOBy2zKGYFPsga+YQBIrx5KDkbwQ0yDBt6zcL5SDnR9ukiDFEUOR+D4pfjwioYImrMgKQCSlmDUSIIekCng0PPPBA2PcQLqiDoi0Oluf9cV3Oo/vvv3+iLmQKKw+aW1+8eyvPQMZpE3fjnH766dkRRxwRFCpc6syltONesIxDhCiMMfKACY3IAnannmVU9RYds+ihQCBD2pJLLhnw5ooCLLi8B7mF/2O9iYsRVNY/ezNjSWpy5gvrj/Pw1ltvnc6KdP3114ekPpAa1iwkifYxvihw+W4qjs0rW5h7hC/wLfYa5Bv2KPaOYSNE4No0KeKdhjOKJ+YI8eyMP2OEeyN7KSVFenx9/k2sOOPLGJx33nkBcwoZbmNvDn5O0gjGmD2YujxjdSEnjB/rP65r9VBecv0CSjpkA/YO2mxXrqTa7K1j7BHIZvQROQDZG7kCIoYSL07+Mkz7SKdJEUDiD81GjX8uAeQUhD60JBQEA9wItt5660IrTTwoZmYui3vwcSwwZyaB+QoX3QAcf89r6KRFn36JeGGMhcnCwgJo480YQ2C75PJXZaG3RYpwF0XAZSOkpC7n5WccnMzhWKMP3iTasCwx1hfmNBvcOuusM133vKYJDSXCnlloORjYEDl0+aZKFu5zghRZyRsjI0UprTwHEQSTcWJsEGj4N4T2lFNOmcb1yWNOLMGWW24ZDipfILOMHWMcz4lYKEIg5Nsm4PNNBDwutR4mQkT/B0GK2Ne58JICPmbJNfxRUHhSxM8R1tjnLH7WngVrLBJFMZ8QIyyCdep691eINmea32chvHXP0lFe6+CFsOgL68RnGrR/p66Z4BxD0YRLU1w404466qhCuYUxYo81i4O9g7pYCuNAefs97WadxvWKlMc+ngjFLUSObIm8g33DLu+skta6a3OiDVJEHyHJKDFs3ft+I1tCllJnqR8n9ljkWfZ3CAZ4U5e1zZ6RV2x/rluXuYhRINVmiPTBBx8cCHVcvMsm1kLml8VNsl8xP+hL3lUQXZsTee3pPCmyhmO6Y9PhoGHioGlF88KmUDWFogfBu8XlJXLw/tXmf4tQTl02RoSKqkK6j2OK/biHZbK01U4f3G1+ssQTgRmFRVYV57ba2Ot72yJF5qZjwin/599Gkuxvwy/VfvDF2or1AtzR/KCxzMM6FaDNO1gnfJt12EtK8V6xHYZ6PlVsihRZH4oOEvYbtMmME+QTyx53JZUdPnwb1yusD5Ap9kyuBIj9160NqfuJ7KZ2SxIwLO5y8dxomxTxPe9mZWMdC9CpMeNsIxOUjdFSSy0VBOWy8eWbnCW33HJL5bre/dXOPfYoiq3hYVhXg2qjuSn77/l1XGWfZV1xtyHrF4s8FsEpU6ZMuFSW9YU9Fnck6rJPU5c4sDLFBPvGTTfdFNzdsBygvSeNf568lErF7/d3zoWyb5b1ZbJ+3xYpsnVPrCVWO1vDWBGLztJYFvXjxP6+2GKLVXJNjseYM5yzoWyf5mygzVj+8O7gbOC7tDmOX6OtPp4IwsR+ZT/nb76XqjdZ493Pd4eGFPXTyby6dkDkmYN9UCJMOM7EUqdNZnFCE5di6HXeNWrPxsIYvtpli3pYMDB3FSwzRRqjYehPSqAahnarjdUQ8Om8U5mJqr2lm0+ZhaRKttFu9qD/VsXp9CFToyLI9I+O3lCW/XWYEYIUsQf4GJth7s+g2152P9Gg29Pm98aaFMGUYdW4AcF84wPCxxP1IySY0I9ZFJ/OIpNom4Pd1XeXXRbZ1XZXbRfBzl1KfV613f65svuJenmn6nQLAe/CmrrfqFutrd+aUViH9Xv9fzV8queuXKrcT39UtzkEfMa7VCrv5r40OW/CikusT5674eS0ani+6uOJyjI2D0+v0i0da1IEJGbB8Vk82CAgMgQ0WypwXPcIhMaEXNdFyCaU7nyYdhIazvjOWmAhQYNcetcLzsO+GLvafjLLoEAgOBP3AAQq/Nlx7xkVi15XsR9Eu3ClgPQS7G/xJbgo48I6rG6rg8BtmL7BeUbSBst+SJKgTTfdNCgCh9Ulapjw73JbWftYAogVQnFLbAgJXJgXsiR2eeTab5u5T/uzAXdM0vT3ErbSfov7/8LYkyJLgHDnnXeGbCL4cnNgkNyBlLa+kI4SFyL+rlosfSI+vcQF6M6H/0OOtKQEE8c447NKIHgdnKuOh56rhwBkaJNNNpkIqLTaECSy5aSSONT7gp6eTAQgRCTcIOMRh50VYhdImEH2Iy4eVRleBNDsEqyfOs9Y22V3AA5vz9XyMgQIESCjL5Zhn7CDjHdkNyO0QMSoDMXR/D1Ka5KMxGeDZU4lc22cMXUUkBh7UsQgkuGOG8gJYiaehYxNZOVJFaw9VU2wlsKYDYeAZ39J3ihMnn77wGFNWmALRrb38f9tt902maa032+qfj0ECBDGYhoHjvMW3E6rpsCv91U9PSgE0ASSTdNShdtatGsPSOlbJeB/UO3Vd+ojgKcCng4+KYvdrbPBBhskU37X/4pqDCMCeAH4qx38+ie51Pbbbz+M3VKbG0CAucB1HpwNqSRBo3o2iBT9b/I89thj4T6PNdZYY+Jytn7mFRMKqxIC5QUXXKA7H/oBU3WFgBAQAkJACAgBISAEhECLCIgUOXCxGN13330hR3wThWwnpEj0N4o38V69QwgIASEgBISAEBACQkAICIHmEBApag5LvUkICAEhIASEgBAQAkJACAiBIURApGgIB01NFgJCQAgIASEgBISAEBACQqA5BESKmsNSbxICQkAICAEhIASEgBAQAkJgCBEQKRrCQVOThYAQEAJCQAgIASEgBISAEGgOAZGi5rDUm4SAEBACQkAICAEhIASEgBAYQgREioZw0NRkISAEhIAQEAJCQAgIASEgBJpDQKSoOSz1JiEgBISAEBACQkAICAEhIASGEAGRoiEcNDVZCAgBISAEhIAQEAJCQAgIgeYQEClqDku9SQgIASEgBISAEBACQkAICIEhRECkaAgHTU0WAkJACAgBISAEhIAQEAJCoDkERIqaw1JvEgJCQAgIASEgBISAEBACQmAIERApGsJBU5OFgBAQAkJACAgBISAEhIAQaA4BkaLmsNSbhIAQEAJCQAgIASEgBISAEBhCBESKhnDQ1GQhIASEgBAQAl1F4D//+U/2ghe8oKvNU7uEgBAQAkkERIo0MYSAEBgoAv/+97+z888/P7vjjjvCd9ddd93sne9850DboI8NFoF//vOf2amnnpr99re/zWadddZs/fXXzxZbbLHBNkJfGwgCjz76aLb11ltn22+/ffbCF74we/Ob3xzGnPL888+Hv1/ykpeE36mMHgJ33313dtZZZ2UQ4wUWWCD72Mc+ls0wwwyj11H1aCQRECkayWFVp4RANxF48skns4985CPZ7373u+wLX/hC9tRTT2Wf+9znskMOOSTbbrvtutlotaovBO67775sww03zJZffvlAhm677bbsi1/8YvalL31JY94Xst2s/P3vfz9ba621Cht38MEHZ7vvvns3O6BW9YzAJz/5yeyb3/xm9olPfCJbccUVs4MOOiiQ4uOPP77nd6qiEBgkAiJFg0Rb3xICY4wAmkMOyl/84hfZXXfdlc0999wBjRNOOCHjMP3e976XrbnmmmOM0Oh1/V//+lc2ZcqUbI899sg+8IEPTHTwuuuuy5ZbbrmMv2UlHK1xP/HEE4NQ/LrXvS6bf/75JzqHlQhlyCtf+crslltuyV70oheNVsfHvDef+tSnsm984xthH1922WWzX//619miiy4aUPn73/8erIMqQqDrCIgUdX2E1D4hMCIIXH/99eGwfPe7351dddVVE+4zjzzySPaa17wm++AHP5h9/etfl6vFiIw33fjjH/8YyC9/zzXXXBM9M7L0oQ99KFgKVUYHAQgwhGibbbYJnYIM4T7FOocI/+AHP5Dr5OgMd+iJWQex/mEFpECK3v72t2fzzTdfsA7LXXLEBn1EuyNSNKIDq24Jga4h8PnPfz64yb3rXe/Krr766olDEi3iS1/60hB3gOAkjWLXRq739pi2+MMf/nB22mmnZS9+8YvDyyBFCy+8cJgP3oLU+5dUswsIQIDWWWedbJ999smWWWaZiSYRR/ie97wnw5qg8e7CSDXXBjwA1ltvveyyyy4L5GiNNdaYIMLEEpJwQ4SoObz1pnYREClqF1+9XQgIgf8hgAYZLSKk6Mc//vFEdiojRTxGkK4C8Ednyvz5z3/OllhiiZBgAVeqr371q0FowkKEGyUaZGUpG53xNsIbu8ZBfn//+99nxx133Gh1Vr0JrnEotSjPPvts9rWvfS375S9/GayFxBCaC52gEgLDgIBI0TCMktrYaQTQhuEekucjj1acP3Zw5HWGwwWNKgXN2owzzli533Xr/uMf/wjfyNPgVW1z5Qb+90GLNYgtReZixbtM01jnvV14FryYB2hNbex6ybh0zTXXhPokJSgqNj7MF76Dda1qjAbtpF4vdXvB+qabbspWXXXV7Omnnw7VIUnzzjtvyFA1++yz9/LKTtRhDTEOWEfAvs56tQ5Q91vf+lZQBLzxjW+s3C+Ez5lnnrny87ST9lqhrYPS3qPoIG7s3nvvzV796ldXbnOXH/zTn/6UXXvttUHB86pXvaqwqaw3/lBYq2DfqyKA7xKHx/5Q57t8jz2i1+8WddDconnm4x//eFjfCy64YHCFvvTSS7Mf/vCHwY1ORQgMAwIiRcMwSmpjZxFACCZr2h/+8IfgL8+BgEacw2/q1KlBQ/7d7343I+saLmPmPuQ7hMCCJvWUU04Jz1Pe8pa3hAOGdKapOlY/Vfetb31rqJdXF2H4fe97XzggU22m3QTLkhkOi05TwhOucQh/4EOgtb0X64Flnhu2ZAuMP+ML4fvOd74ThoVA8rXXXjv7yle+Ukvopz6uRwg8Rbj/7Gc/CxY3Upqjfae8973vDRm/yubLT3/60+zQQw/Nbr/99mnqkuCC+VY01/pZhFgISNFs5fWvf3129tlnD2WSBcjFSSedFP5g7aKgFcctDGzrlN122y077LDDss9+9rMhG19Z4duHH354qPPggw9mL3/5y8uqhDbiumrz0+YLllvWf5uF9fHRj340EEeC8EehmCsgawmXMdZeXoEUMK48a3sD6/Too4+eJsauCi5VvwvWjDXja/OTPYl2HnnkkbW/W9a2yy+/fCJBDvOMjHMUiOAiiywS/o0bbVt7S1n79HshUAcBkaI6aOlZIRAhwKG/wgorZAiqeYUDCcE5JYA89thj2corrxwOL4RSYi8gVGiPEXzQRPLvlEbd10UYJtU1dXFfgGjk1YVI4d9f1mbLItTkoCM0EoyLlpWYA/pAumb+TxkmSxFjT5YthGOIDP9mnB5//PEgkPAztKVVSCWEETzIzlVEioxcIICTmIJ3/+Y3v8n22muvDFc16jJfUlrkuC7WDYSVvffeu7RuP3MAwkhK3gsuuCC76KKLggKAtlIQqFZfffV+Xj/QusxXXIJYO4yBrdef//zn2RFHHBHIDanmqxTewRql5JGiv/71r9mPfvSjYIFkD+EPc4SC5W2WWWYp/BS4E8fDHoSwChl94IEHJtoIMS1Ln12lL3nPYCXCAsZ3RiWWCBxtjItIEfs5ewMKLpKJEDOJsoOfUW688cZarmWksd9zzz1DXUgPipdUef/735+dd955ye++4hWvyG6++eZGLXY+BTtWo3e84x2hWZ7EnXPOORntUhECXUdApKjrI6T2dRoBNn7STOcRDA5EUk6n3KEQdEhFDYGB1PCcd29AUEIrzGHC3Q/+d3wXYcfqInh6dy2rm3pvGSlCUIO8tKVFpq0moGFBow+Gz9/+9ree3JDyJgnjgsWrSJvbywQDQzTgJuxBRCEZaGmxepngg2/94osvXvgJ6kCowIGSR4ogzhDwN73pTdlPfvKTaeYDliOIGIXvIwz7+UBdLIi8Gxc9P5e8kJeq2ws+VscEJp96GwJIZjIESiyrEIoqxLGfdjRR9+GHHw4acSx0WAFZfxTmwpJLLpn96le/Cpm2IJplrnRYfJZeeukQe0HJI0Wf+cxnAtmi8G4Ea9P+l5Ei8MUiTGHMyfpoBeEcxQjvo92vfe1rm4Bounewv7GveWG56Q+xF0K0sVK04R7m24tHAOvPSH0eKTrwwAODooIxo+8eX/sd6xFiVDZX+P6dd94Z1i57GSWPFJnlsei7zIMrrriisYQ2ZBMkTpDi929PinxWuqbHX+8TAk0iIFLUJJp619ghYKQIVxbiJKxAhiAXm2yySe7hgzDCxXaUlPD80EMPTbwTIdi0yvY836DgQuW/zc+K6hopoh6HpxWEd4TuTTfdtHVXB4trgUigfSdtM/1p8v4SyAYaWsgBpKFJgclIJ+OH5tUEG4QCAovNrQ33GVziioq5zdkzeaTIvslzEGXckYxM+LnE74k58a5VJiz1UrfXRQ3+WFKwbPjEGrzPZ6xqmgj32t6iel6RgMUDJYWRTsYa9zkrMfap9/rx4Pd5pAhhGMsO5HGOOeYIVj0syJQiUoSFCVdV2oZF4dvf/vY0xJP+rLTSSsGtC8WJEfImsWONk2GQ8ac9ZTGVvX4bvLGYlZHEXt9v9djr11133UBKbX2nSBF7ue3NqXFlvnMFAcTKk+u89qWUWClS5L/L/IpdORmDl73sZeEzWI0hrE0Un2jBr2W7l4455t3qmvim3iEE2kJApKgtZPXesUDASBGdxc0FQYk/COBlQrjX6qW0y2iTca0zVx0viOUJ5QY6dd/2trdNuOWhrTUhzg7ZXtrc76BiWUFIou/WnnPPPTe41jStTWyLFHkCkhJqbFwhTMyJOeecMxc2kkwQhI4L4VFHHRWeS5Ei+gI+FneC0AUZs/TlngTzDgQRs74hnGDVwEJHKatbxbpVZR6wNnA1o+2QwzjxBO2BrN53332tk/Aq7S16xsdExfiwnrAW4wLKPIasFq19c5vbeeedJ8a8SkyRzecqpAi3TdxpKal3+3dhLcIK1jRpMdc52tDm5Z2DIkVYg4mLw3K37bbbBmxjUhRbihkHMi364vd1XBdZG0WWUtzmWPco2E499dTwqpgUxd9NKWPi79L2sjOqyrqxO8cgi/4+MvYdrJEo9FjruBOqCIGuIyBS1PURUvs6jYBpwziUSKRQNQOYJy0Ir1xmGgeiem0ummiyN2GRqFrX4oYQgskAZtaMXtvc70DQbrJPoSG1hApmMeBAxZWkyexUvBsNJaVJS5HFCvBeLITzzDPPNNAwF5577rnSjGTmNocwjeCAcErJsxThhkP8zTPPPJN9+ctfniZxQWxt+stf/jKhFead1MXFBW16TOTK6vYz7rg1IRClxhaihjsQwmYTwlk/7Syq64VJiC7ufvFdWqxVtOQzzTRToYBrbnO4pmJ1MCtik6QodsfEBc+IlO+nt1aVJQzoBVsfa0K/2wq0HwQpwm0OS/qxxx4b4rO4l4cS4wb5W2WVVSbcqVPkJLb8xGvVY21uc6x39khTisSkiO+S4dESOlT5LnsU87WJYslyfOwQ/cRFlORBo5R5sAm89I7uIiBS1N2xUcuGAAFvKTJShFBiqZnzusCBZO5NCMEpQhXHK5lbTj91aY+3FPk20+4qwikCAm5uCPEE1Zqwg1CIrzoWAQK6Gr9atQAAIABJREFU8b331gG+u8EGG4RMfDwHOdp1112DYNFG2lbGAOtKk+5z3j0O4QgNOwIyQgn4ofGtmvrWyAiCzJQpUyZITFGiBVxg+I65wdj8gujssMMO4b+41mGRiy0zeXV9ADeuVHF8Gu9EIEO4YVzN5ZOf21zgW8TVxATRkoEwrxCYSNXL+B9zzDHBogLBwC2sy8W7JZlmn7mFe5iNeVUrC1gjQEISWUMW69YkKYr3jbx3e1IUu1vRLyxarNGlllpqIiaGfmMBuv/++8NegeIlnos2lig+LBnAMJMic5sDE9wQSXZRRIqwDKO4SJEmfhaPT158EPulfYfvEjNYRIr8HEyR3JiMxd9ljEh8wrhC7Ox9zPN77rknZFOdbbbZQnrtWClAn5gn1OW9KLewahEriScALtkqQmAYEBApGoZRUhs7i4Bln6OBHChnnHFG0NZxKKJZxIXFC5HWEe+ClScE825cLxAm/QFbtS4BtZbVzcckFbUZIrP55pvnJgfA4oBgyDuwOpABDU0/QjiHtvn243Mfx17QBzKl7bjjjkGwIBMSgeAEJLdxYau5nPHdpixFXkAmxuv8888PxA7XRkrV1LeQK4QLAvfR4nt//7KU3PFigJgtu+yygbRgFWQeEqNVpVgq+aK6lsGMsTUrFcIOVjgSSjC/IU3Mh9iCRRvIxkfCEAQ18ON55uZ+++1X6FpYpf2DeMYTTgjGxhtvnGF9YU1RLB03CSuK3KDoO/1mvWAhYg10hRT5uCLWzWabbRasuRQIL0QZArTLLrsEoZd5BmliDbM/pTLY4RaJCy99xI2sl3u7qoxv25YixguFA3sp+yMEJY8Usa7nmmuuiTu5qpCTlIsd/TZ3vbvuuiuQUuIj80iR3z/8WeHxg9wQR2ZJgfx3WaP8DhKMezPXJqCo4l4kFEsQIvY25jAJIrg+Ir57CKsvewJ7IXsBc5324h6sIgSGBQGRomEZKbWzkwigISM5AW5UHBoIFAgICAAICxwwuFtZPId1wrssFZEiDhk7CM0lwmeVwg3HLvz0AJnrWFyXZ0xTCXGhzRSEc9oMueHnqUBdNIkETtMfiA3JHTj86C8CA4chLhwUhAgEZggDAnHcNrSWFKxMbQlLbbjPxdjTf7DbaaedgivYmWeeGUgOQuOVV16ZK/SDL0KnJWmoS4oQvhBYEMxxUYOUMBcg5XY3SN6CSdVlDl588cXTtdfcd0jzzdxGMKYw5swTtMB879FHHw0kGIVAXnIJxpy5hza5LVeqNjYJb1HZaKONgrAIOSIm6LbbbguZFCE4KSWAtcdc8CCEkEwwaIsU8U3f5pSlyKeT53nmDmPHWkRYRsGB8Myc+PSnPx2EZAgQ7eeuG1K+I6yz91GYJ6kMdmYhamuN822IOm1rI9GCuc2BoWV3LCJFZt1hbCkpUgQmWGLM1S211xIjiFINJYPFhhWRopjwpL4bu/b57/JvlG2kzd9qq63C2YXSh32F7zLXIfysd9rDfkG8ZGwxos/egjoMWSXb2DP0zuFFQKRoeMdOLe8AAv6eogMOOCAIIz74HWEDYhQLJl64rkqKOIyxrMR14xTLwBKTIqtrvzMrUtxmyB3tSbUZdyfiQBAUOOzIssZzECsEYZ/y10gfLnYIV2hYB13aIEVob0nFbQX3IAiDxZIh9JNxDaECARIXqZgAIAyBlbfe1SFFCF4Io6S5tsK3EGbJUlZUqMu3sfhVqWvC0iWXXBJSTVt6cUgfqXjJomXFBPE4hm3Q497k98wF08fksGbsvhi+RUwId/FAEvMyueE2xzsgEmbFa5MU2RyjfSlShOCKy6alBLc9iPlLcheIPn1kzTOfKTHpizPylSWYaHJc/LvaIkV2yTVky7s3F5Ei2uUtiykFQWzViUmRuevxLr+3FJEinvVusKnvYlH2xNW+a8TPLJik5bdshMRQmVsu3/Btr5I5r60x13uFQFsIiBS1hazeOzYIcDigUUvFYviDimfMla4qKcJ1wQQyIzYceARpU6paijwpskxF1E+12WuZLdOWufJRB+GHuAITkNGUW0IDG3Qv8FVJS93GZGmDFHnBhDbH97/wM28FjN3J0NbiUoSlxax4sbBRxX2O9yA8PfHEEyHdNWQV1xeseGRKK9LQUheBltgehD0yalGXcfcuYDyHFYg+834vIGMZxGXPF49NlbTUbYx50++ML2fGIoEQ6dOd803fd7/O+R0aeLTuzAUjGPy8TVLkCQvua1h8PDn3bqC0xeYc2cOwAPN7FBl2fxaKD6yB3jLgY2OKLAdNj0n8vrZIEUoG5j3KB6/UKSNFYMhFzJBk1qPP/EnbfSZD/h+TVr7LmjR3PetvGSmC9OCqZtk9sSB7C50na/67fI/LaEmGwPN2fxYKH/ZuH2fq029XiYNre+z1fiHQNAIiRU0jqvd1EgEE1X5dOBAM8i5hpdOpJAVeQPbpequSIu8+l7IU5ZEic+uzmKKYmCDsWfrweMB82+xQh0hxmKNdBgN/sPv0z/YunxIYYmiuJ01ODoRNYmGKCu2g7eaCkvesJYYoa58nuTybyuDkxzy+IwZBAhcUsgESe2CljqUo1UasTubKlLqXpqhfeXWxJjD/EMZwl7KLhlkHCH5xcgGflS81J8qwrfJ7xhIy0e9aXmCBBYJ1p6zEcX15hNULrFzOiZBJMbcmMIvvCmqTFPFtFBcIyRBeCBkEB7LMnCXw/fbbbw9uvxRiiFgrBNQTJ0f72UMsrX9qTvksmHlzogzfst+DP26mReNNO0jggjWzzC0TC1iVZDJGMLD82VhaW8tIEc95SznPs0/TB9ziIMiQ69TFvXY5LPtE/N0yUsR3cWEmDhULPfs44++/y/qxO5ZMYUNbSZyBRcin9vfz2PqOVXTmmWcO/81LEFQ2pvq9EOgyAiJFXR4dta0RBIjtsFiXfl7Iwf/II49UuoHcvmN3kvB/n1bbC0R5glYesfFCd1VSVCflrn+/b7P1CUEFjTfxR5aBLU7t6q1N3krVD/6+LpYINNp2s3y/701pwlPv9AIRwg1Z9OIb6X3WLfBD0IRA2FxIjUW/pCh2h4pdvIrwieumhCEvAKfuVvFpq/kW2nsTnvodG18ft0QE+H4LVs5bb721VIiO7wZCWEUDHwvWXmD1+KCdR7iFoMTJL9omRWCElYNshAjCWIzoN/MTywdz06zQqbTddQTk+BLjfsfH6mNNBdumSmpux+9mf0MBAGlJXZVQhRTxThRHRmwglewxYE+cJYoRS3hgCiu+SwIO3PVS361CivK+S3p0vsuenacoo65XZsUXhvN7rzCDMGIFq0Iymxo/vUcItI2ASFHbCOv9nUAADVe/BY1bnH6WYHcu8yOOIr6kz4RDtIJW7E4KNLTzzTdf+HERKeJSSDs8zS3H1y0iRb6uv3ASNxjaTBahVJu9sEb7YmuI3bXCO1OXVcZBv7E7Ub/jYPVpF0JrXkHI2H///cOv99lnn0JtMwd7lTs7YgtfSnjxpMjwQ0NPkD7a+ZRQTz9MQEVYRZBlvmH9sQxllgY6JmF8I7ZoMLakffZ3UzEuqboWO2HZxuK6vN/PuZTlz5O6tqwGfg31O4cYj6pptMuSFtAWH2sGWWZe4GpEinKICD+jMKY2Z7FyIhxTWMf2zJZbbpm94Q1vmK6LMUGD6KAYKCtY9S688MJgVbVkGQjpCNk251IZ0LyAnLL8FVlEy9pU9fd251fR8+ypWF1RWMVujXE99u8yK6PFY7EGSTARjxvuaZYR1D/DuojvqSMBBa6LprwhHhELJevayInddWYWW/9O337OATsL7BnwIbNm7C5r34Vg8QwZRcnwaXfX2Zr2KfT9/VZ5azjPIlp1PPWcEOg6AiJFXR8hta+zCCBMErRuAe+p2BkOPu9yZ6QIIRLNMYdl0eWt/hDzdQlw58DLqxsTE6sbB+mnYmI8KYLQIVR5wuAF5FSwrdcwQ/wI0E8J420PbBsxRbH7SCoDU4pUQrpIeeuTI1Tpv2nwLVsYwg6xPIceeug0wh0CDa5u/NyKkVmrS5A/deNYg6K69q4yAdmTxRRRrtLXrj7j+4alKMaednth0ZQcrHHSmNcteVbdmBTl3W9T5XsxiWbN+iB8izskgyR7AIQjJpFgYZklU6nYq7SjiWeajinylqA67Su6DBU8jYxZXKGlp7fLgEmqsP7669f5ZHi2zndJo42SCiUemS99jJhXdqXcJeMzxSvaajdaFYRARxEQKerowKhZ3UcgziKU0qB7bao/iHzq1rwgZe+S5MlPP3XjNqeEmTJriBeQU1Yg//vJFJbaIEVecEhZVJi1nhT5MScVNm1KFdwBLcYIq4FdoojQgvY5znpHcgWLIeJ9EHSCwi1rlBdk4wDrVF3LmMe7YiG4ioDsM1a1FU80WTsCcR6mUU8FzsekyDLQgRvrLa8wxhtuuGH4Na5NZtVEAZGyZtQlRWQYxEpBRkLuE/PFu0NaPJF3g/LzPM9d0uKNUoqTQY5V06SItQRxSRXGAKszlnYK+K6++uphvLziiKQk7I3cZxQnJPHzybvzFX2XfWPfffct/S57L99lXnGxti9l7pB1fp+aE4Mcc31LCLSFgEhRW8jqvSOPAOSEW7zRmBHAy4FEQLovdvElP4v92b2wmtL28TOsSViEeqmL5hdLVBz4bal489pMBjLzhY+/610sEIZwxfNWIJ/1KqWNHOSkaIMU0X6fbCGVZc0T4aoZmmILFK40XjD2Y0IbYqtkfFs9gi5ECreaODlElbrMZROSERBNw5zSIGNJxCWIe5rySMMgx73pb1mKZMhungLDu9hVjd/zyofUXTVxP+qQIsaMLGIkI6HEyguffS6l2CgTkP0cZ575rHpN41/2vqZJUdn3ymJ7/FpOuaFZkhp+51O0F33XLqLOu7yVut6Cj4WebHLeumfnDb/Dtdan06e+V2alrJC2j9Bu3Pgs+2gZXvq9EBgmBESKhmm01NbOIcBBs9dee4WLOiEbvnhhKnUA+hSqKZ9+E5qoG1+OSF0EUUgPWslYE1xUFwEMtxju0FlwwQWnabN3keDwvOGGG6YJEPeuH1RE6PLpas8666zgv25BxbGWdJAD2BYpsgxRYB+7DyK8gC9uRZDGVIB9CgMT7PgdsSW4NXpS5IVYLBFxKnWEWILdISYUHyTdT91Y2CLeCXdIc7uBjJG1ivZAgrnY1GfVG+R4t/ktTwJit6HYouvvtClqk3fTqkqKbG7xXkgaGvtU8UQ2XqescSwYxJDl3avkBeTYHRJlDVnNIFNdcJUcJCmKiWmKAHtCGSuO+J3dXVeHTMakKDX2nhTF3/X3z6W+663BzJd4X2PO4yrO/qL7idrcafTuyUZApGiyR0DfH2oEEDCwFmExQANIljs07AiLBEwTSA1BIPsPgkRcyAYEoSGgFyHJtG+QINJIE5ifIky8x9KvUhftv5GTsrokhyC+BSsCFojVVlstCOC0eeutt57IKod7T5ELBm0gWxIuW7PPPnt28sknZ3vvvXdwEeNiz7juoAe6LVJEP+zOHlLfkgoYQYfvQQoYN4SHspgP5g6pypkvjBkCFoV3brPNNuHnECQu7KXgirjjjjsG0vXpT386YE4KYt7DLfTMJQrzkOxZvli67FTdjTfeOLQ1r66/n4i5jCBNdjvuSDr66KPDfUvMW5ILzDnnnIMe5oF8z1tIcZsELzTtrBkIMIoR4ofQzscaeN9AxvmMM84I64094Y477gi/5p1rrLFG+PcWW2wxsZYRRhFiraDMMOKL1Q4iTNtIuID7pAXc+wyRuHrZ71j7xKmxdxQRGpsvCNdYqol3oX0QYmLXmKsE+zPnyhIXtD1AgyBF7K+4hYI1KcunTp0ausX6RPFjCQ9wdTXFEUTkoosuCtZFMAJ7rPOQyaoWZM4ErDK8n/3Vxp7kK7bfs4fzXdxzuVAbPPx3GTMsx8y1+DJWG5s4vTrtRTHD+1CMse9wFokQtT2b9f7JRkCkaLJHQN8fegQee+yxcE8GhybCDYIEB58lUUBoRGjOKwidCC0cRBygHIB2ECLgFrmm+Lr2DauL614quxzt4IDG75w2o+FH2EUA49ClDWSlSll5vAaZAxIhjcOWPtN+NNdHHnnkdOmHJ2OQ2yRF9Mcud0RoRItKVioyfIEl42JZ4/L6TrwJAjT4xwUseR+Cp7/kFQF5zz33DL9DIGOuMG7MNaw4uLjkzRfmEu+yunyDecqYUxfhKp4vXoNMv84888xgCaTwTayJtJEMWHHmrckY8za/6a0EEFfGjfEGT/59yimnhEs7iwpkAsJqWc0sEx11bDwgLBAeCkIxJDs1R+w7jAOEDAuVD5w35YddHmtzhb8RkvMu+fUCMnMY5QbKDiNIEDEulUaZM9mECAwGQYogMZBYxj0eM9rAOsJ6b3FFEIlNNtkktM0u7GavBUPWGft9lcJ3UU75DKZWD+x5J/uIuckRR8YdVPF3Wd8oRPK+661bfBNCZ1cuML+YjyhwUvf0VemHnhECw4KASNGwjJTa2WkE0NZzIKFRpHBw4qKCkOQFlbxO4JJF0C4aSA47hCaIls8IVacuhCe+FyWuj/CDRQeNoBVrc+oSRLu/A8uQBeNTj+xJFCxmeUHikzF4bZMi+oQghFbWNMdcCsq4lWFveFhAt0/VbIImcwiiEafbRSPM/Uh+3AimJ+V3WZpp6mLNspglvkHCBiycqbreXdKCq/kZViEuvF1ooYVKvzkZY9/mN32aZfBbcsklgwBcZZ1bWnXaZ2Pux5t/s/bsZ/Z8/IxlM/MCeirDI5Ys3OSYK1geIbHsDUX7iheQLXkMP7vttttCX7EGVulrm2Pg3z0IUoQrNFh6EhiToxgT1hpEGdJMQWHGGq2S+t/6xzf5ts0XO1vs97Qn/i4k6bTTTps4SyDUWIOLvhvfT4RCDNdf9jUyoDK3Rl3pMaj5qu90GwGRom6Pj1onBDqDACRq4YUXDhdBojmEAHb54j4jRQgvqTTKnQG2ww0pC7jvcNPVtB4RKEu/3uNrW6uG6zKWsrYuDG6t4R15cZxdMr6CoSPNVDOEwEAQECkaCMz6iBAYfgRwwzFXkFT68S72kOxOaFNTl2F2sb1da9OwCchdw2/Y2hO7S3qXsK72hTYT84SVuwvufF3FKa9deDmQqRAXwFR2yWHrj9orBPpBQKSoH/RUVwiMCQK4cJxwwgkh0xgFdxximGLXrjGBY+S7iaDJmBPPcs455wR3SVw8ccHpsnVw5AemxQ5iWcXlyzLL4S4J2WCNa8xbBH4SX80axxpsMW7clWXJX0QwJ3Fg9OlJQ0CkaNKg14eFwHAggLWAlMsW0E+rSSyAEFWWRGI4eqhWegQYVwLpr7vuuhDITSHA3DKdkX4+Fb8iFIcXAUvTTYA9FgMKMWNktSPLGUlbpAAZ3vFNtfyee+4JGVIhRT7uCQUIiTjiDJaj1Xv1RgikERAp0swQAkIgFwEsBmRLIvOSBRZbkDeVTj311GyxxRYTgiOEAAIyaaHJrGbFxpwMdFgPFHQ9QgP+367gJkeyiFQh49ghhxwi17TRGvKQbIX06n4/t+Qf22233aReyDtiUKs7Q4SASNEQDZaaKgQmAwEsBz7blf+3hOPJGJH2v8mY8yfOesb/5UrVPv6T8QXLcsa3Y0FZYz4ZI9L+N/PGXFbB9rHXF7qJgEhRN8dFrRICQkAICAEhIASEgBAQAkJgQAiIFA0IaH1GCAgBISAEhIAQEAJCQAgIgW4iIFLUzXFRq4SAEBACQkAICAEhIASEgBAYEAIiRQMCWp8RAkJACAgBISAEhIAQEAJCoJsIiBR1c1zUKiEgBISAEBACQkAICAEhIAQGhIBI0YCA1meEgBAQAkJACAgBISAEhIAQ6CYCIkXdHBe1SggIASEgBISAEBACQkAICIEBISBSNCCg9RkhIASEgBAQAkJACAgBISAEuomASFE3x0WtEgJCQAgIASEgBISAEBACQmBACIgUDQhofUYICAEhIASEgBAQAkJACAiBbiIgUtTNcVGrhIAQEAJCQAgIASEgBISAEBgQAiJFAwJanxECQkAICAEhIASEgBAQAkKgmwiIFHVzXNQqISAEhIAQEAJCQAgIASEgBAaEgEjRgIDWZ4SAEBACQkAICAEhIASEgBDoJgIiRd0cF7VKCAgBISAEhIAQEAJCQAgIgQEhIFI0IKD1GSEwrghcd9112ZQpU7IXvvCF2Qte8ILsP//5T/bvf/87u+WWW7J3vvOd2QwzzDCu0IxNvx9//PHs8MMPzw488MAwD1S6icDzzz+f3XPPPdnUqVPDulxyySWzueaaq5uNHbFW/etf/8puvvnm7KmnngrYr7TSStlLXvKSEeuluiMEuo2ASFG3x0etEwJDjQAH/corr5z95Cc/yd797ndP9OUXv/hF9t73vjf72te+JlI01CNc3ngE7XXXXTe77LLLsr/97W/ZjDPOWF5JTwwcAcbpU5/6VFirrM0HH3ww+8Y3vpF94hOfyI4//viBt2ecPggZ2mWXXTLGgML+OOuss2aHHHJI9oEPfGCcoFBfhcCkIiBSNKnw6+NCYLQR8KTIevrKV74yCFpf/OIXg+VIZbQROPvss7MPfvCDoZMiRd0d689//vPZd77znexHP/pRNscccwRr7nrrrRd+tvvuu2cHH3xwdxs/xC1jj1x66aWzE044IVtmmWWCkujGG2/M1lprrezPf/5zhqUdi7qKEBAC7SMgUtQ+xvqCEBhbBIwUoXl+61vfGg58LEdyCxmPKfHoo49mb3vb24LWG+23SFE3xx0C9J73vCf76U9/mq2zzjrZt7/97bBW99hjj0CG3vWud2VXXXVV9qIXvaibHRjiVn3/+98PBAjcv/Wtb00oigx7LOwQVWE/xIOspg8NAiJFQzNUaqgQGD4EELbwjd9zzz2z1Vdfffg6oBb3jACxY+973/uyD33oQ9mJJ54Y3LJEinqGs/WKuGrxh7Eyly2sR/wMpQYCu+LBmh+GQw89NFjiKH/961+zl770peHfRpb499///ncpkpqHXm8UAtMhIFKkSSEEhEBrCGApghTttddeQRN9//33ZwsssIDiSlpDvDsvPuecc7Kvf/3r2UUXXZStuuqqIkXdGZrclvzzn//MXvziF4ffm1vXHXfckX3ve9/L1lxzzSHowfA18cknnwxKo/nnnz/bbbfdJjogUjR8Y6kWDz8CIkXDP4bqwSQiQGAswgN/Ex9T18UBSwr10cDWrYsAQ+Hbvbqj/eMf/+i5bhXYzX1uvvnmy26//faMeCICuLEgHHvssUMfU1QXP6wnYEJhzOto3nupS52iuC3mX502VBlznjG3OQLIZ5999olkG8NqKeoF+zysHnvssRAzsvbaa5fCad/Flc2yN5ZW6vMB9pUnnngi23XXXUOiBWJdtttuuz7f2o3qZNajb8suu2xpg1gb/GH92J/SSg0+8MlPfjJg/+EPfzg788wzh36vbBAavUoItIaASFFr0OrFo47AL3/5y+y4447LfvWrX02QE3zDN99882yeeeYp7D7C9EknnZRde+21gSRAbJZbbrlsxx13LK2LKwXpjS+//PKJ71J3p512yuaee+5KsCNs3XXXXdnnPve5EDdA/TYKQgUxRPPOO2922mmnBQL2yCOPZIsttljIRkfswjAmW6BfaHJxLbriiitKLV88/93vfjcj6cDvf//7ADUEkfmy9dZbT7jMpMYAEoWmPq6LUL3VVlvl1mVuffnLXw4EdMUVV8xmm222iZToaKcvueSS8F5cpJZffvnGhp+5hSBHxjncsHyyjWEjRYwbFi9c/1jnkBPmMu5kG2+8cem4x6DyPuY9wfPPPvts9vKXvzyJO88x3swZ9geKfXeTTTZpTZHB2JGBjvgv9jfGj6xoiy66aGPzY7Je9Mc//jEkLADHK6+8MnfswJ518c1vfjN76KGHwt5MHXBpcp0U4YBSAcz59k033TQS+E/WuOu7QqAOAiJFddDSs0LgfwggbEJg3vKWtwStIwLTz372s/Bbgsq5j4VDNFV+/etfZ1tuuWUQPBA6eJ6C8PX0009n+++/f7bDDjvk1kUYw6WFuq973etChiLqcoBClFKZijjoIWJoqa+55pqQUQqhi0KqZIS8tsr1118/TZtoJ0IzQsewuOWgPQc/7ttBQKbtCKyUv/zlL9nLXvayXPjoL3E14A35ZM5AWBh/CmN47rnnJseNumRuY3zr1mVcIURF5c1vfnOYDxCmpgpkkfVx6aWXBhI2rKSINUPwOwSGtYa1kztkzjvvvOx3v/tdSBxy/vnn1xJYybiIqxTlmWeeyWaeeebpYOe7K6ywQpgfjL19FyUK+wPz54ILLqj13TpjCzFi3rFXQMBoB2P6jne8o85rOvUs/SHj5Ve/+tWQNCJPkeH3JggQf/gZ6w9lBtbtvL25qQ7zPeYd5wntJFGJihAQAoNBQKRoMDjrKyOEAHfrfPSjHw0HJActbm8Izffee29wiUFgonzlK1+ZjhihKSftKgVigsBjBQsKmn+E7bPOOiv7yEc+Mg1qDz/8cBCceT9CJ6QLzTWH6I9//OMQuwPBuvPOO6ezGBEkvf7660+8b5ZZZglCGaVtUoRQHLsGWgB3G6l+r7766mAZaepSWPD97Gc/mx1xxBHJWVxEihAwcYOBEDHeEGiIAvMFQZOUxxTGjXHwmmiEY+YABIrYHF8XEsUczKtr41pEihD0mcNzzjlnY6sTDfcqq6wSyPlrXvOaMDcZ/9VWWy2QSbDinqI2XPYa68R/X2RCNDgznyAiZtFEWEWwpkCMcIWrcvcS65LxhVhRUqTIxhxlAWsa0mrfZR7Y/KA9WBCqfLcfXCADm222WZifd999d6MXuUK6/vSnP2VvfOMb+2lipbpeQZBHisAeZQ19xoKLJdXckv/whz+E9cfey/7Pc20VEi8cdNBt1TNFAAAfN0lEQVRB2Q9+8IPWiChj+apXvarRtd8WHnqvEBgkAiJFg0Rb3xp6BMgOhIsaWnvcwRD8fOEg3WCDDSaEVSxIr33taycegSihaST1bcoVg8P3TW96U3CtgmSZ0MOBjTsShAkidd99903jQoPwjTWCAx1hl1gA75aGKwxEa4kllgi31J9xxhnBBc+E57YsRQiVXPz4pS99aZoD3kgRrkQInU250DE+WG2aJnqQSoRhNPjgB8ZmGSwiRYwzfYRUkdo4JgP83MYBYY3UuxbobnUJvkZI8nUR2vl5Xl1PihCsGX8KwvTiiy8ehDoIfFPE0Sa4ZS9jjhph53d8HzJAH2k7Y143hm6QmwdjalYc+gIBmWuuuUITsBhC/BgfSkr5EbfVEo5YHX6fIkW4a+GqRYkJF9/FFdXmXdPC+Q033BDGxluaicF5wxveENoDsW/yItHPfOYzGd/0c76NMTa3ud/+9rfh9XmkCFfo7bffPjzDfGWd+GK/JyECpMKyxDXZZjL/sV9iIXr1q18dXo2lHStdU2vVXDjBgX1ZRQgIgf9DQKRIs0EI1EAAbT+uDZRXvOIV4XD0cTxYAKZMmTIhhGLRsYPWExvITyr+h/pYfBB8vLDNIY1AS4FMpYRKE7AhVLQrJmy+mwjUhx12WPhR0wTCvgNRw2KDIAhhg5QZ+WnLUvTcc8+FOI22+kTfGEf6VYUUeZxj0sO7mAc+/gxXJUgMpW7dWJAz7TiB5SbAgT/a76YErHjpQOTJMOiLuaHZXIPcrbHGGq21ocZyzn3Ur/N4jfh5beOEdr+oQJxwm9too42CMoWSIkWxy6Ofx3wXUm7zjvXelFCLi6DFFfrLQiEtRpKaJkXMb6xf3H9kioAmxs6/A8yw5ptSgO+lSBFxmsTwmJU/pegwJQXvR+lkFxI31WbcIyFeECKz3kKE+TdWtaYwMvdMzpGm5k9TGOg9QmCyERApmuwR0PeHCgHiJLDYWImFb++CwTMILghMCKFYMSA8CBpoSY2UeAAgRWiDEY7RcJow62MRPv7xjwdtYmxdwcXKXO74N0QkrwyCFPFtkjjQl3322WfCN95fFNl0TFHXSBGJLLzgEQtbuFOSdMKEMRJP4PKGxh7XwqK6zCeIL3EmFKvr5ybvyotdGdTCY06bGxJCXlPCXZvtp81LLbVUiBXE1ZQ4QG8p8hYb4ge/8IUv5DbHrL8QI2IBbd2nxsXcDxHisRjdcsst0wjIdb5bBx+f/tmTIv9zFC3M1abKIEiRkUyUSIyRuT7GMUWMsykj6J+/L8j6662HH/vYx0J8UlMFa9D73//+cFYQ32dKiwceeCAQsCYvbxUpamrU9J5RRECkaBRHVX1qDQGElkUWWWQi4PmHP/zhNH72sTALgSGtqpEi/PNxxTLCRNpbE7b4mR3a3gUufifCBG5KsbYfodhiVMq0yHVJEQIB7UCg9XEMaFgRIGkLv4tTg+N+w6WtuPURS4XmliBxtKxocCF3TZaukSJIn6VeZuxxefJucEUuUb4uAhPCUVFd5lVM2PshRWRHozCmflwRGC1OjDHPc4NjvhAXwd/EaFCwNhDLwL1FbVmrmppPrHXihQh091ZXiCxWBcsimHK1sjYggLImwYDxQUlQRIqol/ddT4KxUkNecLX1hXFBmYJgPdNMM00oTlh3tJu/Ga/Y9Yt5SD8hBqR/Zp6xri0WjP0Ggt9kaZsUmdvcpptumqFUMgt8ylLkLXRgyxjE8VqeFOGGzNzw6wIMiZECe594hTFhn2QOpLBnj8QaZ7FmMca4NqOMa2q9mKUby2DTliL2XzJbkoaf+WcFbOwKCTBoOxauyXmqd40XAiJF4zXe6m0DCHDY/vznPw9ChCc0vNq7yPF/r0XmcLzwwgun8cvHPx0NMgcf8QS45qEdRDNtPuUcpggkJkx565PvjrcUIYRy0OfF6tQhRQiy3FOCRYJMaWTfguAgpCPkmXBI7AyazvgOEIgjaadf//rXh4Mfqwjuc7ShqYPecGgrpsjjXMd9jnpooadOnRouv4xjimJrD8kILIjf6hILQd14LK2v1rY4Ts0EPSwSjB3acu6KIlaFi3SJdcvDP451IlYOiwnadsu+xncht0cffXQyYNtcQWk3c9gXXKa6HFNUtE1Y5kmeQelBHEhegQTjPkv6e/D2666uBY+9hEuQKSmlB8IolmJc/yimdCBBC5Zp5gPzAPda2h0rVnCzJN4RAZy4OeYdmS3pX5OxRIYVexpKoDbc55hv7Fm4y7FXM8+rkiLclCE8MXH0pIg+eGsSZAiijyUQfCFhJMKBMLPXgT2F/ZM54DOTYnFi784rxP8xXk0Vc8NsmhRB0lEAscdzrtFv2k3f+be5MPI73ATbimNtCie9ZzwRECkaz3FXr1tCwFxlECYosRbZJ0TwTUC45ABH8ETotOBme8YLRHmWIi9wceCRvSpP8KxKisiYRcAxWm6EJNKQc7Dzfn5HAgBceghExyqBAIwAGMczoSmE7FEWWGCB1u5Z6ZqlqGyaeQ11KoFGUX1flzGBSHvNtbl6Hnnkkdl+++0Xxg0tOKQUIovAgnASEzUENIQ2CBrJIbDyIcBQj/oIcQsuuGB26qmnBiEaEpdHcpjvqdJUYo0yfJv6vVlZSFACMUTwgyiQmj2PWLIXkFkNAdniCuuSIr6LgA/xRAFBwWqIoiL+LuMJAcf6iiCN2+q2224brHXEcO29997BikGGSxKg4AIG4fHv4Vus1VtvvTUoMbDqteXu2KalyNaGKQp8rGbKUuRjNsE4dZ+WzzrIM+YKa4k3cHfE5RVCSQFfsjDyN1cwsBZQVjEuPkkGmOetE97DWmlSedSGpQjijdXygAMOCKSQzJj8vc0222SnnHJKOCfAgD0KazZnCefHIDIPNrUH6D3jgYBI0XiMs3o5IAR8DEmRC5vXxPum4bqCQBMLjf7QRhtnd8D4umhGzc+dg58LCmN3Nnu+CimyO3KowyGOxcdcwdCm4t5lSQLswk6ENe8yOCDYJz4zTKQozkhWJzlElbomGEKGsOqRwQqSjGsQAf8Iebj0QYJsviHgLbzwwsESAeHx85lnSZZhRBuXIFxJIVhVMrANei409T0Ea9Kq271SpKcmPfsWW2yRa4k1izHKEZ8UpQ4pQqnBGPjvQnD5biwkW8IOLBW4wLH+UbJQfLIX/u8z3BW5/jWFX9572iJF5t4IeTTrehkp8nOZ9qZiilhDPhW3WfpYZ8RvogyaY445JlzDIAUok0jKYsXe0WYGu7Jxa4MUobSDaGOVIymEnQtgQMZUfzm4rQEULVigh9ViXIazfj+cCIgUDee4qdUdRABhA6sKghCHAJdipu5jgWwgiGJ14d9mVbIuYTWChHhiZAkYENAgJBw+XoNrqcLtXalMZx6yKqQI4QL3QDTPHPpo+yygHIErdpMzAXpQd6ikpsAwkSKftKMsBizuq7cS5dW1DGrMQ1wbffGZtLzQbNpw5jLWPrS6vAdixZxD6LPi52QqDXwHl2hPTcI1iuQoFDTcxGFgNUMJse+++ybv7mF9Q6QIoPdxP3VIkcUWxd9F6YDlz7vuYvGjXWjiUVBY8g4ET3Pdss57t8uYMPUEUI+V2iJFvBeFzc033zxBUMpIEV3wyWwefPDBabJCxgl0eB5lAC6RRpQgPFg/fPbIOCshBMHcxvKuZegRzsrVmiZFKFKWXnrpYDnlfPDkMZWlzytayi6+rtwpPSgEGkJApKghIPWabiHAxo/2r99S9aLJ+NBFA4brSVwQWCA9aNU4hDnAcYshHasnRykhE9cY0qjyHO+3pAoQKwgLWlF7B88V+epXIUVoPokFuvjii4MwjHscwgYCsr9DiT7G6YLbOuwQ6OL4FI8xv6ettJkED0WFmIFe3LjqxhSl2oBmHwKNG1bdTFb+EtAyMsUaSAU1+1gmr7VGmEdwg5Qzp4lrQyOemo9GmolTyUsT3+/6oz7tsCDtft5H4HcTbkgIzPQXYoQAzDrzZNFcaBmbOCtdHVIU9xUhnO/yN4oHMpLxXdYDpIi1z/e8VTllwfOXwNKesnTivWCOoIw1s6jgzgdphHSXuej5xAVF7zSyH8fmVSFFtJm4I/AhBguSafMFZQFWcsv0SBtYF6wtXE2xBqE48ncdpUiPj/uMs0X2gnOqDoqhosJejTslSq3999+/8FmUemVJEdgHwO30008Pbt+Qds4zCm3xCRfipEGTaalsCm+9Z7QQECkarfFUb/6LABsvBy4m/X4L2eEgG0XClLmZ2e3vuMDlHfLm4han5EbQ5TDxlzumDk2+wXMI8wiqWAAQAKjHO3GtoZRp7quQIhNI6QsHH5YDBK9ULEWckasNUuS1rP2OK/URCLg7pq6g3C8p8mmX62rqqUtANy5Vdet6zOILSE2As/gGhCEfQ5ESrn0a47ZIEcIsyUeIi+m3EO/AeDdRvFXBW2WZGxZgn1JK9EOKaHf8XYvlspgU9oWyS0i9YJ53NUA/GEHE119//Yx03k0UXLDI0BYntYnfzXdJfkNSkvi6gyqkiPc9/vjjIQkJwjokCKsOP0PIP/bYY7MNN9xw4rMm8DPmrBd/DqA4os0+WYMlfzDCgKXY7rxrAifeAVEjtsmTt37eXeZxYO8GX84Jf08f+HGGeW8JPw7WXrskuZ92qq4QaAoBkaKmkNR7OoWAdz3pp2FkWbMscHnvQWDE9x+NP+m386wPJkQSUI+lJc5uhGaVjFCWYSp1qNAGCNQxxxwTgqo5aBFIEW4QHO2eojILQlVSZH32AnLqDiQfp4D23Luu9IO/r0tfIUZFliKEfeJlIDzcM1NUiLGxSxLrtDEmRaSu5sLYKsVir+gH1j1crKqWunWNYDM/YuIXCycpAu7dJWN3ItrsheuypANV+5h6DuESt7B+C5rxlPU2773MszzCHF+yaqTSXCJZnwsttNB09bHAodigYO1FkCR5hR+jOt/1l/3yTuYmewCxfankGzzjNfltxYJhZf7Nb35TOGRgwV4G0Suy2EKKYvfP1ItxyyKmkrg3BHE/duCCFQ28yL6IwoxnSCYRpzVHwUPMGFZx3gHJoC4JYkyAT1nifVxSHKtHe+M115aVhLmYl96bdjC/8E7AUu1jpFKYklAlxqdoUP05kLq/K04rTyZXb0nqd42rvhDoFwGRon4RVP2xRsC0simtPUG2WFbIxEMx8lSVsJQlS7D7gSxQ1SdviN1H4kGqS4qK/O1930zoKkpT3OaEmYyYoqqkyDTJCFsI1T71NkIbJAQtdUoA9HVxN0Ios2J10c7jVkUhK5pd3puyBsT3I8WkiHeau2QqRgyCBqGzxB4+m1ab4zuod0PEIDYIxJCImEz5S01pk/UfrBGo6xTiD7H4kBTFvkugOim1ue/Fl9haGuPuLbYpazGC+9vf/vaJ5A0pslun7f0822RMEQolXNgsuUTVdu2yyy7Z4YcfniS/vJN1B3mCtPk4vJTLq7ecps4DTxhSLshV29zvc03HFPn2eEVJ6gziZyussEKokqf067d/qi8E+kFApKgf9FR3rBGwgNKUttWyg3Epn7lyWIApf2MRyisWE4DgS9yAZZDjMEMoQnuHls8Xn+q7yoFbhxT5u5cQkLEC+ax2cZrxWHs9yEnSZVKEcI2VgDH0pAZ8ytpdpy7jwb0gdjFjilzH7nOxAOPjhVLZBL1WPM/yOchxb/JbsSsoWcwgmd6aEVuKjJzcfffduRYSBGx/X8tFF10U1hFpsrFi8V0SJNi9XynLc/zdmMx6wTy1L1mKffCCNCHEppLBNIln3ruaJEV8A0LEXU2pwn6M0oDCHoYrJcok9lKfFpp1QEkpJkg4Y/cLpQR+77aY2gM9YUhZUQaBOd9okxSZFRLrHmm6YyuQt1K24T44KAz1ndFFQKRodMdWPWsRAbSG+JtzuHFQmsuLuXYh5OIW4zW5Zm0pS1ltGkmv6fUJGuhW7HqBWwI+9/iUV4k1qUOKvMtD6m4TfzdTWd9aHJLw6jJy0cT3e3GfQ0AlngWhFstAPF8gSmR6QyDGOuEL40ldnkF49nXNpZCkG17r78c3JRz7DGQpAaYsWN8y29HOUbMS2RyyMUjFS8XkpIorFPMGS6C5NcZxd/HloKm7xrxgndoHzBqd+h0/s3nB3gSJiJUrTayPqu9omhQVfRfCaQI6hOeKK66Y7roCj11MWvyVA6lxKVNKQcpYo6xhlFZkM4zvcquKW7/PtUWKLAsdawGMII5ekWCknwQlbcUg9ouN6gsBkSLNASFQEwGECQgRAinxM/id+zgX/k+gK3eG+LtnTIuLEEqMTp5AYoKLrxu7O8VaNiNcKUtOqnteaC7T2Pl4otglxwLLcaPCV5+4prKA6Jpw13q8i6TINMwIQ1hVUvMFMkS65zhbkwlq1KN+1bpGrM8///xs4403ng5D74bF3LGLQe1BLyDGpArhhlg7tOFlCT1qDV5HHmatEbBP/1irxAkSI2IlDpjHEsddRGUWl/huqZgUYX1bdNFFQ1a7Kt+N3Y/KLLbMMdYo8SZVFCdtD8dkkiLucIuT4fg9EeUO69aEeltPkEncX/29O+DkLacpJQMWPUgR9VEoeNfZtnGO398WKfLugakEDXYBOfgQczb33HMPuuv6nhAoRUCkqBQiPSAE/g8BAkNJZwrhqVJin307eBFOcLfAvQ43Dg4qhCb827EKxLfW+xgObkUnXolDnXq49hC3xIF74403BhecuHDXCr9DqOZduFaZqwgZ8SwLEgIfwpbX8Pl4It7LpZIcenyb99BeyCHa18kkRLStLVLEIf7AAw9M3CuFGxTCKwUBkyBsCmMANj6VL9gWBT7bWMWE1pPRsrkWB34zjgjyxL5ArrEwIbQz9pBz4oUgYSkXKh+sz3dJ2Y1QiBBDAhNi13AdnWz3qzJM+vm9WcJYh0cddVRIyGGkh3WDgMuYIuDhksZ9NXkFzTlYgz0JWfg3hfUP0eUdNmcsFsx/l/2B8fTfpR7prL1g6UkV70dxc8EFF4R9gjFnj7j99ts7QYhoX9ukCMxYQ8R14lZnSWjAmz2NJAvMbbtXyKx/WGrBjUQsvIPx5RoF9nzGLJUcxbsl0jfWCDGCFNbOBhtsEOYL88ouwO5nfvZTty1SFFsxOaOYg8x7Yky5l2+WWWYJijPOPRUh0EUERIq6OCpqU2cR8BduljUSARkhMr7nwWskEYbszhMsUAhMaClTiQogZGjoISwQIw53BC4OWgTqyy+/PFf7Vqfd3lrhA+4hcmQiQtBGkOCQ5/u0Fy2gv6ulDJu2ft8WKaoaQB+TEz/WZX1mTBHMjJDWrcs88Bm3TBA0zTTabawFWIkQFGNtuLUP1zruG4H00SbqYPlEEGd+Utfu16qbzrwMgy79HiGPrGN2DxOWXf5NXBhznzV34YUXZossskhusxEIwaoo+YJPtMCL+C6WO76FUGkplskoB/bMMe6Eib/rXR633XbbcBfarLPOGqyTkCIEUqwfTaeB7nXM2iZFkMSVV165MPmCv3LBXJTZRyEu4G7rxcYlDzsfT8RecfLJJwfcwR9SxD7PfVCxhalX7Pqp1wYp8tZTziUuNd55551Dv5mzWF1R0hx99NGl2Vz76ZvqCoF+ERAp6hdB1R8rBLC43HTTTZX6bAHUqYcRUrjPCE2mCZZo87lnqMjPn+9zzwX1EJo4eBGcNt100+l85P13uWsDIYEDy4p3xTL3PwRhAo+tTT6eyOKFOOQhWfjmT5kyJRCxXi5BrQRizYfaIkWkhMYaUJQumaYiREEorJBNrCw1sT278MILB/cpKwTt33///ZUQIP1zykJIhkKbL2bZYn5hsYDgpsbNW6iIF2Ju4YY3derUbIkllshWWWWVsUmjy/w/9dRTA/nnD4U1h3C8ySabFK45GziUGZbKmXUVu0CyjmNXotR3UUTwXS4l9olO7DtxPBEZ8yBtFMaNrHNlF3FWmmwNPdQ2KaKZBPujnIqLrWNiMH1sD8QIax2KBKz8EElI6FZbbZWrcOJdZHqEtFrSEdYtKddRJCy55JJhbZZdUNsQrKWvaYMU+fuJUKTgLoglk3MC5QHXI7AvlrmYljZeDwiBlhEQKWoZYL1eCBQhwAHFQYygZKm1qyBm9SxdbJU6vTwTC8hl91r08o0m67RFipps42S8q8488+6SkPc695RMRt8G8U0EX9xbKazTQVnI7Lt8L757x/fbJwJAMIfEd4kApcZoEKSo17kBnqwZlAZlgrx3W8QagiKhrE6v7WqiXhukiGQ7pJGnNHlJchP91TuEQB0ERIrqoKVnhcCYIeAv8BwGARkhElc+/P7rXNQ5ZsOa213vLlkltbtw6wYCsWCOC15XrLd5CF133XXZfffdNxHr0w0k67fCp0FPJS2p/8b2azA/SEfelDufXU9By32CoPZ7oi8IgWYREClqFk+9TQiMDAJeQMa/HgGm69rnkQF/kjpCZjnciYgDQOuNsDMoq8gkdXkkPkvMBjF/lC5klhsJUCt2wrst4loc30FW8TVD/RhXNRBHRYmzKg51x9T4sUNApGjshlwdFgLlCBA4TFA9Bx1B5WRpIiMWMUm7775757XQ5T3UEx4B3IW4VJgYC9KrUywJCDFIlrlLqHULgXvvvTc75ZRTQoY04mAoZErDhY4Mg+MooA9qhCBAZFgjm5plIyXrHEqEbbbZpjABx6Da2PZ3sDhByIlb5Jwgox8xiOwnBx98cC2X8LbbqvcLgSoIiBRVQUnPCIExQiC+vNJ3PXVx4RhBM7Jdveaaa7IVV1wx2T8EPVKvq3QPgThdvm/hqF2q2yX0iS/jsmXuLEoVSCoJa0a5YFUmeYclIPF9RXlG5tVUQpBRxkR9G34ERIqGfwzVAyHQOAJcYIm2j+KzZRFA3JUsSo13esxfiJATZ0YDEgSbrsenjOvQsUbJ/EXxF0jzf1xd5frY3syAGIE/uHvs+fdMM83U3oc79GbmHm7W8TnBfiFC1KGBUlMqIyBSVBkqPSgEhIAQEAJCQAgIASEgBITAKCIgUjSKo6o+CQEhIASEgBAQAkJACAgBIVAZAZGiylDpQSEgBISAEBACQkAICAEhIARGEQGRolEcVfVJCAgBISAEhIAQEAJCQAgIgcoIiBRVhkoPCgEhIASEgBAQAkJACAgBITCKCIgUjeKoqk9CQAgIASEgBISAEBACQkAIVEZApKgyVHpQCAgBISAEhIAQEAJCQAgIgVFEQKRoFEdVfRICQkAICAEhIASEgBAQAkKgMgIiRZWh0oNCQAgIASEgBISAEBACQkAIjCICIkWjOKrqkxAQAkJACAgBISAEhIAQEAKVERApqgyVHhQCQkAICAEhIASEgBAQAkJgFBEQKRrFUVWfhIAQEAJCQAgIASEgBISAEKiMgEhRZaj0oBAQAkJACAgBISAEhIAQEAKjiIBI0SiOqvokBISAEBACQkAICAEhIASEQGUERIoqQ6UHhYAQEAJCQAgIASEgBISAEBhFBESKRnFU1SchIASEgBAQAkJACAgBISAEKiMgUlQZKj0oBISAEBACQkAICAEhIASEwCgiIFI0iqOqPgkBISAEhIAQEAJCQAgIASFQGQGRospQ6UEhIASEgBAQAkJACAgBISAERhEBkaJRHFX1SQgIASEgBISAEBACQkAICIHKCIgUVYZKDwoBISAEhIAQEAJCQAgIASEwigiIFI3iqKpPQkAICAEhIASEgBAQAkJACFRGQKSoMlR6UAgIASEgBISAEBACQkAICIFRRECkaBRHVX0SAkJACAgBISAEhIAQEAJCoDICIkWVodKDQkAICAEhIASEgBAQAkJACIwiAiJFoziq6pMQEAJCQAgIASEgBISAEBAClREQKaoMlR4UAkJACAgBISAEhIAQEAJCYBQRECkaxVFVn4SAEBACQkAICAEhIASEgBCojIBIUWWo9KAQEAJCQAgIASEgBISAEBACo4iASNEojqr6JASEgBAQAkJACAgBISAEhEBlBESKKkOlB4WAEBACQkAICAEhIASEgBAYRQREikZxVNUnISAEhIAQEAJCQAgIASEgBCojIFJUGSo9KASEgBAQAkJACAgBISAEhMAoIiBSNIqjqj4JASEgBISAEBACQkAICAEhUBkBkaLKUOlBISAEhIAQEAJCQAgIASEgBEYRAZGiURxV9UkICAEhIASEgBAQAkJACAiBygiIFFWGSg8KASEgBISAEBACQkAICAEhMIoIiBSN4qiqT0JACAgBISAEhIAQEAJCQAhURkCkqDJUelAICAEhIASEgBAQAkJACAiBUURApGgUR1V9EgJCQAgIASEgBISAEBACQqAyAiJFlaHSg0JACAgBISAEhIAQEAJCQAiMIgIiRaM4quqTEBACQkAICAEhIASEgBAQApURECmqDJUeFAJCQAgIASEgBISAEBACQmAUERApGsVRVZ+EgBAQAkJACAgBISAEhIAQqIyASFFlqPSgEBACQkAICAEhIASEgBAQAqOIgEjRKI6q+iQEhIAQEAJCQAgIASEgBIRAZQREiipDpQeFgBAQAkJACAgBISAEhIAQGEUERIpGcVTVJyEgBISAEBACQkAICAEhIAQqIyBSVBkqPSgEhIAQEAJCQAgIASEgBITAKCIgUjSKo6o+CQEhIASEgBAQAkJACAgBIVAZgf8HCcbY1Czt4KsAAAAASUVORK5CYII=;" vertex="1" parent="1">
          <mxGeometry x="293" y="-756" width="837" height="204" as="geometry" />
        </mxCell>
        <mxCell id="G3RhWABNZF6Ew54WlCH--114" value="1" style="ellipse;whiteSpace=wrap;html=1;aspect=fixed;" vertex="1" parent="1">
          <mxGeometry x="190" y="983" width="40" height="40" as="geometry" />
        </mxCell>
        <mxCell id="G3RhWABNZF6Ew54WlCH--115" value="2" style="ellipse;whiteSpace=wrap;html=1;aspect=fixed;" vertex="1" parent="1">
          <mxGeometry x="300" y="913" width="40" height="40" as="geometry" />
        </mxCell>
        <mxCell id="G3RhWABNZF6Ew54WlCH--116" value="3" style="ellipse;whiteSpace=wrap;html=1;aspect=fixed;" vertex="1" parent="1">
          <mxGeometry x="300" y="1053" width="40" height="40" as="geometry" />
        </mxCell>
        <mxCell id="G3RhWABNZF6Ew54WlCH--117" value="4" style="ellipse;whiteSpace=wrap;html=1;aspect=fixed;" vertex="1" parent="1">
          <mxGeometry x="410" y="983" width="40" height="40" as="geometry" />
        </mxCell>
        <mxCell id="G3RhWABNZF6Ew54WlCH--118" value="" style="endArrow=classic;html=1;rounded=0;entryX=0;entryY=0.5;entryDx=0;entryDy=0;exitX=1;exitY=0;exitDx=0;exitDy=0;" edge="1" parent="1" source="G3RhWABNZF6Ew54WlCH--114" target="G3RhWABNZF6Ew54WlCH--115">
          <mxGeometry width="50" height="50" relative="1" as="geometry">
            <mxPoint x="230" y="993" as="sourcePoint" />
            <mxPoint x="280" y="943" as="targetPoint" />
          </mxGeometry>
        </mxCell>
        <mxCell id="G3RhWABNZF6Ew54WlCH--119" value="" style="endArrow=classic;html=1;rounded=0;entryX=0;entryY=0.5;entryDx=0;entryDy=0;exitX=1;exitY=1;exitDx=0;exitDy=0;" edge="1" parent="1" source="G3RhWABNZF6Ew54WlCH--114" target="G3RhWABNZF6Ew54WlCH--116">
          <mxGeometry width="50" height="50" relative="1" as="geometry">
            <mxPoint x="240" y="1003" as="sourcePoint" />
            <mxPoint x="311" y="950" as="targetPoint" />
          </mxGeometry>
        </mxCell>
        <mxCell id="G3RhWABNZF6Ew54WlCH--120" value="" style="endArrow=classic;html=1;rounded=0;entryX=0;entryY=0;entryDx=0;entryDy=0;exitX=1;exitY=0.5;exitDx=0;exitDy=0;" edge="1" parent="1" source="G3RhWABNZF6Ew54WlCH--115" target="G3RhWABNZF6Ew54WlCH--117">
          <mxGeometry width="50" height="50" relative="1" as="geometry">
            <mxPoint x="234" y="999" as="sourcePoint" />
            <mxPoint x="310" y="943" as="targetPoint" />
          </mxGeometry>
        </mxCell>
        <mxCell id="G3RhWABNZF6Ew54WlCH--121" value="" style="endArrow=classic;html=1;rounded=0;entryX=0;entryY=1;entryDx=0;entryDy=0;exitX=1;exitY=0.5;exitDx=0;exitDy=0;" edge="1" parent="1" source="G3RhWABNZF6Ew54WlCH--116" target="G3RhWABNZF6Ew54WlCH--117">
          <mxGeometry width="50" height="50" relative="1" as="geometry">
            <mxPoint x="244" y="1009" as="sourcePoint" />
            <mxPoint x="320" y="953" as="targetPoint" />
          </mxGeometry>
        </mxCell>
        <mxCell id="G3RhWABNZF6Ew54WlCH--124" value="&lt;font color=&quot;#ff0000&quot;&gt;S&lt;/font&gt;" style="text;strokeColor=none;align=center;fillColor=none;html=1;verticalAlign=middle;whiteSpace=wrap;rounded=0;" vertex="1" parent="1">
          <mxGeometry x="144" y="988" width="60" height="30" as="geometry" />
        </mxCell>
        <mxCell id="G3RhWABNZF6Ew54WlCH--125" value="&lt;font color=&quot;#ff0000&quot;&gt;T&lt;/font&gt;" style="text;strokeColor=none;align=center;fillColor=none;html=1;verticalAlign=middle;whiteSpace=wrap;rounded=0;" vertex="1" parent="1">
          <mxGeometry x="767" y="988" width="60" height="30" as="geometry" />
        </mxCell>
        <mxCell id="G3RhWABNZF6Ew54WlCH--126" value="5" style="ellipse;whiteSpace=wrap;html=1;aspect=fixed;" vertex="1" parent="1">
          <mxGeometry x="524" y="983" width="40" height="40" as="geometry" />
        </mxCell>
        <mxCell id="G3RhWABNZF6Ew54WlCH--127" value="" style="endArrow=classic;html=1;rounded=0;entryX=0;entryY=0.5;entryDx=0;entryDy=0;exitX=1;exitY=0.5;exitDx=0;exitDy=0;" edge="1" parent="1" source="G3RhWABNZF6Ew54WlCH--117" target="G3RhWABNZF6Ew54WlCH--126">
          <mxGeometry width="50" height="50" relative="1" as="geometry">
            <mxPoint x="452" y="1003" as="sourcePoint" />
            <mxPoint x="526" y="1002.66" as="targetPoint" />
          </mxGeometry>
        </mxCell>
        <mxCell id="G3RhWABNZF6Ew54WlCH--128" value="6" style="ellipse;whiteSpace=wrap;html=1;aspect=fixed;" vertex="1" parent="1">
          <mxGeometry x="632" y="913" width="40" height="40" as="geometry" />
        </mxCell>
        <mxCell id="G3RhWABNZF6Ew54WlCH--129" value="7" style="ellipse;whiteSpace=wrap;html=1;aspect=fixed;" vertex="1" parent="1">
          <mxGeometry x="632" y="1053" width="40" height="40" as="geometry" />
        </mxCell>
        <mxCell id="G3RhWABNZF6Ew54WlCH--130" value="8" style="ellipse;whiteSpace=wrap;html=1;aspect=fixed;" vertex="1" parent="1">
          <mxGeometry x="742" y="983" width="40" height="40" as="geometry" />
        </mxCell>
        <mxCell id="G3RhWABNZF6Ew54WlCH--131" value="" style="endArrow=classic;html=1;rounded=0;entryX=0;entryY=0;entryDx=0;entryDy=0;exitX=1;exitY=0.5;exitDx=0;exitDy=0;" edge="1" parent="1" source="G3RhWABNZF6Ew54WlCH--128" target="G3RhWABNZF6Ew54WlCH--130">
          <mxGeometry width="50" height="50" relative="1" as="geometry">
            <mxPoint x="566" y="999" as="sourcePoint" />
            <mxPoint x="642" y="943" as="targetPoint" />
          </mxGeometry>
        </mxCell>
        <mxCell id="G3RhWABNZF6Ew54WlCH--132" value="" style="endArrow=classic;html=1;rounded=0;entryX=0;entryY=1;entryDx=0;entryDy=0;exitX=1;exitY=0.5;exitDx=0;exitDy=0;" edge="1" parent="1" source="G3RhWABNZF6Ew54WlCH--129" target="G3RhWABNZF6Ew54WlCH--130">
          <mxGeometry width="50" height="50" relative="1" as="geometry">
            <mxPoint x="576" y="1009" as="sourcePoint" />
            <mxPoint x="652" y="953" as="targetPoint" />
          </mxGeometry>
        </mxCell>
        <mxCell id="G3RhWABNZF6Ew54WlCH--133" value="" style="endArrow=classic;html=1;rounded=0;entryX=0;entryY=0.5;entryDx=0;entryDy=0;exitX=1;exitY=0;exitDx=0;exitDy=0;" edge="1" parent="1" source="G3RhWABNZF6Ew54WlCH--126" target="G3RhWABNZF6Ew54WlCH--128">
          <mxGeometry width="50" height="50" relative="1" as="geometry">
            <mxPoint x="558" y="989" as="sourcePoint" />
            <mxPoint x="634" y="933" as="targetPoint" />
          </mxGeometry>
        </mxCell>
        <mxCell id="G3RhWABNZF6Ew54WlCH--134" value="" style="endArrow=classic;html=1;rounded=0;entryX=0;entryY=0.5;entryDx=0;entryDy=0;exitX=1;exitY=1;exitDx=0;exitDy=0;" edge="1" parent="1" source="G3RhWABNZF6Ew54WlCH--126" target="G3RhWABNZF6Ew54WlCH--129">
          <mxGeometry width="50" height="50" relative="1" as="geometry">
            <mxPoint x="558" y="1017" as="sourcePoint" />
            <mxPoint x="634" y="1073" as="targetPoint" />
          </mxGeometry>
        </mxCell>
        <mxCell id="G3RhWABNZF6Ew54WlCH--135" value="" style="shape=image;verticalLabelPosition=bottom;labelBackgroundColor=default;verticalAlign=top;aspect=fixed;imageAspect=0;image=data:image/png,iVBORw0KGgoAAAANSUhEUgAAA1IAAABhCAYAAADcIJCZAAAgAElEQVR4Xu2dB7QsRdW2GzNGjGAmqIgRDGAWxYBZ8JoTF0TFgDnLAiOoIOaIiFlJXkwYQAUTJryYM5gTijkrv099/z5rn7rV010zVdPTZ95aiwWc6a7ufmvXznvXZuf+bzQaQkAICAEhIASEgBAQAkJACAgBIdAbgc1kSPXGShcKASEgBISAEBACQkAICAEhIAQCAjKkRAhCQAgIASEgBISAEBACQkAICIFMBGRIZQKmy4WAEBACQkAICAEhIASEgBAQAjKkRANCQAgIASEgBISAEBACQkAICIFMBGRIZQKmy4WAEBACQkAICAEhIASEgBAQAjKkRANCQAgIASEgBISAEBACQkAICIFMBGRIZQKmy4WAEBACQkAICAEhIASEgBAQAjKkRANCQAgIASEgBISAEBACQkAICIFMBGRIZQKmy4WAEBACQkAICAEhIASEgBAQAjKkRANCQAgIASEgBISAEBACQkAICIFMBGRIZQKmy4WAEBACQkAICAEhIASEgBAQAjKkRANCQAgIASEgBISAEBACQkAICIFMBGRIZQKmy4WAEBACQkAICAEhIASEgBAQAjKkRANCQAgIASEgBISAEBACQkAICIFMBGRIZQKmy4WAEBACQkAICAEhIASEgBAQAjKkRANCQAgIASEgBISAEBACQkAICIFMBGRIZQKmy4WAEBACQkAICAEhIASEgBAQAjKkRANCQAgIASEgBISAEBACQkAICIFMBGRIZQKmy4WAEBACQkAICAEhIASEgBAQAjKkRANCQAgIASEgBISAEBACQkAICIFMBGRIZQKmy4WAEBACQkAICAEhIASEgBAQAjKkRANCQAgIASEgBISAEBACQkAICIFMBGRIZQKmy4WAEBACQkAICAEhIASEgBAQAjKkRAO9ETj33HMb/jnPec7T+x5d+H8IgNt///vfgN1mm20mWOaAwL///e/mfOc73xyepEdMQgC6Z4hv1KcT+EyKv7T9vf4bjf8J8JHznve84ttzWkr4BfQK5hr5CIjf5mM26x0ypGZFcAnu/853vtO84hWvaL72ta81l7jEJZrHPOYxzR3veMcl+PIyn/iRj3yk2bBhQ/ONb3yjuc51rtPsv//+zTWvec0yk2uWJAIf/vCHm0c84hHNox/96OZ617teuCZWMG94wxs2l7nMZYRgJQRQQI844ojmne98Z1CM7nrXuzZPe9rTKj1N04LA61//+uYPf/hDc/3rX7+59a1v3WzcuLH58Y9/3Lz//e8PfOfGN76xgMpA4Ne//nWzyy67NK95zWuaO93pThl36tJcBDAA3vCGNzQf+MAHAg3Dt9E1dthhh9yplvJ6aPWoo44K+KGn3eIWt2jWr1/fXO5yl1tKPOb50TKk5on2CJ/1xje+sXnqU58aFKDb3OY2QTDz3y960YuCoqoxGYHXve51QQg/61nPam5729s2xx9/vPCbA9E84xnPaA455JCJT/rWt74lg7bSWpx99tnNbrvtFgT6M5/5zGbbbbdt1q1b19z5znfuXJdKr7QU04L1wQcfvMm37rfffoEPafRHAOMfRR7cPvShD8mQ6g9d9pUYUQ960IOarbfeurn73e/eXPziF2+g2VNPPbV57Wtf2zzykY/MnnOZbvje977X7Lnnns2jHvWowGvf9773Bbq96lWv2hx77LHNjW50o2WCY+7fKkNq7pCP54Hf/e53gzcOz8YJJ5ywkprDZn3Xu97VoIhutdVW4/mgOb/pt7/97eBN+9WvfrXKK4RQvstd7tL8/e9/by54wQvO+a2W43HQ6Gc+85mgyDNQimx8+tOfbp7+9KcnFc7lQKfuV/7rX/8Kghtl6OMf/3hz/vOfvznxxBODEXXLW94y/E0pl3XWAAcCEUCiUFe5ylWCV5+o7O67717ngWt4VqLaFoWSIVV3od/97nc397///YMx9da3vjVkD5DJAd1uscUWzS9/+UvJypYlIPK/xx57NDe72c0a9r8NHIn8Pzzgy1/+snhuRRJeE4aU1Z6UwMkULtWxNMG7gTcoVjpNwMhTNJniEA541TCkLnCBC6xc/M9//jMIBXBUimSJXbt6jv/85z8hrYlo6vbbbx+EstWIsCbQ7Sc/+UnV7JSHPsxo0UCcLfe73/3C377//e+HNJOb3/zmikhVwt2w59/Pec5zAt1TZ6LatHzASZO63e1u19z0pjcN6WYypPIxzLmDDBf0DMY//vGPIC9x5MK/Gaeddlpw6mpsioDpE/xCBoxlCvm/f+5zn2tucpObCL5KCIzekHrVq14VvG8vfOELZ7a4UcBQAhBAbOxlHhinu+66a/OpT32q1ZCi5sFHqpYZr9S3ey/b4YcfvlKPgwGFgomgUP5yeaqBdu92t7uF9AZfsEyt3+1vf/vmS1/6knAvD3uYEeENTVPjgEJE5In1YB3gr4pEVQL+/09Lah8DeagxHQKW0nfd6163+dGPfhQMfxlS02HZ967f/e53wfG1zTbbNPe5z33CbeawJbL9m9/8ZpUzsu+8y3AdESlqfeG53pDyfxf91qWEuRpSCFSEK2HG3//+9yteYkK3FMHmpjm9+tWvDvn3n//854vVOvzsZz9rrnWta4XUq3e84x1L26kHpYeaqEmGlNJ0Jm9ODHyE8R//+MeQqwyT22mnnUIUikiVaszqMbc4Sm30TJrTfe9733oPXvKZ8RzjxYfuifzxD/sA+n/sYx/b7LzzzkuOUN3PN0OKiCxR10te8pKh5kTNbfrjjgL//Oc/vznllFOaZz/72TKk+kNX7Er49T3vec/QOIFUVdL+NNoRIOL/29/+dlXUThGp+VHM3AwpOpa94AUvaD772c8GL8+Vr3zl8A//zyCfm98f+MAH9jJeiEQhmN/+9reHe0oONi8e7ac85SnNi1/84pJTj2YuvHIonanUPgwCDAGGheHH8mG8LxEJvDfUz9C57UIXulC11//iF78YoiA8j4HTADonbXJsA+OEuq4f/vCHQTmmMPhqV7taL08h3jFSHM8444zw2XQVI3JB/cw8BhFm9jXK0ZhSnYiiwRtJdUm1A2Y9EKJ0g+wa1C6RssQaQPsY9Re+8IW7bsv63bzIrO/FLnaxhqjsZS972WbvvfduPvjBDzYf+9jH1kThM/LHeGQfeoLv4FX/6le/GngAfCfXcdhnITCk4NnU9jz4wQ8OnVaJThFVGXPBvtG58R1Svmq0x2aNaApEgT7PsDTVsXv0oVVqRql3zhnw/L/97W/NV77yleAQ3HHHHZsrXOEKOVNkXfuFL3whdLiljtWigWM1osAN44Y9j2MDWedT/LOAmeJi09NUIzUFeJm3VDeksIrx6hC2ZVPihX/c4x4XQpGk0CHcadmIAGCjkvJEJGiScMIoo7COfHuUoz6CLBOX0KnuJS95SZif6NQyDlOKUPqJ/jFYQwQ0XiLGmBomYHRDizBoGyipKBqljXGbn5SFhzzkIc3Xv/71leeiSFF8P6acZRTwAw88METV/AA/9go00lZXiAAn/x3h6AcRTe4lRbTm4N1Rinj3sUWjwAfeiWJ87WtfOxQOgzPCGaWSPXrOOec0dMmbZJTCxzAm/RqQMoOCbU6REmvguyX6GkDzjq4FoY5BCM2ilJ588skTlSM86xg2yBLWy/Odo48+unjdhxWbW+c+FGj2JrQPzxlb0wnTH97znveswg/sUbgvfelLlyDbMIdhhYPI2vSP2ZDie6A/HFhE2KCBP/3pT81FL3rRXpj9/Oc/b5785CeHtEZzBHLjwx/+8DBXjTpy0t0/8YlPNGeddVbYN+yzl73sZaM6pgIdyTr1otPagGahq9ryjudhwNHwB9lw0kknrQnnVS+iHeiiqoYU3h26iZgnBMFx+ctfPvmpeIrvcY97hA07aaPCGOjsgqcT5RTlosaAidBxDaWXzV3De1jjvUvPiZIF1jBTNuaRRx7ZvPKVrwxnIuHVZo3nFVWY5dvMMCblCIUSDxGRlQc84AHBa8s30eq25LAW0DyTTkTHHHNMs++++wZhBnZ450uf61Ky8YphQcckUrJQgsGLVCGcFy996UubAw44IFzWtmcpcqVbG+leGKvspzPPPHOVYskZZUSXaw0rZOY7ttxyy1qPqTKv0W3b5NARexPHUmqgTBGJoGAeQY5BS8ouAnafffYJadHwZ9KZSwxfNI4SbLyBiCRteX/yk580NQqf53XgLDSEAwRnTJchhTKDTANfDGGyG7bbbrvmBz/4QUhVQskqLVtSzZLMIYYCh/FRI5JTgnbiOazhA/yZ7JCHPvShgYaIWsCDcMRQo1vqe3xKn805RkMKvIg68290JPiDjb6GFCm6ZnSTQYEeB+/mXDgc4fPI1oE3sdeQOzgsSp/5V0NWwuegTTKtMF5JT8TYP/3004PDlrVAVnLeW60BD8DZjfPsox/9aLV06hr41cKk9rzVDKlf/OIXoRaEzYzy9Za3vGVioTGLj7WO546B55SIUzzMG0jkiqhIDa8Iz+R9eG+MiBpKdu2FLTk/GJDKwkB4YYSgGKBIkIdfSpCVfGc/F9E0jCQ88BiAV7rSlVZ+xksMo8aAb6O5ad/LWhGjOFmRPcoBCixMDsPibW97WzEaRnGFcRPhLdXEAsGAMogAiA0enBqkeiCsGXwLTg4b8AAUdGiFaKCPHIM7tGRe+vjeaTGP7+P9b3CDGwQ+5BX7UvPXnCfmifGzMFDhl5OMIIwohDbXcoaZOYRYD4Qto6RSZEo7a4vy4w0pUqaouSwdGUEOoDgSXaslD0wmmFHK/08ypMi0gO7YGyhUZFzYu6FIEWVkcFBuSQ81yicOL8+TfRvpuINoTfqdZW54B4o8kVcvf9nPyB8rCehrGHS9C+tFmrI5GohKsf/ofmhpwdAv+6dGBkzX++X8ThTpsMMOC846dChkG8Y8ow9eyEFKG/h+6JO9zIB2iOwzH85B0tZLOphjxRx+DS3Du31WTA4WbdcyN4Y5Ds6SjmB46aGHHhrwjp1bpPdyth6/1cx0gg/SMRXH7TWucY2VXgQlcLM5ONrloIMOCjr4ou+Hkt/dNlcVQwqvHUYUTJDcfQRqH8UOocMGZWAoIey9QEBxu9WtbhWYKAI5N983F1CUbt6fd6KuZp75rbnvWut6Y25gD2PFIEAxQ6EYwyGPRBaJWtLcBIUeweBpyjq8YSj0SSvti7MJZoyluIOWGSAUgpPGUMoQ/ctf/hLSNnA2oDiXGH/9619DFNlSFDBKfX2Xj5jE+JkBi0BBuBCV8sPqHPkbKYLUA5WuV2NOCu3H2BjFDCnSmuhkZYo4ChIGM0rNpC540LodbsmZb1bbwLwojFb/WdKQ8l5keKYpKewHlIgahhQ0iEzAqVOzK6A58ajtJbI2yZAyhYprqWEz2YECBw6WYklnSZTWEsO6hCKvqGkxvuLPQxqDM8E7b2KeQt2Jr+tDye5TH9iFL0outaz+vDnuYX4zHNh3GFVt0d+uZ8zrd9aY/cZegAYw4s1B3WVI+YgrDgAOkrcBzZpRhVOSazfffPMinwWuGBhkOFiWBmuB0Wy6Xkmn7Z///OdQw9mFR87HUeYAT2bPk2GVkuvGQyhxIXWxtOOHlEvSCjmrzyJ4/I1uiCWPWjHZwn4sLbNzMF+Ua4sbUp4J8pE5Xn4jbu6DaeGV8hvVDBsIlZOcS3pDUgsCQ6IoGANvHobbohCFvQepKXvttVdQclF67Twea0KBV8LOeVi0d7f38cp6m8JoSg/3YHi1pZ/mfKMZUkQ1rV7B3w+GCGg8YqU8OrZ/ShtSKOCWIw+evLsNjx3Gm7Ucx0DF0CaljJHyYJrh5wV1Kgqdg3t8rSmXKL0YrTUV7VneM3WvGVKkwll0p6/gRajjjUThTzkIMDBpAMF8b3rTm4rtY6N7Io1eaefvNJ2AjkrzjXkYUnjjOcdmzz33DJ545FqbIWVyijWNlVH+xv4kWk1knEhsqTofc3BhWGzcuHFFkcMQhwZiA6s0vZaaz5Q05kvJXSJU8BV4BUpjKf4JjfrB/uMsKd6BNcPQgn/03YOl8JhlHvgwTpO+hpR3jNHB2DeWMJ6O0wJDoFQqPEasKeM+8oQuaVFsZAmOuVLYY0BhDJY0pGxOMlzgESnHu8loLytnWV9/L/ucNEyMKOMp0DDONFLnZUiVQnrTeYobUggGiusZuel3CH9vOMVEDpHQLKBk5GAStL6+ICUQ6y3LYsxsnkyMWlLS7JA8FApy/BFiizxizzspDyZQ/Ht74VGqCyRCh32AR5NaKB+RBUtqjgjB24GlJXCsYUjxXggwDBIUP/77Upe6VHhdImswacvB93uE70coWi449+KZ984P9js1SxbtKp3mxDtajQOe1LEdwmv0i+LS1dQgph8a9liaZWz82rUYOjyjtEPKMPe1UDjFUMpqpAPXNqRMDrAO/IMSNMmQ8vykzZGI8ojHuqRhj4FKTQn/3mqrrVZIwg5WZw8verOV2BFLRDwV9QA/op2ljKh4/1hkigwY1pB0VBTRUop8CX7fZ44cQ4roAtF7nCAYqakIL/PBN0pGITBgcVjzXOSF0Shy0mpaS6cD1zCkqLmmBpLxvOc9L8ieOCpFKhxZKvCIkmeVUtNGxg16GZkuNnACoIPAE0rWBysitXr3FTWkfBoVj8kNu8ceau9Z90pbm2LgPw3mRx4qXof169evRBnwFlKgSqoX9R3r1q2bmLJn6UkIT+4rKfj6MMJZr0EgYBywFrQkZqMhfMATRYcNwbAuVF5QwDCvfvWrh9/233//UDDJ5idVjjkXXajA9EkNsDSaNuZFbV5bmhOCnW9G2UeoWgdHsKFFLrUZ4IDSGqeY0GwCjxqMjSgOZ+lQpI5DwLyps66vv7+WIcUz+F7oxtM/gheFDWwwttlbV7ziFVdeiUYkRDSJimA0xumGseMkzhsndYSOTdAwe9jOwuE+oigIXgqgSXOjMUxqeEOKdItFp1n/DXFECkcGSocdcNvGi/gdYY3izABX6k0QptBfn7b/rCVOMfgnDVKIJjHg8e9973tXzoa6173utYmAttRVlAhLX8ErTpMRzhAsXTROVBReViu1z1KaUEpwgFhqXioihYJPXYfVDWIIgAMeamSOHRkwyXhF7p166qmBXzzsYQ9bkU/MScSXqB5eb5wwsaIGziidpGSxzsxDavEY0rChL68DgC/edeiJNFH4DN+NQthW18KewcEHbzB5x56P5R3plG2lAcxBOhTrjpOIdWMtuB5c23hNSV5eaq4cQ8qOfeHZlnoGr2UNwBB9CX7fZrx6WUldraVAsieQlZR6QJM432JZSUow6cvISdYNvoNcZs+xniU7i/J9NQwp5BzGDLyTga6A49boBRmKPoAuhuET0xHOJuQdAyesNVJDDh533HFBjoIftV0+UugPQW+jm9IpvbUMKbAjS4fvRHew74zlDnp7n3KhUvuoa56ihhQhdxRuxjTFiISSfSMAb4hZ/ikMsstzTaEdNTwQIgIW5ktUgHQAinzZxDBLBA7v6fNJY8AsTSOVatgF7iL8DkMkskR6HoIBQ+rwww8PaT3gi3JLbjJCmt+srbm9O1EEigppR2oGA4pVLU9gScwQIhiBrDOjT2of3jBTQK0mDwHOP9AeDRdQpKAvMEG4gitMLmXgI1wo/EWhQSCzDjDCGm2Ia9RIta0H2JKySISY0ebcQPFnr6XSHHwKFIITRd/SKjHCwJl9B50yzHjHw8717G/WFlpE4YlrsLgHBZZIJCmWYzwAGeMfHkaECaeOFdmDC0KbvRhjGyvzKN5gAO+Dv/70pz8NiiH7wadp2lqbd5MmFjwPrPkbUTHqLaxOAsyZh6LmuPska47SCd3DN9iH8BwzyEru85oRKeQO38Z+RSnyNU4pQyqWYZZaaTQMH7HDilNprKwxuCGj4MtWn4tchS/Br+FD1gkX555FiA1TrmOvsO7wG5Sykmk9Jdcunssr8yjiOLjYu/BOBviBO7I8VkStQRQ0C12ihLPnkV80+EHGsWf4+ze/+c0Q+TBe79+DeaB38OO/4S8WocJILu0IqIlnjiFFRoF1YYU3YPRDi9QSQccM5N5zn/vcTfYxcg5DC6ch9Mk/6IM0XDEjCP6MkwD+E9faMjcdLDEkMLjAHNqnIU6NY0Jq1EiBNY4jn/KIow8scYg88YlPDHyca+Iz3eyIDmga2oRnIttwxjIfawBPgOeCjT8+heei47U5CXmHlGyche5sn5askULO4RxCRrGHkXHQBN2+oUszzMEAvoZxyX5chFHMkPL1RHzYNC0efScp5oDYL3KRiwScvKeKTe0NLg+kGVwIV5gnNTxsauqq2OQYCsaATRGEoULgqeJA/9xp2q1Ti0A9V6mR0+EJ4Y3QQWHlPCM8PQyIkL/TvhqrHmUXTwnCOdWhkI1qTSfGYEB5rC0dlL+lDKk4BY3NiqDlO2H2RKNYQ5RFDCCYEuNJT3pS8JgRFYBGUDqhS4SANUzx78FzTCjXiorUjEjxLbw/DBRlBoGIwwIlm300zQHDPgUKhcfOqLKICs/BA4+XnWYVCHbadmO0mTfeIq2sCwIoVd8GfZfszFRqL3fNYxEpaI/vRolG+UbAgD0CJXWeDlEQ45s8A/4GPYMhufPWfhtajTsxmqGAwsl+oVU6fIFnopziHTahzDrQCpl3ov4shTHOCEaphiopzGoaUsyNkmIdyroMKSsm5z2tYxq0Cr9g3xNZwVONks4a+tRey+hADoK7rSG0jbyj+x70bXTBeralK8+D33TR7zS/Ez2zBgd8M5hBo9AjtPTmN785KJbQY9zaGewxuuADpFmRQcCAH8Of6RyM08HWELruk90yzXcsyj19DalYDpK+D444rdnvGEroUxie4Ml+97V9yFmUe84swmGD4c8aQavsIZOVGFEYBNB/mz5lPAOeVUtW1ohImYzEIU29kh/sYXRQjKjYgWJH+nA9WQA4t3AUwG9xIPA36B8eavIOHQ7HY6lmH7n0WtqQwvlHTS96ADzN9FHT28ENmoQevNyplYWQi0cxQ8p33OMluqJG8Yv6eiR+Y7MhdCwFAgvVCBDF1Xfu8XOh/OLFgsggPFqaouBCeHiZvKKFImKpWm1piL5LUG7LyrjgPndx4uu7zozx15t3jr8hmAmdG36p7nWW3gZOpc82mfW7Z7nfRz1Sxn3sALDccNaOvG0UHQQ7CqR57xEaeOZt+M5/NYpI+35/bUOKPYhCSAc4az6Bl41IQ+55bqQx4NBgnrizJwolKYJEM4h+WAtvcIj3IAyY9FP2+FqsYzRjE2US+jNHBorNrrvuGoycuJ7BN+0BM4QRe9rXNRDJICUyxhRllLRA9g0pVNY6PpW6aevEHLZWfWm15HW1DClL6fM012VI+YgK3wg/QBZ6B9TLX/7y5vGPf3xQNNlLJpPgKyhgGG3wFJNxqc639hzmIArmDeeS2M57rvjctNj5Bd0TYcMI9d10UUaJXuDYgVcj603epWq17Tlkq3AuVek6wXnj1va8voYU+JEGb23SUzocuhDKLLqSPzfQlGDWCiPXG8P8tx0SzZw8B77F3ppXrXsKm1qGlD2LyNoTnvCETR4N3bHPfVq2RbGty7U3xOIaSwIFpFciN4eUd6UNKXOCIFPYi5Pkjo/6Dyl3/OIWM6R8px0eMMnYSRF2rNDG7SG9p6+tANUbD0Se8KhYLm7K8+TnbGtD67tfTdOqFsYfdwNKfb91xFu1OP+zvv3g+/p6IKyQH8OS+h2r9WI+lKT47Bnffc1HAhdFIEz7Ht5AR2hiUHqF0lJkbH4iUtTSoHhiHIAVtTlWc4LiQgcvL3i9UjtNSuu03xbfV9uQ4nkITTDlH+qU6AaE8oJw6NvFCeEOTVpECy+mTw0jOoyhSiQQBdTOEkk5ALxgGVIwl1rDeB54DhH1FLY+gu/5W2xIpaIWvj7Nn/mEoIfmeS7X0E6fkaovxLuMkcYYUqjXMKQsPRJ+QKTUPOO5hlTqfDRSWCxNxSKxxkMwvKB9L5tSDjwvb3MdfLVotcS8sSGVyj7xjVQsg8LqNfFcE5XymQhx9zmjZ2s8lKurlPjOec3R15DyMox3azuOwtcTm/PZnNzgjJJv6fTMQTaOTz1GF7Iod9eB1jUxqmlIQZ84vdA9kY1WWmDfE58fiW5GDTGZAshVcwymnDDesV+rhXof3EsbUnwLe515cbJaxllK7vigzaKc8VrMkPJtpiEelM2czi7+jAIWMm576j19bXmZ1lgBQiSv1hsPqTByn0MpveAcUxqAMVDSolD+8dahuKYiTmaAWr546jC5Ppur6xraqVuNR9e1k34nRTPnDDGrt4Hxs2HxCBOthPFTdIyXDKObYco6qZCE11FqrOmGFZNCi97DHDsB2gz9Wb6ZXGkUsEkDYUh7ZjoGWRpn2/XsjxL1Kl7x6atMG6/A6KRLU5y/zXciVDC2vPcpNb9PY2vrNDUL7nYvewKamHXwraVqLLxA8el1sSGVUrTjOipTNlECtt1227Amnuem5vC/lzyLymPcB3f4GsYfdD8pFQg+R6F7n8H3EB0iWuE74OUaUikl3aeLm8KKYwbvPZ5+9qXfV6kjGfzv0zj4+mBgqbxd13JdVwpW37Oy/HehiNKcJK4B9EYm3nuMVYZFQpB9doh4ao642ygpxNSglB59eHafZ1IDN+2xENMaUm0dl73D1fgxTkfSLDEeLDpltYE4tD1t+AyCOOuoDxZ9rkHeE5HsIytpnNOVdpzDs03nhC7RLxnwJ6JyVmfG39jnGP3oEehEpKIi77qOTvBZANBE23lVfXBquwZdCPk7aRA9oz4a/CalYLL2GIRdJSFe7nhHyVByJxe/YoaUZ4AsMA0c+h5gGyvyKYXIC208pV2heObE8oeIU6ktlmduXqk2YeQ9KKVbVuYu1rTX+0YdKa99rFTVikhRawDznXXAgFHGczooYtjTYQzFDOUFmqvZrb8AABXBSURBVEARxXNJJzOjg5T3HsZiqWspZd4rRrWEA3nn5Ph3DStQx5kxacDI7ZiCrjkn/e4ZP9d11RHiIKF2ATxpANN1Zpd3dqTOlPF8ASM4NnJn+Ta7F+UZJYE0rFlHLu5Wm5h6btzl1JT2uEYqlbYcHwybEliep6cMAv97DUMKvkXEswt3FBRLEe1anz5yyQxUZIKlfnta4Dwha38ODSPnUBj4J07tSzlV4nWL+S0OEbz2ltYT15/FhkCtiBSH+hIJ7TKSujDHkYfC1UcfiPWIVO1dXIcWr6nvJupT0Ow9fZYJf6sVkerLs7vwQ6agoHcp/Kl5YkOqzWj06enM01Z75yNSqYiId+6kHM8+im1dGUvXr+KcM+N6EraWFt2Ff1+e7c85pSzFd5VD/zjwwANXjgNpk5Xe+Z/i2z4STco7aayz7k///dAB6fukF08a0BHv12Xgo2fjkM5J/YeuuAe+geEYl/GkjPmuNaz9ezFDym+wXM9wrIylzt7ok9rnwTLPCGkxKe8KBhJ5mNamtk0BZB4O5eOd4tqY2osTz9/H85d6J49vKtXEe/1rH3YMnrMOvBvTMF8UFGrnUBBgPigr1OJ44Z2q7fPKfIpOvPIErXH9NEKvC5cu7FAIKADesGFDZ1fALkeEfxeUQUaqLjFWCidFpYg04Z2CqR5//PGrBA3KDWsa42ZMFY8xnY3iKLdP4ekbEevCOfU7tGNF0NPcb/fk4I4wo8Mme5LUj1hgxgaTnbvnHSc8N3XopLXitZqIWBn3DqRU3V+szNc6sNzavU/CHM8oXl2Mmq5914U/z6N2jH1ujSB82jU8mC5SOF8oBqdlM7/jteY+ryi21ZvG6xYr8j59py0t0w5brmkIMDe0NKuixv19jCie53kpegQ1ELE32+sC/oxDoxGfrp06F9DLw7ao1yx7PNZDZp0Lh2EXXbc9o68hxf1eQW1zjMR6Xrw+3hBgL/jjMHiGl6UpI3dWrOz+LlmJ84LMALIM2urtc3i2T1eflLnkM7dStdZWQtCWWunXqFZaG7wdeTdp4BSH3+HA6uKpXb/753i9PCV34nPmasmdXDosZkh5S5mUHVIi+qT2sWiE/S2PtE0Z8o0h+niQPLNMEbY3HiZFERBqd7jDHYIhldtAg8WwM0FyFyZ1PUKcELE/cK3PvH7zdjG3Gp7lPu9Y+xo2YCqC5c/cIYpDfq5nrL6bURtzM2Wfbxgy/bNGjRSpGdaRD8Yft8v2Sh/f3xa1xYgiYgRz5JwIvxZWrxMr8z5lMpUv7pV9np17bl1tmptlfuiVNLRJfLEtshEbOW0RKeuMxHvGvM3PneIJGANEE/FMtu2LWb4/596SNVLgDr1bqm/qPcz4RIm3Gtx73/veoYMh+wFcrBlLKiIVG1JxRMobEymZ49Pgh2xuk7NGfa/1crvNIet1gZTs7qqP8vJwrco7wzvHkPIpVW24eKdjnAFg3ecoEUgZqHFnwGn0qb501HVd6RopH+GflJXhDa4YY5/2aKmBk0oIUrXuXd9d6vfSNVL2Xl4vJ1Xbjlex3xdJ7ngsixlS/gN5QKrAM7WI3oMxqVjc5/33ST3rqo/yv09Sfr3Qy02hsPTBEnVBht0RRxyxcjBpn03hmVvKQ8rGpjiXegAMCRTeuBFFn+cs8jUICArG8RrTztx7WOO0x1ROtx2wmWJuPvJZO5rXhXFpQypO/8IDTwMI72GK63FSApgDBTnHBrpKRevMgxwLoK76KP/7Wms0EUeMUg4mr3TGtOeVyT41UrFQ7mpm4JWumpHALpo34x0eW6oVLsYUfDE1kAfmyCI1Cc+sRVKJGnjHDPenDCm/Z1I82XudU05D/3uuTOqD55DXwE9pPGNpQ6nUPm9oxoak91h31Uch70gb9YebDvntNZ6dY0j5+ht/HIV/r0k1sV2y1KdU1o4EdmFZ2pDydNtVc2cYxnyzy/nvf2+rYev67lK/1zKkfMQylZnW1mCp1HdNO08xQwqjgcYGtB5nxOeTpF4QwbfHHnuEXvl0MQK4tjQC60IHkaYA9vN7q5+/xzVVKCnWCawrDdEbUqloThfw4NIVJu2aw35nrr4pEnaPZ14IHTaAx3hROm/1xSD3Os/guDcOBfs0kZQnySvrqWhLV0F+7vvOcn0NQ8pHLXy7YXvPuOthfI4WueHUlND5ECeAT1GxQy7JySYnOlYavbKOFxoPaEqor0WFyBwcKOqkwKQi0Rj9pIIw4hQwT7cpR5GPJKZ4oFeY4uY+vsPX0AoR314yItW1/3y3w7YaD88TUrLK75l43eL6qNg49Py8ZmpUFw41f/cHw6YM0UnKlI8IpoyBrmL+mt81xNw5hpQ3Qtv0In8URSwvPbZx23O+3R8h0qXD1caqtCHlM6tS5RP2Pdamn9r9OFPA03WXvPOH19fGKjV/LUPKZ/dMkjspXWQIHOyZxQwpJiQtim5g1CXhacNLGOfIch0bFsWJ83kwojgwEiKa1DwAAqRInTm7uhTFNQJeeUZ5Y5MTMmQx6DbjuzLFi2HF8UNHG6YlEl/8GafgQKgouQj2mrU90757iftizz4eSJR6BkIaeoWhteUb+8glihMeUqNTitxpHU29RK185RwMShtSPNu839Q1cRimb1NuSqw16ojT77xS2PUdcYpOfK5cHOkiN5/OXNZZLKeLY9e7LMrvZuQfddRR4TBoP3AQ7LbbbmHvwpvi7nI+jSamW+ah+J8Oj4xYqYn3TJyCA63bgZvw46Ej2PMwpJA/OKCQLXZmE7hSl0VEyneu8pHcVIQW4+mwww4LGQBEeL38idP+vLJKKisNYix16uSTT15VZ7godDvrexAZgaZIj4ydAP4cqZSy79Me42gf2BIZtzOM4uyDWd97Ue634yl4HysHMB6NvmVHGkDPk+rPYkMJ4wM5gNxLncnoUybjDAF0QvS3RZGVpQ0psDZ+zTEr8EzoLx4mtwgcoMeaYzGOZKfkHed8kU6METO0vKthSMXdj2M93+TOImZOFTWkIBoEOt3RiHRsvfXWoUsb/8+mhVjoZkJLaZgZCsDBBx+84lXtYkTmJW3rKGP3e88IhEdKEpucQnw6nxE1Q3FDKe5qRWzesdQZNl3vuwi/e+YGFii7BxxwQCiyxMuNobjvvvuGbjKzFhUvwvem3sHohkMwWU+YF+0999tvv/D9KaFgQoi0RxQXsLND8Pbaa6+QRoRwOuOMMxbCiOJ9axhStKynVoeaEXCijT7tsRHAKIOWw4yABRO/n3xhchdtxK1cfdEp2EObrB0FrhgB0DD8hJTU3XffvWv6Uf6OEmSHM5KqB92RVnbmmWeGxjcogmCDM2jnnXfe5BtZOw6/tMYJNK7gevgekSyUqlS0ytdHcf0WW2wRaHy77bZrMOqge/gnhjWR/aFHbUMKWrSujWBmDYr4blNoaDpBh0EbtITG6UAGBWvFwdUYYxy9gAMRXIk24sjxw0fIabCyzTbbNERmbR481aQoo6ghz9bqwGMP74X2kNnUKUPP1E0gq1CmOKPId0YDC5/SyjV0XTz00ENDe2n0DuP3/mywtYYhyjo0ZhF/9CHoloFyzz/8Bs/GURg7sA1DjtAA++233z7ISzKOUKC5b+PGjavu84aAl5Xr168P/AY5gc6BEzuusx0C/xqGFN9hugY6J/+N4wN8oV32Pp0cCS7EstKXCJi8g+eSEUJjJpN38Iz4uJAh8KthSPksCs6RQk9DPqFvmNyB9vjvRZA7HvfihhSTk86DkgXDQwAwiP7g+WcghPFY7LPPPhOjQTGBWEqEPzMlRUQ+igDj5P/tjCSeTfgQpbArTc57v4ZsIjDtRvFhZIxWFC+YoRVLYxxSWI2wWatGFNjB5ElJgIn5ASYwds5vSI248yPKJ0IA7xrMDvz4/6G9Q/buNQwp5kaRZC+jQPPtfoADewkcvUC2iBJCvM8gKu0VUc9UEewM6tvgJ6wb2NNOdi3XN/DN8TENHkt4KHx2EgZ0OqQJgvE/ux9Bj2Gaon2vzKOwIzRZf+PjrBXOrJxuTH1oYNpr5mFI0QYcWjbl1L8rvBNDiiidH+Z8MH5rvyELOUMm1TrYp1TivceYsPtxgkH38LKcox+mxXXo+6A747f+XcDt2GOP3UR38E1WkPN2OK+d3wN+OM/WurzDkMJotGHdfvk3DjCjYZRS9JpUB1zS06B5099sLnQn+HFsxPuUU/gSh/LyDsgLDFqwx5jKaYNdk/5qGVK8M9lVGLKxrOQ38MMZEJ/hGNdHYfji8Ad/jArwO+iggzqPC6mJmZ+7hiHlU/mhYfRVHB4MsxkWSe6skgH/21Tn1gKfUDreiHPOOSd48xHeO+64Y/AidRkxqXfym7WtmYWvj7Lzo3gWSjGfigDq+2yeR9oF7546FLEWbqXmTRV/ohRjIFpL2mnbqpZ6x3nNw9qj2OCZZD3x7NPWfpIymDo/CkztbB/oqOuguXl9H8+pZUjZN5AKygGZZ511VthLHBRJC/m29rEoNn3ZCzh6LFNFp4Y9NLsoSvy81hf+c/rppwfs4aMc3UB3uD70Z7RPJAvlnEwBPJ2bb7558vXjZgdcB/a5/HNe2NQ2pPgOa31vrdDN8WT0nUqT4j74LVkaYM+1RJiIHqZkkK89s/orm4P5kV3THPswr3Wo8RzkNscAEPknkgJ+pGanDElfR21nHIE//7BPwHwZ5B10hozyNOrp1vPkSXiA50knnRR4Djxjp512Ck6blNM11SiB+9k3PGPRZGVNQ4p9AN2SfUUUDoMKng3PbZOVqeZoyFvWEfz6dMCusf/a5qxhSFl9FIY3Dar4ZmiIYTQ0z2/MeVaViFTOC+Rea2HntpqUOIqAldtH2Ui9B14ZQrN4YGOPbu57D3F91+F4Q7zTmJ7pmdvQxbF9cLOUrDG866Tv8fVRRLyovWxT+vvgomv6I+Bbync14uk/a90rzZBKdXir++Sys/sGIGu9LXdZ5P5vNl8fNangv8azl31OX0LQdSj7ImBV25DK+Ubv/MeIIKNr0Qyn+HswpMjQweApIZtzGsDlYDuva0dnSOGZ3WGHHRoK+jjRPPbQec/ILA0ArGCYLmRjbQk+NuY2L6Lv8xyUeauPGgtz47sQYna2TZ/vXMRr4vOjfFHuIr7vWnon3wJ5LMo8Xl+iOXG9zNjWJU6pJD1Koz8Cvj5qmg67/Z+kKz0C/oiVMTXlQldchFRDf37UmM6FI2OnVKMhn8o/Frnj98DoDCle3him7yaF4osCRh2M1VqccsopzS677BLCyrk1QCbUxrioKBV4ltetW9dQnAxzg+jBoW9a4zKLCvDDO4xBQlieZgYbNmwIkc1lS62ZNx2wh4lAkUrCoDU6+51UnmVIy5k33vY845/HHHNMaCjCwIClyxk0n8s/h/qOMT4XjzT8mlo2q0UjBXPLLbdcuhTWadbP5J11oIVv000Sr7749TSI9r8HuiX9ijoe6nmoj6IZALx6Ger4+iOVvhJ5RytzGnswqJ9C51wWeZeSOyeccELQucYkd0ZpSNl5B3gUTjvttFDHRPSJc2qIINkgLYjIFYoYbar7DpRoDDAWmTzXMdVjgA1FoieeeOKqYkdydDGoaNe76GHjvutU4zq8Q7SFpsCbWiobMDpooq04t8a7LNuc7GcK6UnR8YO9S6ciOnxOm6a7bFjmfi81aTQT8fyTOajVsW6NuXPq+m4ErJnI0UcfHerXbNCtDoOAgvNF6NLV/SXDXIEij+GPHuDxk7yrvx7oSdQZw7djWUk3SnQyGbLt6zBJ3tG8Bj1urY+1IndGaUhBXHbQJwWoWLBEkLwCZh1q8PaRQx93SWkjUOt0RySHM4co6B7T4P0POeSQVYyN98ejTDtdOulIGW1fUTxEdNwxzPyV0NoyMLeh6J39duSRR64qkrZ14AwNum1p1EGAnHc6JdmwTl/wjb333ju0QNYojwA4U4uJEeCbA1h3NZwHisS2447j0DrUGc3a1ThSOeJD8q483TIjHUFpLZ8adKa0yHadp49/VrKEiN7FPJf/59gK0vzW+miTO3w3Xb3HIndGa0gB9Nlnnx26hhEGtAPnZiE8GDERB+Y67rjjNjl8dJa5da8QEAJCQAgIASEgBISAEBACaweBURtSLAORKQ6L46ToEoOULlqsrvXzaUpgpTmEgBAQAkJACAgBISAEhMCyIjB6Q2pZF07fLQSEgBAQAkJACAgBISAEhMBwCMiQGg57PVkICAEhIASEgBAQAkJACAiBkSIgQ2qkC6fXFgJCQAgIASEgBISAEBACQmA4BGRIDYe9niwEhIAQEAJCQAgIASEgBITASBGQITXShdNrCwEhIASEgBAQAkJACAgBITAcAjKkhsNeTxYCQkAICAEhIASEgBAQAkJgpAjIkBrpwum1hYAQEAJCQAgIASEgBISAEBgOARlSw2GvJwsBISAEhIAQEAJCQAgIASEwUgRkSI104fTaQkAICAEhIASEgBAQAkJACAyHgAyp4bDXk4WAEBACQkAICAEhIASEgBAYKQIypEa6cHptISAEhIAQEAJCQAgIASEgBIZDQIbUcNjryUJACAgBISAEhIAQEAJCQAiMFAEZUiNdOL22EBACQkAICAEhIASEgBAQAsMhIENqOOz1ZCEgBISAEBACQkAICAEhIARGioAMqZEunF5bCAgBISAEhIAQEAJCQAgIgeEQkCE1HPZ6shAQAkJACAgBISAEhIAQEAIjRUCG1EgXTq8tBISAEBACQkAICAEhIASEwHAIyJAaDns9WQgIASEgBISAEBACQkAICIGRIiBDaqQLp9cWAkJACAgBISAEhIAQEAJCYDgEZEgNh72eLASEgBAQAkJACAgBISAEhMBIEZAhNdKF02sLASEgBISAEBACQkAICAEhMBwCMqSGw15PFgJCQAgIASEgBISAEBACQmCkCMiQGunC6bWFgBAQAkJACAgBISAEhIAQGA4BGVLDYa8nCwEhIASEgBAQAkJACAgBITBSBGRIjXTh9NpCQAgIASEgBISAEBACQkAIDIeADKnhsNeThYAQEAJCQAgIASEgBISAEBgpAjKkRrpwem0hIASEgBAQAkJACAgBISAEhkNAhtRw2OvJQkAICAEhIASEgBAQAkJACIwUARlSI104vbYQEAJCQAgIASEgBISAEBACwyEgQ2o47PVkISAEhIAQEAJCQAgIASEgBEaKgAypkS6cXlsICAEhIASEgBAQAkJACAiB4RCQITUc9nqyEBACQkAICAEhIASEgBAQAiNFQIbUSBdOry0EhIAQEAJCQAgIASEgBITAcAjIkBoOez1ZCAgBISAEhIAQEAJCQAgIgZEiIENqpAun1xYCQkAICAEhIASEgBAQAkJgOARkSA2HvZ4sBISAEBACQkAICAEhIASEwEgRkCE10oXTawsBISAEhIAQEAJCQAgIASEwHAL/DzhNOvqm0W1xAAAAAElFTkSuQmCC;" vertex="1" parent="1">
          <mxGeometry x="65.99714285714288" y="1108.9957142857143" width="850" height="97" as="geometry" />
        </mxCell>
        <mxCell id="G3RhWABNZF6Ew54WlCH--147" style="edgeStyle=orthogonalEdgeStyle;rounded=0;orthogonalLoop=1;jettySize=auto;html=1;exitX=1;exitY=0.5;exitDx=0;exitDy=0;entryX=0;entryY=0.5;entryDx=0;entryDy=0;" edge="1" parent="1" source="G3RhWABNZF6Ew54WlCH--136" target="G3RhWABNZF6Ew54WlCH--146">
          <mxGeometry relative="1" as="geometry" />
        </mxCell>
        <mxCell id="G3RhWABNZF6Ew54WlCH--136" value="1" style="ellipse;whiteSpace=wrap;html=1;aspect=fixed;" vertex="1" parent="1">
          <mxGeometry x="217" y="1335" width="40" height="40" as="geometry" />
        </mxCell>
        <mxCell id="G3RhWABNZF6Ew54WlCH--137" value="2" style="ellipse;whiteSpace=wrap;html=1;aspect=fixed;" vertex="1" parent="1">
          <mxGeometry x="327" y="1265" width="40" height="40" as="geometry" />
        </mxCell>
        <mxCell id="G3RhWABNZF6Ew54WlCH--138" value="4" style="ellipse;whiteSpace=wrap;html=1;aspect=fixed;" vertex="1" parent="1">
          <mxGeometry x="327" y="1405" width="40" height="40" as="geometry" />
        </mxCell>
        <mxCell id="G3RhWABNZF6Ew54WlCH--139" value="6" style="ellipse;whiteSpace=wrap;html=1;aspect=fixed;" vertex="1" parent="1">
          <mxGeometry x="437" y="1335" width="40" height="40" as="geometry" />
        </mxCell>
        <mxCell id="G3RhWABNZF6Ew54WlCH--140" value="" style="endArrow=classic;html=1;rounded=0;entryX=0;entryY=0.5;entryDx=0;entryDy=0;exitX=1;exitY=0.5;exitDx=0;exitDy=0;" edge="1" parent="1" source="G3RhWABNZF6Ew54WlCH--136" target="G3RhWABNZF6Ew54WlCH--137">
          <mxGeometry width="50" height="50" relative="1" as="geometry">
            <mxPoint x="257" y="1345" as="sourcePoint" />
            <mxPoint x="307" y="1295" as="targetPoint" />
          </mxGeometry>
        </mxCell>
        <mxCell id="G3RhWABNZF6Ew54WlCH--141" value="" style="endArrow=classic;html=1;rounded=0;entryX=0;entryY=0.5;entryDx=0;entryDy=0;exitX=1;exitY=0.5;exitDx=0;exitDy=0;" edge="1" parent="1" source="G3RhWABNZF6Ew54WlCH--136" target="G3RhWABNZF6Ew54WlCH--138">
          <mxGeometry width="50" height="50" relative="1" as="geometry">
            <mxPoint x="267" y="1355" as="sourcePoint" />
            <mxPoint x="338" y="1302" as="targetPoint" />
          </mxGeometry>
        </mxCell>
        <mxCell id="G3RhWABNZF6Ew54WlCH--142" value="" style="endArrow=classic;html=1;rounded=0;entryX=0;entryY=0.5;entryDx=0;entryDy=0;exitX=1;exitY=0.5;exitDx=0;exitDy=0;" edge="1" parent="1" source="G3RhWABNZF6Ew54WlCH--137" target="G3RhWABNZF6Ew54WlCH--139">
          <mxGeometry width="50" height="50" relative="1" as="geometry">
            <mxPoint x="261" y="1351" as="sourcePoint" />
            <mxPoint x="337" y="1295" as="targetPoint" />
          </mxGeometry>
        </mxCell>
        <mxCell id="G3RhWABNZF6Ew54WlCH--143" value="" style="endArrow=classic;html=1;rounded=0;entryX=0;entryY=0.5;entryDx=0;entryDy=0;exitX=1;exitY=0.5;exitDx=0;exitDy=0;" edge="1" parent="1" source="G3RhWABNZF6Ew54WlCH--138" target="G3RhWABNZF6Ew54WlCH--139">
          <mxGeometry width="50" height="50" relative="1" as="geometry">
            <mxPoint x="271" y="1361" as="sourcePoint" />
            <mxPoint x="347" y="1305" as="targetPoint" />
          </mxGeometry>
        </mxCell>
        <mxCell id="G3RhWABNZF6Ew54WlCH--144" value="&lt;font color=&quot;#ff0000&quot;&gt;S&lt;/font&gt;" style="text;strokeColor=none;align=center;fillColor=none;html=1;verticalAlign=middle;whiteSpace=wrap;rounded=0;" vertex="1" parent="1">
          <mxGeometry x="171" y="1340" width="60" height="30" as="geometry" />
        </mxCell>
        <mxCell id="G3RhWABNZF6Ew54WlCH--145" value="5" style="ellipse;whiteSpace=wrap;html=1;aspect=fixed;" vertex="1" parent="1">
          <mxGeometry x="327" y="1485" width="40" height="40" as="geometry" />
        </mxCell>
        <mxCell id="G3RhWABNZF6Ew54WlCH--148" style="edgeStyle=orthogonalEdgeStyle;rounded=0;orthogonalLoop=1;jettySize=auto;html=1;exitX=1;exitY=0.5;exitDx=0;exitDy=0;entryX=0;entryY=0.5;entryDx=0;entryDy=0;" edge="1" parent="1" source="G3RhWABNZF6Ew54WlCH--146" target="G3RhWABNZF6Ew54WlCH--139">
          <mxGeometry relative="1" as="geometry" />
        </mxCell>
        <mxCell id="G3RhWABNZF6Ew54WlCH--146" value="3" style="ellipse;whiteSpace=wrap;html=1;aspect=fixed;" vertex="1" parent="1">
          <mxGeometry x="327" y="1335" width="40" height="40" as="geometry" />
        </mxCell>
        <mxCell id="G3RhWABNZF6Ew54WlCH--152" value="" style="endArrow=classic;html=1;rounded=0;entryX=0;entryY=0.5;entryDx=0;entryDy=0;exitX=1;exitY=0.5;exitDx=0;exitDy=0;" edge="1" parent="1" source="G3RhWABNZF6Ew54WlCH--136" target="G3RhWABNZF6Ew54WlCH--145">
          <mxGeometry width="50" height="50" relative="1" as="geometry">
            <mxPoint x="261" y="1379" as="sourcePoint" />
            <mxPoint x="337" y="1435" as="targetPoint" />
          </mxGeometry>
        </mxCell>
        <mxCell id="G3RhWABNZF6Ew54WlCH--153" value="" style="endArrow=classic;html=1;rounded=0;entryX=0;entryY=0.5;entryDx=0;entryDy=0;exitX=1;exitY=0.5;exitDx=0;exitDy=0;" edge="1" parent="1" source="G3RhWABNZF6Ew54WlCH--145" target="G3RhWABNZF6Ew54WlCH--139">
          <mxGeometry width="50" height="50" relative="1" as="geometry">
            <mxPoint x="377" y="1435" as="sourcePoint" />
            <mxPoint x="447" y="1365" as="targetPoint" />
          </mxGeometry>
        </mxCell>
        <mxCell id="G3RhWABNZF6Ew54WlCH--154" value="&lt;font color=&quot;#ff0000&quot;&gt;T&lt;/font&gt;" style="text;strokeColor=none;align=center;fillColor=none;html=1;verticalAlign=middle;whiteSpace=wrap;rounded=0;" vertex="1" parent="1">
          <mxGeometry x="464" y="1340" width="60" height="30" as="geometry" />
        </mxCell>
        <mxCell id="G3RhWABNZF6Ew54WlCH--155" value="" style="shape=image;verticalLabelPosition=bottom;labelBackgroundColor=default;verticalAlign=top;aspect=fixed;imageAspect=0;image=data:image/png,iVBORw0KGgoAAAANSUhEUgAAAg8AAABPCAYAAABs4ibnAAAgAElEQVR4Xu2dBdAcxdPGhz/u7q4heIAQ3N21cC8cgru7u3twS+Hu7hDcQ3B3d77vN1X9VjOZvd29293bu/RUpQi51Wd6up9p2+H+/f/hbBgChoAhYAgYAoaAIZARgeGMPGREyg4zBAwBQ8AQMAQMAY+AkQcTBEPAEDAEDAFDwBDIhYCRh1xw2cGGgCFgCBgChoAhYOTBZMAQMAQMAUPAEDAEciFg5CEXXHawIWAIGAKGgCFgCBh5MBkwBAwBQ8AQMAQMgVwIGHnIBZcdbAgYAoaAIWAIGAJGHkwGDAFDwBAwBAwBQyAXAkYecsFlBxsChoAhYAgYAoaAkQeTAUPAEDAEDAFDwBDIhYCRh1xw2cGGgCFgCBgChoAhYOTBZMAQMAQMAUPAEDAEciFg5CEXXHawIWAIGAKGgCFgCBh5MBkwBAwBQ8AQMAQMgVwIGHnIBZcdbAgYAoaAIWAIGAJGHkwGDAFDwBAwBAwBQyAXAkYecsFlBxsChoAhYAgYAoaAkQeTAUPAEDAEDAFDwBDIhYCRh1xw2cGGgCFgCBgChoAhYOTBZMAQMAQMAUPAEDAEciFg5CEXXHawIWAIGAKGgCFgCBh5MBn4DwJ///23+9///ueGG244QyYjAn/++acbccQRMx5th5WFwL///uv++ecfN/zww5d1C7tuBgSYB9MfGYAq8BD0Npiju6saRh6qQrrm93nzzTfdaaed5l566SU39dRTu4022sgtv/zyNX/q9j/e559/7nr16uW22247t9hii/U8kFae0047rZtpppna/7Bd+gQYq/POO8/dcsst7vvvv3eLLrqo23333d14443XpW/c/td66qmn3GWXXeZWXXVVN/vss3vc33//fT8HCy+8sFtvvfXa/5DDyBNAHBZffHGP+9FHH13ZWxt5qAzq+t7o7rvvdocddpjbcccd3ZJLLukeeOABd+SRR7o55pjDXX755fV98Bo82Z133ulWWGGFhk9y9tlnu2233bYGT9t9j4CnYZNNNvGkd//993dzzTWXO+SQQ9zHH3/s5di8EOXM+R133OFWXHHFoS6+yCKLuJtuusmNO+645dzYrjoUAscee6zbZ599/B8jDyYglSGAy33CCSd01157rVt22WV77vvGG2+43r17uyeeeMLNP//8lT1Pp93o3HPP9Qt2yimn9G5DdsHitsWgoUxvvvnmSt2JnYZhs88LzhtvvLF75JFH3JNPPukmnXRShwdt5pln9pf87bff3Mgjj9zs5e28BghAHtZff31/BPOA122llVZyW221lcl6hZKDvPfr1897fow8JADPDqOoeA7CzrC4nHNCEvgv7ncZf/31l5t77rndDjvs4LbZZpsKl0Nn3YoFO80003iMRK54A9y6eBvuueceN9FEE3XWS3XI08ruF/LGPDC+/vprt+mmm7qxxhrLe82K0hkdAklljwn2Rx11lLv//vv9PcHZvDyVwe9vJOEKNncnnHCCkYcY/GeccYb78MMPvSt9hBFGaGmGAHy//fbz18DdM6wP2akRoiB8MfHEE3tIvvjiC/938zwkSwhkYfvtt3dbbLGF69u3b8+BeHPmmWceH4c3r005K4x1vPrqq7tbb73VETrCaybJvtyRjYFtDsrBnquCOfr44YcfNpzLg7nhlbFf5JmsssoqPoTU8Z4HPAS///67e+6559x3333X48IlBjbvvPPmdiOeeeaZ3tizkxN3ZKtz9dprr7kFF1zQx6qvuuqqVi/X0ef//PPPHgtc7OOMM47bd9993ZZbbunWXHNNN8UUU7grrriio9+v7IePecTw1ow99th+Z2ajHATQMaOMMoq/+EcffeQN2SuvvOJlGPyXW265cm5sV/UICHk4//zz3SWXXOIJBEYMsmykrXwhYdO3zjrruPvuu889++yznU8eXn31Vb+IH3/8cc+IiAPzh/9nkMV/xBFHuA033DCTgEEcSOLD/cg5RQ6uSbx0zz33dMcdd1yRl+64aw0ePNgnSn7wwQf+2TF8xDPPOuusTPNUtxf+448/HH8efPBB16dPHzf++OP3GJqyn/Wuu+5yW2+9tXvnnXc6snyTcBVepxdeeMFDRSx7pJFGavpdIP3XX3+9987osFir86BzGyC/xx9/vN+cXHTRRb7yhVwU5qGTBjKL1wrsf/jhB181Qs5GFm8r57799tvuvffe82uWeRt11FFLC9tAHtARZPhvsMEG/j6E7vg7eqOTB5tL8sD4k2dAaL/88sueirUZZpgh92Y5y/3wsDG/BxxwgK+Ik/BdR3oeEFxeBBbKTgwh2nnnnd0EE0zgBZkFMWDAAJ8NTWIHZTzsaBvFIyEiKAXcMWnHZgE8dsxee+3llQ4JVyyCYXkgeHhhNIE45phjOq5KADc2nqqXX365Zzqnmmoqx1yTzIUhLGuwqJdYYgk322yzdaQCfeyxx7zr89FHH/0PRCTCkb+x8sor54IOvYBBZy4o4ct7fqObQdKklBg53Xvvvf3hzAG5OsgxBKNT8k0wWOjNGPbMSSP9hH5E5mXtCm4Yd3TurLPOmmveshwMeWBzR2WF6HGegxJvnYOS5Vp1OAa5wU5BPvG+oivII8gyOJeKKmyJngM2y9dcc41PaCxynHPOOe7FF1/s2dx1LHmAaS211FJeQWDoL7jgAp/1HBsPPfSQW2211TyBYFfA7iA2mAxcYIACiZhlllmKxL7nWpRzcW1cnW+99VYpLLGUBy/wopA9PDDMH8lPuMBQYrIIrr76arfuuusWeMfyLoXXCxJLjf/mm2/upptuOjdkyBB36qmn+vwDjDqLrqwkOvJDILwo1jLd5kUmD8tsUK1AGG+BBRbwXj7WBNhphUgfkJ122inzBAo55wRIHSSkqKHJA88uChpsqHlnQ9ApJbKQNumNQMgF8vPNN994QnTllVd6yMj74rdw8O/MCWuUdUweDnkIyDt6lnkEh6L7LsSSzj/77DOv+/Fc4r0qmqgX3XwKsoCNgbAR+mIeRO9l9UiToItN41wwhqxNP/30Dm8u9pDNc5G2hb4ySy+9tA9XCDHuSPLw6aefeiWJ4cFdReyrkYuNyWdBoJAYTNpCCy001IK47bbb/C6FyWDxlBVD43l4bgzk6aef7kMkw9qAxbKzYZcmyZK4rvv37++VDomU5K9kcZ22EzuME4STPAN2DuEQQ5ZVKeR9F2SJXRfyGlau5L1Wo+PZzZMoiCevqF016xgSDXkIKxRQppSbilKlMRDvmTbEIMpxRZOHpJJMyAMuXXQLclD3vJNff/3V53Kh43D3694JGAqaixHCgATwTtqLwP8zN5Bj1qsehOzwgjFi56bNX9rvGETy2LRrX+ehIFOTTDJJ2mUy/866gvjjZSrKHvz444++KoeBHRpzzDE98Wdk0ROQD4geuTaE4/H+yLOxAYPAMYryuiHbEBVkYLPNNvNpAAw2fdhLbOvBBx/sQ4xV6Oumm0TBMslwhjiwo9NMqJFEaKUSC1/gdSDWR55EFeEEJp4Oafxh1100W868OtpwoChalIt2P8qjYCRwRaIU6owL78GzEnb55ZdffKw3HCjp0UYbrbR5ln4Z7PbK7C/w008/eSV3++23pzanyipSkluE1wRXLd4HPSDWYpwIAWG4JVkxdg/kheoT5gXPIaNo8gCJwnBhWJlbeZ5OIw9CAARH9JEQBGQKAoDOZOgNDu+Jh4iND+EJCIQ25Pp3zuUYiF8R5ZTkVsw333x+fsntkfsi97L28AzpvjFZZTHpOMg/NgFSVJRhhPCTMA4mXJNqMwmtZSEPHMN6CW0HskkOmcxbUeQBeeC64YDY84e1yR/mmiqwskdT5IGdKQwIBcZI8iDEHl6UH7/h3oKEaEWEsoGMkGiJkJbd5EUUHSSoCrJS9oTmub4wWc6JkQd2bsxx3T0PLFZCZ8jhJ598Eg2byTHMMzu6ouWqquZERZMHZIAEQ9kloXxCNysKdowxxugRrbT1jqIn1ssuiMqdMsgDz01rZLyUr7/+ek8lFgaBzQfPiFet7j1KQvKgdVBohLRBQ28h82KgYuRAvHGia/EGxIh1Hp3BsSTBUlXBrl2TB9YV3gb+nXB2kRsO3p2wYJHkIXxv8Xjz72nkQewUx+J1IFyhB9dCf1KxBmkjabuIge3V/WS45kEHHeQ9MniQ6RQMGSorNKvfoSnyABi0hGXkDS1odsr5uI60YpK4dZakyiImg4mQ7OyYEBRxjzpfA6GjXpiFqUthpY4eIldly9NmsCI+TPLcM8884+PqdMvEy6AHinOyySbzu3V2AkXswPT1dZtqlH5ZH8oqgzygdCSUiLLDIGhyxZqlUkJCF412UuJZ5BhNTov2PIC9YK5zG9idkeXO6ISKF/QPyagkTGKQqfwS1zcEgbBFDHdNmHnXmFxrA8cxyM7oo4/ezBL7zzni9SGUoPNYyGHjXcrI+q8bedD5PNpbpIFi/sSr0TLoCRdAfiAu6GjICvazqLBO2jPnJg/s7HCr0cOBIWGLtBvJ7+EuBoYmcT4MFrsJdrtJCUL6PrB2lBJeChKGqO5gsGjYSeNCnnPOOX09bCNlLm5bnoNWwkUblqzYNHscAkS8lPJYevuTx8EAT0gBipyBS44YqR6yg2Me5dsAzC0u0m+//dYnX1XBYpt9d1GKuOkgtQzyNFhMKFRZSMQDUcyxsl/YPL8hL8TLRR5Rktddd50vvcJLhmxCpmJDkwcMWFGu1fBeRZMHrs8ukRgqIQAUUPjNAsgD+TD8zkgiAlJdQdiDXT9yh4ey0Tl4Hk855RS/myLhT/DlnhdeeKE3nITV6BoJ+QsHso6+4H58gAy9wdq/9957vWu9EwbvDnahN4w1iSwz0HGQIb2bZ21jxAhjHXroof9pVMY5EpIVDELygJ689NJLvWwz/4IvOv6GG27w2BNXX3vttYfKr8GzJAaUYwYNGuRlh9wB5r1oA1ZG2CKUjayeB0gBVUTgyyBUis1g84IOAY8ZZ5yxoeeFNYSXCU8fm1fRsVwTG8R1mHs20Un2CLnnOiRMUqLLfVk/JNamfW+niHWRmzzo+CcPiks7j3uKCgd2NzI0+UBhwLTpJpkWJyK+DegoKhQ3z8J/UUQINnEoFiXA8nc+kpPkOhKGziIqyrVXxORkuYbsXHh3BBFChQvzpJNO8i5jqYIhXsjfEcawMRYEgjJbMIc4gAPJh1TE1J04gBEY8G4QRT1wWaNUebcDDzwwWuEDweI83pMFi8JExoktsouCkCFj4IdcQjRj8US8Hxg4ZK3MJD0h30XmPIAZhAccY2tZ72BxSZMQGquownNH+OPpp5/27muUYCPyIJVaXBOlicFBgUNawZh/Z6PCGuY3/hvmY/Ds7HghjhyDwiU/o8ieElnWYdHHMB9rrLGGx4P1yHyTkxIOSAfvHdscSekk56Afn3/++Z7jIB4YGPBFtrkHOV/oEdaK3Iv7olcGDhw4FDmhyoW1wrpgrkRnFE0ceP46kQdtw3hvvEZsXqU8HJKNHsAjFisIkMaHyCr6mmMJBe26665eNzMvUv1BFQ5kOPaFWMJ16CcZ8m0d2uUX1VCxkVznIg8IKm13hXE1KrdMuqk0Z4qxYe2VQCA1ydDXkwxlBAoDKS5VhJxdChMg4LEDpXyPyWUxxVicvm+SC6oRiMS7yc8oauSph0f4cB2i4DFgYkDBAsE9+eST/a5B3Jy4lZMqSyARUgbYCaQhxJvFGhp2lCKDHWmsSoCFTNiGOcTLAAFAhhh77LGHV1p4EZARKhKQyyRvGx6MsjwOer0UnTCZJreSGMZxSWuedYNXCyMu8tuIPEhCH4SN49gtQTyQW/6NHTEeENarEEPmBUUdIy5cD/LTaV5Djf1XX33lP/AFgUWHSXUF5e9525wji3jRpEGfrpKRcAjkmrmVpEzRn6wjuR/rhp496BI2YCFJAXMIOLiXQRoEnzqFLbSHAlykdxEl4gyKB6QRIqEd7QXAq4MewRZRUiwhe2Qb7xLkDfmWcDprgutm7TmRtpaL/D0XeQjdYGnegfBBZZcsyVmwYdiuuOsQdGFqKOswbi3XQ+HjZmYHhNAS40SpI/zydT05FuYscbkkYiCZ+JyTNzbLwkFQ8HYUMWCyCFBshxVeXxQw/w4pg70KfrEQjLjuY0lxRTx7Ha5B2RKJZOFABlDCunxMlCgkgVp5Qj9SS0/sUL6BwrWkqxvkq6y8iSz4lRG2aHRfKePEI5VUVSWJfdIcS4hnI/KAEp188sl9WAzSgReR0ENsDTJPuIFZ492clwRe6DVJgkQXYDggbHnLHrWBQ17RazIv/IZ3krlF91JuCEGDaLMJYV5kyDzx/zJXWeS06GOqJg/oBMkDCt9FJ6LyWyw/j+qXXXbZxWOKh0AIL3oFW4HdQ6eIjYutLbkP18DbUUS+SpHzkos8QBaI+8pIKotLekCUDEpAEoBgvqIwOEcLfNK1ISAYa/4Lq2MnInHSWJ6EnmgWJ661cOQJl8TeDZaPmzFtiFtJHxdj643K4PS5kB6EUnbVkmzKMbHmWnoHWVTyVNo7V/k75InOcBg6yFPYhAw3IbFwKS1DdnDbghWeKil9Y7GGFRnMMTsFFDvXwTVfdMVGFqyqJA+6BBZM+EKo/gCYPC9yh6LVSpLfGpEH6YpIZQdrQDyaMWImcp61O20WHOt4jOQ+8F/+0OgMQ8OuFN2btQsuDZqWWWYZn6uDfGP0tdsbvQsRQzdCIMTDi5ct/Fig3jC2k7jVmTzEep/ojbDYOdEhyDj5ZdrexTat2kufd1NbhXznIg/aOMGKUbBZDR0vE5YlhSVf2tDr2m0NBIsKxYO3AdeaJDtyTMyzoCcgtjg4T2cu4y4lcasTBsodbwIVEwxJNo15FnRDLI5tFBZq5d3puCau0lauQwOarMqS+2DU8S6QNCSuv1i7Ze3tIuYOwWAhC7EFl3CnJjKiQ3Z5iXMWLHBbE4tuNNitEAs//PDDh8rxCM9jfeTtz6+vId0LcadixGLeMIgX3q5YWKgReeA9SQBkrekYcsxA6bAi9yqrXA95IfTX6gAnSd5u5VqasHIdnVyedF1N+MCK74qEzcTQn3Rf5Tl1XkTMQGmdnFa+2Oy7YgfIc2k0COMga8h9o/AIek5vcPM8kzbmeTwPMS+5lll0EmFR8omwoZAJ1qWu2Iht5vTveb38ed672WNzkQf9MggmLuKsyZKh8SIhh3bVOkasPRtZGu2IFwLBQsGxi9FkJgyTJE2AbsaSRDCaBbiq8yBbuDZJ1om50cIM4bI8DyS1sUBaHRh5DFKWHALtOcIA6MQyFDC7KXbG7FwZMQ+VeCH4PZYTopUBCU5kVhfteZAvFKZhxzvyDNIdL+l4lFSzRJhMcPolcB+a58Tc5mLceA6SuiTuLXXorDe6YTL4u7TrDZW/JvixXivagJVVwg15JGSF96TV0Qru4b315ggjRKi20YZNl7qzEUorGZZOiMwhXogwVKx1fhnkgbVLyDANd0g96zep2knjlscu6fOaJQ+xjURYVRgSDNYOuSaygQ7zScJeSh3veZCYOYDn3QGENcexRjNZwhZ6snUddKzfhG4fynmN6nHpF84zZSkRbVW5NDofxdtM4pF2L8bcaHp3F+aaFP0+zEurg/hsmuKTe8gOuVHPEVy37EhQQDHXeJoHqwoDxvukYYcSomoIY532/YxmyQ2eI7w4JHZRsqd3rih75gWiIJhggCQxVYfmyBiXbzMwN3jE8JyQxKznVgxYrGkcmGgDVqbrHIXN87U68uKO8QG3WAOnML7eyIiIDJMcDu6S44BOCfvr8I560xTLkQoNWFlN9HgOPCaNBt5BvFWEztKSYvPiL/fNSh6QazarjKTOxGnkgTmXHIYYKdMbIu7TKAewVXlt9vxcngftGSDuS4w5S9hCf+iKB01SAHrysoClDWbM6Gc1mOzaaaUKeWjGPcRzY5yKGCx06qVx2+cZYkA5B+HWSU/8mzaOZewg8jxrkceCl3wvJS3kJBgRDoHpi1dDt/JNCvlQtimJvu0kmGXnPMgHsiBYfKtGG3kxQGLAMCax74jI/LJblPwm8ZSANdiLgtcdXjFgrD9d6RO2aG6mGqpIeSv6WkKMMEY0NwurKrRO5N5J+klIRuzjZdK4K9whawMX08kcT04V3swsXo+isdHXq1POg87B4RljIfaQPISeXk0KY4RQh/jr2n8oF3nQwgRoSa2AQyHShquR21Eb+yxudW0wY0pF37eRwtcsMK97SIxXEXF+cON6NMfJU6cLOaMMkT73GD/KRnU4SRtH3JO4CGMNd8pc/GVdW8d42Y03ineKIg4XY+jBCj8Br3+vqm16El5lkgcaNuHNwOOA9yoMGYkRkrWGrCYlCvMbJdJSYsbc0AU07Emg13xY4QIGOpxUVsiiLNlMu65u1c+xsRbTYZJ6TD8xL5THkg8Q+7ifVKeF3yTR145dV+dDlOnxScOJ3+tEHsLvhsTCFnpuYxsSnbwe2yjr3/PapCx4FnFMLvIQ9sHP8olekptI8CIDnlg0jCrJLa9LJtP65+t8B4AIcySk2x0lSLH8Cg2eZomxXXsa0DwLLr4iRlKjnkbX1i4uDCPCpjHWCrjdSqAIjMJr8E5JTaD0sUI2QyKpQ2qxnJe0XUIZ71Q1eSD5mQx9SCslrdo1LDkMlA3ifcniFeT5dZgzKdlPG6hY4yvZmXcb6QWfcHcKeZAwj8w/DcfkuwkYIXIedHiDTQtrnu8bEP4JK7pIROTfCdeFiaY6HBTunnWyZjPNAIteE3UiD7ybltuYrdItAsLkS53vEHpBxZZJs0TKdKlIbCaUXfQchNfLRR44maQaXGvyFS+EN3SRcxwAkcnO7gPiQByOxKhGCXBaYJPKKuUFwn77Oh6HsmPRcW8EnzhZozppMQ7t3lU2O9k6fBN+9RClgFGQ780zB2kxw2afo13nIZMYPdzdZJfLp4j18+BCZ3eGLBJu0/KgPVQsZpSsYMR59CGgk1sdPttehueBdUdiIwY+baTly0iZIdchpEHfAgbrmVAIc6Rj8TocFIbTSKjmubgmazRP9U3ae9Thd7w2NCUj4Zs1iudQl1SG1RahZwa5p2JCdxlMeq/QaxN+dCvUt9JJmDwUdDzeqHaOssiDNBeT7qbiucTgk5vDv/MnbJqnN6exygz+7cQTT/RJzXh8tL7Rnm4wDb+kKjKR52vV7Zib3OSBh0T58r0IFCutMNn5rbXWWh5kJoMGGDTYgZFhkJkEauizDGHDjUpluI7eLSLgxOTYUZJMRqwWpQX4xFfTyqZk59rO5j9ZsEk6RodvwIKdCDtxys5Q4BAr+h9A5urIYFt5dzlXQhLUxMPWyeBm3lHA5EIgD+zCqBzo169fzy11FRDYsUNDHuj1D4ngPOrl60AceOgyyIP2EKTNBYnSGPUkAgpOxO5FKco3cFif9BMAb9YkYTXdsRYli4LG9Y6n8sYbb/TkH32StWla2rPX8XfKhWmFzgcC0X0YL+QWWUUH6oRT/i7rV7evzvJeoT7VXg/knnWDHqGEc8CAAb46Cf158cUX++84tHuUQR6QPzYaQhCwZ0LEwEM+ccC7Uw4ftpqm1wukj5wQiN1uu+3mE27xyGP/wBXZDfNYtCeTbrF8k4W5RfdwHbwWhPjY6BX1Nc4y5q8p8sCD4OaEWWGQ5IM5gC39vRE82C7to/N0R5NEkaR2qAKC3i1iHOkOKN9s4N646jAiaaWkGBe+EMq57UyEa3ZyEVbK8aRclf9iDKRLHYSIls1kz3crcRDs2CGhgOXdNaaEriiFDHdQOp8BtzE4sfDxrLH4paFLlhKxZucwz3lFkwcpZ4aMZxl4ECFmSQPyoLutSshDZI//p5SOhMkw34FrUlaLPsGDhgLls97dkp+ThBkeBNrIExKScmI5FhwwKNLuWP4dvUVpaZZ5A3Nw1Z4bnYhJsjfGSxr2oceZZwhHs5ULWWQpzzFlkQeIm8ioPI8O/YjcsomIfVuEkDC2BrulR6NvW+hwEWSFj7uJzkL/oHPwyNXdQ9w0eRCgcMGwk5AmHzA2vuxIeVea4Y4Jjw5HoFxiiiPMjsctRFY4TBJBIDSS9d7cD3LDeUkf/Mkj5FUfq/GSUkV2JSgXBB8c6i6ERWLGu9Pv49133/W7CDxjffr08XMcw0Hngwh5BFP5xgf41ek7H0WTB7CHgIYKNGlOdNghdoy4gflNEwb5f+4j86D7O0jcWLDnmLoYriLls9G18Abg7UKXQlwJYdCYLKmiLU+eVfjtiTBhjzwKsGdwbFb9WRU2ZZAHkf2QNMQ6ASP3SZsvdA5eiCFDhvhLoXP4omsMQ46FsCDvku+gc+awXVlL1KvCPuk+LZOHMl5AmFmSq1j3um81A1tc/jBtYo6dNtLKVTvtfap+Xh3yyft5+aqflfsJeUhLKG7Hs+W5p27g1olfs83zrnU7Vve/yduvpx3voivaYh/nasczNXtPne+QFppv9h5VnVdL8iBfHsP1g4szZGI636GVWDQkhI8oYYDDD8JUNQGt3kdnY3dbDXyr2KSdr/Mdmmm3nnb9sn5nnusSRmn2HXXH07rWsTf7bnU/T3/sqlN6vpC/hYeslXbrdZgXHS5qpqdQHd5BnqGW5IGHkzarGmCUPaEJYtcSdx00aJDr3bu3dxHljenLRHYiA8RlyR8SVUmwITEVFzyu3k5xe7VzIYAduwCMMIlSxNdJ0svT2bKdz9/J92YNEyKUz8dTAsp6x2U7LIXYqp5D0Z98el7alkv/DXRGXv1Z9fN38v0I5+Hx6d+/f0+zOZKJCUl1aniutuRBypTou0DXO2LWeBmoQSf7XQY7RrpdsgOnpC7roISR8j7O158Fz3p+O48DG5rBkMmry7RIroJE8OXILJ0/2/kO7bw3u15IF0lKUg3A8yBHZEYTyjACVs4M4eEjwSxMamXtkihGsm+dckzKQaE9VyXHhKKItNMAAAKDSURBVCoKrT95EmLvJJc3+x2U9rxN59xVwi4kEkvHVZ6e/EA2LyRjxj46V/c3rC15ADhpXINRhCFT4iJKR2dx83fyJLK6tDC+LBQ+4hR+RrjuE8bz4b6jdAjDJ8k9Um4EGaI80xRw8kyy85XGO+Fui8VM9Y2NchBgvV100UXRZMrFFlvMV7vYKAcBPK2U2cpAb4r8UxXXq1evcm48jF8VnNmQ4OEUzDX2tDLoRI9brckDMsdniqnFxa0Ma251MGnU8ePBGDhwoOvbt2+rl7TzDQFDwBAwBAyBYQqB2pMH8UAMHjw4WmfbzGzhvaAxR7fXjzeDjZ1jCBgChoAhYAikIdAR5CHtJex3Q8AQMAQMAUPAEKgOASMP1WFtdzIEDAFDwBAwBLoCASMPXTGN9hKGgCFgCBgChkB1CBh5qA5ru5MhYAgYAoaAIdAVCBh56IpptJcwBAwBQ8AQMASqQ8DIQ3VY250MAUPAEDAEDIGuQMDIQ1dMo72EIWAIGAKGgCFQHQJGHqrD2u5kCBgChoAhYAh0BQJGHrpiGu0lDAFDwBAwBAyB6hAw8lAd1nYnQ8AQMAQMAUOgKxAw8tAV02gvYQgYAoaAIWAIVIeAkYfqsLY7GQKGgCFgCBgCXYGAkYeumEZ7CUPAEDAEDAFDoDoEjDxUh7XdyRAwBAwBQ8AQ6AoEjDx0xTTaSxgChoAhYAgYAtUhYOShOqztToaAIWAIGAKGQFcgYOShK6bRXsIQMAQMAUPAEKgOASMP1WFtdzIEDAFDwBAwBLoCASMPXTGN9hKGgCFgCBgChkB1CBh5qA5ru5MhYAgYAoaAIdAVCBh56IpptJcwBAwBQ8AQMASqQ+D/AL7N516CzGMLAAAAAElFTkSuQmCC;" vertex="1" parent="1">
          <mxGeometry x="84.00379310344837" y="1539.0020689655173" width="527" height="79" as="geometry" />
        </mxCell>
        <mxCell id="G3RhWABNZF6Ew54WlCH--156" style="edgeStyle=orthogonalEdgeStyle;rounded=0;orthogonalLoop=1;jettySize=auto;html=1;exitX=1;exitY=0.5;exitDx=0;exitDy=0;entryX=0;entryY=0.5;entryDx=0;entryDy=0;" edge="1" parent="1" source="G3RhWABNZF6Ew54WlCH--157" target="G3RhWABNZF6Ew54WlCH--167">
          <mxGeometry relative="1" as="geometry" />
        </mxCell>
        <mxCell id="G3RhWABNZF6Ew54WlCH--157" value="1" style="ellipse;whiteSpace=wrap;html=1;aspect=fixed;" vertex="1" parent="1">
          <mxGeometry x="195.5" y="1714" width="40" height="40" as="geometry" />
        </mxCell>
        <mxCell id="G3RhWABNZF6Ew54WlCH--159" value="3" style="ellipse;whiteSpace=wrap;html=1;aspect=fixed;" vertex="1" parent="1">
          <mxGeometry x="415.5" y="1714" width="40" height="40" as="geometry" />
        </mxCell>
        <mxCell id="G3RhWABNZF6Ew54WlCH--164" value="&lt;font color=&quot;#ff0000&quot;&gt;S&lt;/font&gt;" style="text;strokeColor=none;align=center;fillColor=none;html=1;verticalAlign=middle;whiteSpace=wrap;rounded=0;" vertex="1" parent="1">
          <mxGeometry x="149.5" y="1719" width="60" height="30" as="geometry" />
        </mxCell>
        <mxCell id="G3RhWABNZF6Ew54WlCH--166" style="edgeStyle=orthogonalEdgeStyle;rounded=0;orthogonalLoop=1;jettySize=auto;html=1;exitX=1;exitY=0.5;exitDx=0;exitDy=0;entryX=0;entryY=0.5;entryDx=0;entryDy=0;" edge="1" parent="1" source="G3RhWABNZF6Ew54WlCH--167" target="G3RhWABNZF6Ew54WlCH--159">
          <mxGeometry relative="1" as="geometry" />
        </mxCell>
        <mxCell id="G3RhWABNZF6Ew54WlCH--167" value="2" style="ellipse;whiteSpace=wrap;html=1;aspect=fixed;" vertex="1" parent="1">
          <mxGeometry x="305.5" y="1714" width="40" height="40" as="geometry" />
        </mxCell>
        <mxCell id="G3RhWABNZF6Ew54WlCH--170" value="&lt;font color=&quot;#ff0000&quot;&gt;T&lt;/font&gt;" style="text;strokeColor=none;align=center;fillColor=none;html=1;verticalAlign=middle;whiteSpace=wrap;rounded=0;" vertex="1" parent="1">
          <mxGeometry x="442.5" y="1719" width="60" height="30" as="geometry" />
        </mxCell>
        <mxCell id="G3RhWABNZF6Ew54WlCH--171" value="" style="shape=image;verticalLabelPosition=bottom;labelBackgroundColor=default;verticalAlign=top;aspect=fixed;imageAspect=0;image=data:image/png,iVBORw0KGgoAAAANSUhEUgAAAQUAAABKCAYAAACy70GcAAAP5klEQVR4Xu2dZ8wVRRfHB5EmRkQEUWkhARSVD4hBLCiEXqQkBsHyRUBRQD6ggC0mUpQWCyglBAGN8IEooKIoUhREmoYmKCQqVSAUFez6+pv3necdlr135265hT2TPHnKnZ2d+c/sf875nzP7lPvn36KkCAKCgCDwPwTKCSnIWhAEBAEbASEFWQ+CgCBwBgJCCrIgBAFBQEhB1oAgIAhkRkAsBVkdgoAgIJaCrAFBQBAQS0HWgCAgCDgiIO6DI1BSTRBICwJCCmmZaRmnIOCIgJCCI1BSTRBICwJCCmmZaRmnIOCIgJCCI1BSTRBICwJCCmmZaRmnIOCIgJCCI1BSTRBICwJCCmmZ6SIa559//qn++usvdd5556nzzz9flStXroh6J10RUpA1kFcE5s+fr6ZOnao+/fRT1axZM/01efJkVbNmzbz2Q26WGQEhBVkdeUNg1KhRau/everJJ59U1atXV6+99poaOXKkuvjii9X69etVo0aN8tYXuZGQgqyBAiPwww8/qNq1a6tXX31VPfjgg7o3vPTroYceUtOmTVPdunVTb7/9tipfvnyBeyq3LzlLgYX0+++/q0qVKsUye3/88YdenBUrVoylPWnEH4GlS5eqLl266A/XrVunWrZsqX9+//33VefOnfXPv/76a2zzKvMQHoG8koJ5HWRYYYnr7777bnXy5Em9q1SoUCH8yP+98u+//9Y71bZt29SSJUu0SSslGQR2796tWrRooS666CL1xRdfqBo1augb7dq1S1111VX6519++UVVrlw5mQ5Iq84IJEoK7Ohff/21Wrx4sX6QDRmwMHr06KGuvvpqrUC7FB5gCIEH+KOPPlKXXXaZy2WBdX777Te9WOkb7daqVSvwGqkQDgGsMubbdhEQHvv27avq1aunII6oRB+uZ3KVjUAipEDICXNx/PjxWmWuW7euuvbaa/XX2rVr1Zo1a3Qf+vXrp1588UV16aWXBs7KY489piZMmKCvvemmmwLr51Jh+/bt6uabb1a33HKLWrRokfi1uYAXoS5Ef9ttt+k18txzz6kRI0ZEaC2/l7LGP//8c7Vq1Sq94dWvX1+1bt1aNWnSpOSJLXZSOHDggOrTp4+eaEiAyW7Xrp0Git2Y3YId4a677lJbt25V1113nVq2bJkWoTIViIAH9tFHH9VEk0QhTDZ48GA1evRo9cQTTyRxC2nTg8CCBQv0OmBzeOONN0oGnyNHjqjevXvrNe4trNPnn38+9o0rn+DESgoISJ06ddLMCTHMmzcvI2t+//336tZbb1V8B8iPP/7Yty4k0qZNG00gO3fuVJdffnki+CByNW7cWP30008Ky+GKK65I5D7S6H8RIATZsWNHLT6+/vrriSQwoUHx5eqiuszNoUOHVIcOHXR/X3nlFXX99dfrjW7OnDk61Mrar1atmraUW7Vq5dJk0dWJjRTYzQkrnThxwnlHN7szqLz88st6p/aWd955R3Xv3l0NHDhQTZ8+PVEAsRKeeuop5/4n2plzuHF22vbt2+vQpAlPYo6T3RhnYT737dunw6BhxW27PxAMVo1xgevUqXNGdxG/e/Xqpf8GMXz11VeJbWJx4uRtKxZSgBC6du2qWRLmR1h0iTczYegNFK5/6623zrAWWCi333671hEQGK+55poksVAHDx7USjjJNFglVapUSfR+aWz86NGj2p20CYGUZ+Z54cKFsQm9PMBoFDzAq1evjsVaOH36tLYgWedoUJCArYdhMTRv3lyvVUqpuqKRSYEIA+o95j1Rhc8++0w1bdrUab0DctWqVcvqnjp1Sl1wwQVlv2PGG4Fy48aNicewjasCCRGixPKREh8CPPy4gugIWH4UHl7In3lnLcUVfUiCFHjY0cBM8Vq35p4I4pRcNsj4UI7eUmRSGDNmjPalKA888IDOTnMthAMJLcK8FIQbGNgU0zaLCCEqyDfkocZC8dZjMTJhLuYpYubEiRPV8OHDdbRDytkIhMEZ/O+55x713nvv6QfLNufZydGXVqxY4WRhusxJEqTApoWl8OOPP+ouYBHj2toF68SI4axlxmQTHf0yh8G86xRyBBcXK9sFg7B1IpHC/v379U6OjkBhZ3e1EqgPyBdeeGFZ39EPcCMoAHfHHXfoRTRlyhT18MMPZx0jdVCz8eXIp0e8BGQy5vApmUj6NmzYMJ0fkakYDcNvQsOCfC5dFxZnO6PRDw92VbCPw/en/SRIgXYZB2Fr1r2fBmZC59RlDa1cubJsMzLJcjt27FDoERwEI+rG5jhz5ky9filkeN5///2x5eLkuv4ikYJtJQDSpk2bckoXhlRssca2FEw0gAM0QaY8/ZgxY4a688471aRJkzQxQCb8HZMPU5XFRh2sEib2xhtv9MWKkOqVV16pP/O6M7mCG7U+CzuuhyRqX7g+Cs6QPO5BpsJu6mLJuY4jKVLg/jzcflarvZFRz3YvuIYN7+eff9brCwLghChiO1m1uN4kceGGk9CF1oaV4ZLD44qJa73QpAC7caqNh5YSxtwmZHnfffeV9dV+CG29AUHSPKjegSEOsvMT1iLEhc9qkqMAmZN45lwDde69915tRSxfvtyXwOz72paLK6DcY8uWLa7VA+ux8xRiYSSNc+DAI1ZIkhQydc1oYHzOQ71hw4ay3f7dd9/VkQsEbDYtW0uDPBBeDSmyiWE58B13PN8bQ2hSgNFgOlM++eQT/bC5FmNKmTAjfiZionmAbYBhVxtE+x4wLckipFMDntEoaG/z5s1n7D6IoCYbMpP1Qf69ETuDLBS/sWJew/RxFHaPF154QedPFLrEjXPS48k3KZg0fDP3ttXLZ+gp9IlNg1ClESz9Qu3kPxh3uRDWamhSML63mdxsD67fAsDSYLGTvETxZivCrEb9zwQM5hpCD6wMo+Kr4cZQ/HQIu81MeRH0i5AZk+onJAUtZiMkBdWDwFwOiIURnViEcRRjIhuccfVwwUyGaRSco/bPJCZlawdtiZAkfn2QSB30eVB/jRVKPft4OL8bV3jcuHH6/A5rc8iQIbpJv1C7rUvkIxTvHVtoUrAHRqOY3bnE9b2kguVhHmjasz/P1jbmGOY1X3YylB+Y9ucAj4XhLfi9bdu21Qs/ybTqoEUW9vPDhw9rAcsQTth2uJ4UdfOwsLvxdqS4cA7bL66D9HjATBQgU1tYhmw6ZNdmK0acDksMEI85Fg45+IWyjeVgrAYsCg6BYeHarwEwCVLG4gjjwkbBlmtDk4I39EKasus7Cdh5MKfMwP1Cjq6kYACgTfSCN998U1sO33zzzVlg47ex01EyWQGlTgpoPFhBUQsPCm9K8gvvBuE8aNCgsuzTMNZWUN+ZIwgL6zRb4WEFjyBSIFkNqyIMKZD2zLshiMAhYAcd1sNq4NAUZOW37rFUb7jhBi04Uki7tyN0QdjE8XloUhg7dmzZwaFswp1fJ+0kEBYfZr/3rIGL+2C3bYPtJ9CwkMhTN9lmmcRL231AbX/88cdzwtnVfXBtNIwiH7f7kAvO3kWdTSR2xcCvXpD7wOeQGsTAScYgsS4MIfA2Kc5BcC+iCXaoGwuAdG4774Zx2FqZn4trR+SwnPORtOfFNzQpeLO7XN0HeyemM5hb+FnewmQaQF30Crs/fm3ak5EtBwGhkYnG3AsjNOKixCU08nDPnj27KIRGMz+54mzH6aOQQK7XJi00mpRm+sUpX+9BPVxP3BcIydaFgvQEW5sIE9HLFSe/+qFJwRuSdE1cskWUAQMGlJnz3s7ZoUEXsSUIbHPYiftk89OihiTJvPzyyy/jmBu9uxVLSNIMKC6cYwEoSyNJkoJxVTHxP/zww7OO/ZszO7gS9lF/2232c3G5jpcPkWND5AkdpxCndUOTAvNhLxCXVGR83aFDh+qpxM/LtqOaNyKZV6VlO4fg1Si8r/Xidw464ccFnba0syxdLJQkF3exJS/FiXOSuNF2UqRgQo9kyhIuRng182TE3W+//VZHF7xCtZ2Qh7XqPahlh/nJ4UF3K0SJRAowG8lC5mUTmEq8fcZbAOORRx4pswpcfHUAJvkIXy1T+NDcx9YT+Jtdn52/f//+WoCkvblz52bNnMNlIL0aZRix0lU8LcTk5fueceKcdN+TIgU7izdoDF730+tyk+Rm8hXYsAiv87eXXnqpLGQZdI8kPo9ECnTo2LFjWhOAOSkciuKhghwgCUxpsrO+++47rcyi/rsegTYhxCArxAYbcQZxC5ZGVcYaIbEKV4VEqSDByRyICrpnEpNR7G3GiXPSY02CFBDEXdcu4/O6vbZlzTpFa+B5IXLB2uQ7bq7fmYqk8bLbj0wKNIZJhR9E0gbf7YLvhKlEhhbnDXJR04046BfPte9hg801ZDKa05qATwgNQgoiBMSjnj176jFkEkDzOTnFdi8vzpx1MRmpueCcj3ElQQr4+LNmzQpcR4yP+5MHY0RGO+OR9Ux+zTPPPFOWks8hKF7QksuBwqRwjIUUTOdwJ3iw8D2xDBo0aKBJABM86IH0G6D9fgNvcpOpn0m8oS+UXEjIHIZC5CHcJK8b//+sZMoDCYNzUovZbjcJUojSbzuD17ZCWeM8G7ms0yj9cLk2VlJwuWGudYwLkSk8E5QMksv9jBBaipmMuYwzTN04cQ5z/zDX4P+TvBTX69jC9MFcY7teLq8CiHKvqNcWPSmYpCMm1++dd0HJIK4AmQgF9Xl1d7a3S7u2eS7VCzrvUIxjxWRnFw5jpcY9HjvF3jV8H3cfXNsrelJgICa70T6vwIRj7rMbGP2AMA5xXk5U5pqhZiYtKNLhCuy5Us8PZyI4aC9hcD5XcHEdB5saUSxS7InSIX4jwDds2DDv6cuufS4JUmAw3n8G8+yzz6qnn37ad5y8GYcIiGshWoFQZl43niuhuN6nFOvFiXMpjj9Kn9EL2KQ4E+FXCnGuwWU8JUMKRr0lLPTBBx+o48ePqz179mjT0D4RSD3OYlxyySUu49evwuIACm0U6k03Th0tUCVcNj+cwYuokivOBep+wW9LONyc5vSeXC3WFwOXDCmY2UW5JdOQ12tHVWwhEE704ePJP5gt+PMjHSgSBEqOFGDbuP8VPXMR16vFi2RepRuCQGgESo4UQo9ULhQEBAEnBIQUnGCSSoJAehAQUkjPXMtIBQEnBIQUnGCSSoJAehAQUkjPXMtIBQEnBIQUnGCSSoJAehAQUkjPXMtIBQEnBIQUnGCSSoJAehAQUkjPXMtIBQEnBIQUnGCSSoJAehAQUkjPXMtIBQEnBIQUnGCSSoJAehAQUkjPXMtIBQEnBIQUnGCSSoJAehAQUkjPXMtIBQEnBIQUnGCSSoJAehAQUkjPXMtIBQEnBIQUnGCSSoJAehAQUkjPXMtIBQEnBIQUnGCSSoJAehAQUkjPXMtIBQEnBIQUnGCSSoJAehAQUkjPXMtIBQEnBP4DXjFjucyWqtwAAAAASUVORK5CYII=;" vertex="1" parent="1">
          <mxGeometry x="197.99517241379303" y="1758.9962068965517" width="261" height="74" as="geometry" />
        </mxCell>
      </root>
    </mxGraphModel>
  </diagram>
</mxfile>
